<meta message track_name name='Ai No Uta' time=0>
<meta message track_name name='From Pikmin' time=0>
<meta message copyright text='Nintendo' time=0>
<meta message text text='Strawberry Flower\n' time=0>
<meta message text text="Though it is true, I didn't technically write this piece, I transcribed every note to this MIDI, so don't anyone try and take credit for it. Distribute it freely.\n" time=0>
<meta message time_signature numerator=1 denominator=4 clocks_per_click=24 notated_32nd_notes_per_beat=8 time=0>
<meta message key_signature key='D' time=0>
<meta message set_tempo tempo=779221 time=0>
<meta message track_name name='Melody' time=0>
program_change channel=0 program=59 time=0
control_change channel=0 control=7 value=127 time=0
<meta message track_name name='Music Box' time=0>
program_change channel=1 program=10 time=0
<meta message track_name name='Flute 1' time=0>
program_change channel=2 program=73 time=0
control_change channel=2 control=7 value=60 time=0
<meta message track_name name='Flute 2' time=0>
program_change channel=3 program=73 time=0
control_change channel=3 control=7 value=60 time=0
<meta message track_name name='Flute 3' time=0>
program_change channel=4 program=73 time=0
control_change channel=4 control=7 value=60 time=0
<meta message track_name name='Guitar A' time=0>
program_change channel=5 program=25 time=0
<meta message track_name name='Guitar B' time=0>
program_change channel=6 program=24 time=0
<meta message track_name name='Guitar C' time=0>
program_change channel=7 program=24 time=0
<meta message track_name name='Guitar D' time=0>
program_change channel=8 program=24 time=0
<meta message track_name name='Percussion' time=0>
control_change channel=9 control=7 value=80 time=0
<meta message track_name name='Base' time=0>
program_change channel=10 program=33 time=0
<meta message track_name name='Accordion 1' time=0>
program_change channel=11 program=21 time=0
control_change channel=11 control=7 value=100 time=0
<meta message track_name name='Accordion 2' time=0>
program_change channel=12 program=21 time=0
control_change channel=12 control=7 value=70 time=0
<meta message track_name name='Violin' time=0>
program_change channel=13 program=40 time=0
control_change channel=13 control=7 value=60 time=0
<meta message track_name name='Cello' time=0>
program_change channel=13 program=42 time=0
control_change channel=13 control=7 value=60 time=0
<meta message track_name name='Double Bass' time=0>
program_change channel=15 program=43 time=0
control_change channel=15 control=7 value=70 time=0
note_on channel=11 note=74 velocity=100 time=0.38961049999999997
note_on channel=11 note=74 velocity=0 time=0.19480524999999999
note_on channel=11 note=76 velocity=100 time=0
<meta message time_signature numerator=4 denominator=4 clocks_per_click=24 notated_32nd_notes_per_beat=8 time=0.19480524999999999>
note_on channel=8 note=50 velocity=100 time=0
note_on channel=11 note=76 velocity=0 time=0
note_on channel=11 note=78 velocity=100 time=0
note_on channel=7 note=57 velocity=100 time=0.38961049999999997
note_on channel=5 note=66 velocity=100 time=0.38961049999999997
note_on channel=6 note=62 velocity=100 time=0
note_on channel=7 note=57 velocity=0 time=0.38961049999999997
note_on channel=7 note=57 velocity=100 time=0
note_on channel=5 note=66 velocity=0 time=0.38961049999999997
note_on channel=6 note=62 velocity=0 time=0
note_on channel=7 note=57 velocity=0 time=0
note_on channel=8 note=50 velocity=0 time=0
note_on channel=8 note=45 velocity=100 time=0
note_on channel=7 note=57 velocity=100 time=0.38961049999999997
note_on channel=11 note=78 velocity=0 time=0
note_on channel=11 note=79 velocity=100 time=0
note_on channel=11 note=79 velocity=0 time=0.19480524999999999
note_on channel=11 note=78 velocity=100 time=0
note_on channel=5 note=66 velocity=100 time=0.19480524999999999
note_on channel=6 note=62 velocity=100 time=0
note_on channel=11 note=78 velocity=0 time=0
note_on channel=11 note=76 velocity=100 time=0
note_on channel=7 note=57 velocity=0 time=0.38961049999999997
note_on channel=7 note=57 velocity=100 time=0
note_on channel=11 note=76 velocity=0 time=0
note_on channel=11 note=74 velocity=100 time=0
note_on channel=5 note=66 velocity=0 time=0.38961049999999997
note_on channel=6 note=62 velocity=0 time=0
note_on channel=7 note=57 velocity=0 time=0
note_on channel=8 note=45 velocity=0 time=0
note_on channel=8 note=50 velocity=100 time=0
note_on channel=11 note=74 velocity=0 time=0
note_on channel=11 note=78 velocity=100 time=0
note_on channel=7 note=57 velocity=100 time=0.38961049999999997
note_on channel=5 note=66 velocity=100 time=0.38961049999999997
note_on channel=6 note=62 velocity=100 time=0
note_on channel=11 note=78 velocity=0 time=0
note_on channel=11 note=79 velocity=100 time=0
note_on channel=7 note=57 velocity=0 time=0.38961049999999997
note_on channel=7 note=57 velocity=100 time=0
note_on channel=11 note=79 velocity=0 time=0
note_on channel=11 note=78 velocity=100 time=0
note_on channel=11 note=79 velocity=100 time=0.25324682499999995
note_on channel=11 note=78 velocity=0 time=0.03896105
note_on channel=11 note=78 velocity=100 time=0.0064935083333333326
note_on channel=11 note=79 velocity=0 time=0.05194806666666666
note_on channel=5 note=66 velocity=0 time=0.03896105
note_on channel=6 note=62 velocity=0 time=0
note_on channel=7 note=57 velocity=0 time=0
note_on channel=8 note=50 velocity=0 time=0
note_on channel=8 note=45 velocity=100 time=0
note_on channel=11 note=76 velocity=100 time=0
note_on channel=11 note=78 velocity=0 time=0.0064935083333333326
note_on channel=7 note=57 velocity=100 time=0.03896105
note_on channel=6 note=61 velocity=100 time=0.045454558333333325
note_on channel=5 note=64 velocity=100 time=0.045454558333333325
note_on channel=0 note=78 velocity=100 time=1.4220783249999998
<meta message lyrics text='Hik ' time=0>
note_on channel=5 note=64 velocity=0 time=0
note_on channel=6 note=61 velocity=0 time=0
note_on channel=7 note=57 velocity=0 time=0
note_on channel=8 note=45 velocity=0 time=0
note_on channel=8 note=50 velocity=100 time=0
note_on channel=11 note=76 velocity=0 time=0
note_on channel=0 note=78 velocity=0 time=0.19480524999999999
note_on channel=0 note=78 velocity=100 time=0.19480524999999999
<meta message lyrics text='ko ' time=0>
note_on channel=7 note=57 velocity=100 time=0
note_on channel=0 note=78 velocity=0 time=0.19480524999999999
note_on channel=0 note=78 velocity=100 time=0
<meta message lyrics text='nu ' time=0>
note_on channel=0 note=78 velocity=0 time=0.19480524999999999
note_on channel=0 note=78 velocity=100 time=0
<meta message lyrics text='ka ' time=0>
note_on channel=5 note=66 velocity=100 time=0
note_on channel=6 note=62 velocity=100 time=0
note_on channel=9 note=77 velocity=100 time=0
note_on channel=0 note=78 velocity=0 time=0.38961049999999997
note_on channel=0 note=79 velocity=100 time=0
<meta message lyrics text='re ' time=0>
note_on channel=7 note=57 velocity=0 time=0
note_on channel=7 note=57 velocity=100 time=0
note_on channel=9 note=77 velocity=0 time=0
note_on channel=0 note=79 velocity=0 time=0.19480524999999999
note_on channel=0 note=81 velocity=100 time=0
<meta message lyrics text='te, ' time=0>
note_on channel=5 note=66 velocity=0 time=0.19480524999999999
note_on channel=6 note=62 velocity=0 time=0
note_on channel=7 note=57 velocity=0 time=0
note_on channel=8 note=50 velocity=0 time=0
note_on channel=8 note=45 velocity=100 time=0
control_change channel=11 control=7 value=100 time=0
control_change channel=11 control=7 value=99 time=0.012987016666666665
control_change channel=11 control=7 value=98 time=0.019480525
control_change channel=11 control=7 value=97 time=0.012987016666666665
control_change channel=11 control=7 value=96 time=0.019480525
control_change channel=11 control=7 value=95 time=0.012987016666666665
control_change channel=11 control=7 value=94 time=0.012987016666666665
control_change channel=11 control=7 value=93 time=0.019480525
control_change channel=11 control=7 value=92 time=0.012987016666666665
control_change channel=11 control=7 value=91 time=0.019480525
control_change channel=11 control=7 value=90 time=0.012987016666666665
control_change channel=11 control=7 value=89 time=0.012987016666666665
control_change channel=11 control=7 value=88 time=0.019480525
note_on channel=0 note=81 velocity=0 time=0.0064935083333333326
control_change channel=11 control=7 value=87 time=0
control_change channel=11 control=7 value=86 time=0.012987016666666665
control_change channel=11 control=7 value=85 time=0.019480525
control_change channel=11 control=7 value=84 time=0.012987016666666665
control_change channel=11 control=7 value=83 time=0.019480525
control_change channel=11 control=7 value=82 time=0.012987016666666665
control_change channel=11 control=7 value=81 time=0.012987016666666665
control_change channel=11 control=7 value=80 time=0.019480525
control_change channel=11 control=7 value=79 time=0.012987016666666665
control_change channel=11 control=7 value=78 time=0.019480525
control_change channel=11 control=7 value=77 time=0.012987016666666665
control_change channel=11 control=7 value=76 time=0.012987016666666665
control_change channel=11 control=7 value=75 time=0.019480525
note_on channel=0 note=81 velocity=100 time=0.0064935083333333326
<meta message lyrics text='a ' time=0>
note_on channel=7 note=57 velocity=100 time=0
control_change channel=11 control=7 value=74 time=0
control_change channel=11 control=7 value=73 time=0.012987016666666665
control_change channel=11 control=7 value=72 time=0.019480525
control_change channel=11 control=7 value=71 time=0.012987016666666665
control_change channel=11 control=7 value=70 time=0.019480525
control_change channel=11 control=7 value=69 time=0.012987016666666665
control_change channel=11 control=7 value=68 time=0.012987016666666665
control_change channel=11 control=7 value=67 time=0.019480525
control_change channel=11 control=7 value=66 time=0.012987016666666665
control_change channel=11 control=7 value=65 time=0.019480525
control_change channel=11 control=7 value=64 time=0.012987016666666665
control_change channel=11 control=7 value=63 time=0.012987016666666665
control_change channel=11 control=7 value=62 time=0.019480525
note_on channel=0 note=81 velocity=0 time=0.0064935083333333326
note_on channel=0 note=81 velocity=100 time=0
<meta message lyrics text='na ' time=0>
control_change channel=11 control=7 value=61 time=0
control_change channel=11 control=7 value=60 time=0.012987016666666665
control_change channel=11 control=7 value=59 time=0.019480525
control_change channel=11 control=7 value=58 time=0.012987016666666665
control_change channel=11 control=7 value=57 time=0.019480525
control_change channel=11 control=7 value=56 time=0.012987016666666665
control_change channel=11 control=7 value=55 time=0.012987016666666665
control_change channel=11 control=7 value=54 time=0.019480525
control_change channel=11 control=7 value=53 time=0.012987016666666665
control_change channel=11 control=7 value=52 time=0.019480525
control_change channel=11 control=7 value=51 time=0.012987016666666665
control_change channel=11 control=7 value=50 time=0.012987016666666665
control_change channel=11 control=7 value=49 time=0.019480525
note_on channel=0 note=81 velocity=0 time=0.0064935083333333326
note_on channel=0 note=81 velocity=100 time=0
<meta message lyrics text='ta ' time=0>
note_on channel=5 note=66 velocity=100 time=0
note_on channel=6 note=62 velocity=100 time=0
control_change channel=11 control=7 value=48 time=0
note_on channel=0 note=81 velocity=0 time=0.19480524999999999
note_on channel=0 note=81 velocity=100 time=0
<meta message lyrics text='da ' time=0>
note_on channel=0 note=81 velocity=0 time=0.19480524999999999
note_on channel=0 note=81 velocity=100 time=0
<meta message lyrics text='ke ' time=0>
note_on channel=5 note=66 velocity=0 time=0
note_on channel=6 note=62 velocity=0 time=0
note_on channel=7 note=57 velocity=0 time=0
note_on channel=7 note=57 velocity=100 time=0
note_on channel=0 note=81 velocity=0 time=0.19480524999999999
note_on channel=0 note=83 velocity=100 time=0
<meta message lyrics text='ni ' time=0>
note_on channel=7 note=57 velocity=0 time=0.19480524999999999
note_on channel=8 note=45 velocity=0 time=0
note_on channel=8 note=43 velocity=100 time=0
note_on channel=0 note=83 velocity=0 time=0.19480524999999999
note_on channel=0 note=83 velocity=100 time=0.19480524999999999
<meta message lyrics text='tsu ' time=0>
note_on channel=7 note=55 velocity=100 time=0
note_on channel=0 note=83 velocity=0 time=0.19480524999999999
note_on channel=0 note=79 velocity=100 time=0
<meta message lyrics text='i ' time=0>
note_on channel=0 note=79 velocity=0 time=0.19480524999999999
note_on channel=0 note=79 velocity=100 time=0
<meta message lyrics text='te ' time=0>
note_on channel=5 note=67 velocity=100 time=0
note_on channel=6 note=59 velocity=100 time=0
note_on channel=9 note=77 velocity=100 time=0
control_change channel=11 control=7 value=100 time=0
note_on channel=0 note=79 velocity=0 time=0.38961049999999997
note_on channel=0 note=78 velocity=100 time=0
<meta message lyrics text='yu ' time=0>
note_on channel=7 note=55 velocity=0 time=0
note_on channel=7 note=55 velocity=100 time=0
note_on channel=9 note=77 velocity=0 time=0
note_on channel=0 note=78 velocity=0 time=0.19480524999999999
note_on channel=0 note=79 velocity=100 time=0
<meta message lyrics text='ku, ' time=0>
note_on channel=5 note=67 velocity=0 time=0.19480524999999999
note_on channel=6 note=59 velocity=0 time=0
note_on channel=7 note=55 velocity=0 time=0
note_on channel=8 note=43 velocity=0 time=0
note_on channel=8 note=50 velocity=100 time=0
note_on channel=7 note=55 velocity=100 time=0.38961049999999997
note_on channel=0 note=79 velocity=0 time=0.19480524999999999
note_on channel=0 note=74 velocity=100 time=0.19480524999999999
<meta message lyrics text='kyou ' time=0>
note_on channel=5 note=67 velocity=100 time=0
note_on channel=6 note=59 velocity=100 time=0
note_on channel=0 note=74 velocity=0 time=0.38961049999999997
note_on channel=0 note=76 velocity=100 time=0
<meta message lyrics text='mo ' time=0>
note_on channel=5 note=67 velocity=0 time=0
note_on channel=6 note=59 velocity=0 time=0
note_on channel=7 note=55 velocity=0 time=0
note_on channel=7 note=55 velocity=100 time=0
note_on channel=0 note=76 velocity=0 time=0.38961049999999997
note_on channel=0 note=78 velocity=100 time=0
<meta message lyrics text='ha ' time=0>
note_on channel=7 note=55 velocity=0 time=0
note_on channel=8 note=50 velocity=0 time=0
note_on channel=8 note=47 velocity=100 time=0
note_on channel=0 note=78 velocity=0 time=0.19480524999999999
note_on channel=0 note=78 velocity=100 time=0
<meta message lyrics text='ko ' time=0>
note_on channel=0 note=78 velocity=0 time=0.19480524999999999
note_on channel=0 note=78 velocity=100 time=0
<meta message lyrics text='bu ' time=0>
note_on channel=7 note=59 velocity=100 time=0
note_on channel=0 note=78 velocity=0 time=0.38961049999999997
note_on channel=0 note=78 velocity=100 time=0
<meta message lyrics text='ta ' time=0>
note_on channel=5 note=66 velocity=100 time=0
note_on channel=6 note=62 velocity=100 time=0
note_on channel=9 note=77 velocity=100 time=0
note_on channel=0 note=78 velocity=0 time=0.19480524999999999
note_on channel=0 note=78 velocity=100 time=0
<meta message lyrics text='ta ' time=0>
note_on channel=0 note=78 velocity=0 time=0.19480524999999999
note_on channel=0 note=78 velocity=100 time=0
<meta message lyrics text='kau ' time=0>
note_on channel=7 note=59 velocity=0 time=0
note_on channel=7 note=59 velocity=100 time=0
note_on channel=9 note=77 velocity=0 time=0
note_on channel=0 note=78 velocity=0 time=0.38961049999999997
note_on channel=0 note=78 velocity=100 time=0
<meta message lyrics text='fu ' time=0>
note_on channel=5 note=66 velocity=0 time=0
note_on channel=6 note=62 velocity=0 time=0
note_on channel=7 note=59 velocity=0 time=0
note_on channel=8 note=47 velocity=0 time=0
note_on channel=8 note=42 velocity=100 time=0
note_on channel=0 note=78 velocity=0 time=0.19480524999999999
note_on channel=0 note=78 velocity=100 time=0
<meta message lyrics text='e ' time=0>
note_on channel=0 note=78 velocity=0 time=0.19480524999999999
note_on channel=0 note=78 velocity=100 time=0
<meta message lyrics text='ru ' time=0>
note_on channel=7 note=58 velocity=100 time=0
note_on channel=0 note=78 velocity=0 time=0.38961049999999997
note_on channel=0 note=76 velocity=100 time=0
<meta message lyrics text='soshi ' time=0>
note_on channel=5 note=66 velocity=100 time=0
note_on channel=6 note=61 velocity=100 time=0
note_on channel=9 note=77 velocity=100 time=0
note_on channel=0 note=76 velocity=0 time=0.38961049999999997
note_on channel=0 note=76 velocity=100 time=0
<meta message lyrics text='te ' time=0>
note_on channel=7 note=58 velocity=0 time=0
note_on channel=7 note=58 velocity=100 time=0
note_on channel=9 note=77 velocity=0 time=0
note_on channel=0 note=76 velocity=0 time=0.38961049999999997
note_on channel=0 note=76 velocity=100 time=0
<meta message lyrics text='ta ' time=0>
note_on channel=5 note=66 velocity=0 time=0
note_on channel=6 note=61 velocity=0 time=0
note_on channel=7 note=58 velocity=0 time=0
note_on channel=8 note=42 velocity=0 time=0
note_on channel=8 note=43 velocity=100 time=0
note_on channel=9 note=77 velocity=100 time=0
note_on channel=0 note=76 velocity=0 time=0.19480524999999999
note_on channel=0 note=78 velocity=100 time=0
<meta message lyrics text='be ' time=0>
note_on channel=5 note=67 velocity=100 time=0.19480524999999999
note_on channel=6 note=59 velocity=100 time=0
note_on channel=7 note=55 velocity=100 time=0
note_on channel=9 note=77 velocity=0 time=0
note_on channel=0 note=78 velocity=0 time=0.38961049999999997
note_on channel=0 note=76 velocity=100 time=0
<meta message lyrics text='ra ' time=0>
note_on channel=5 note=67 velocity=0 time=0
note_on channel=6 note=59 velocity=0 time=0
note_on channel=7 note=55 velocity=0 time=0
note_on channel=8 note=43 velocity=0 time=0
note_on channel=8 note=45 velocity=100 time=0
note_on channel=9 note=77 velocity=100 time=0
note_on channel=0 note=76 velocity=0 time=0.19480524999999999
note_on channel=0 note=74 velocity=100 time=0
<meta message lyrics text='re ' time=0>
note_on channel=0 note=74 velocity=0 time=0.19480524999999999
note_on channel=0 note=74 velocity=100 time=0
<meta message lyrics text='ru. ' time=0>
note_on channel=5 note=64 velocity=100 time=0
note_on channel=6 note=61 velocity=100 time=0
note_on channel=7 note=57 velocity=100 time=0
note_on channel=9 note=77 velocity=0 time=0
note_on channel=5 note=64 velocity=0 time=0.38961049999999997
note_on channel=6 note=61 velocity=0 time=0
note_on channel=7 note=57 velocity=0 time=0
note_on channel=8 note=45 velocity=0 time=0
note_on channel=8 note=50 velocity=100 time=0
control_change channel=11 control=7 value=70 time=0.0064935083333333326
note_on channel=7 note=57 velocity=100 time=0.38311699166666663
note_on channel=5 note=66 velocity=100 time=0.38961049999999997
note_on channel=6 note=62 velocity=100 time=0
note_on channel=11 note=74 velocity=100 time=0
note_on channel=0 note=74 velocity=0 time=0.38961049999999997
note_on channel=7 note=57 velocity=0 time=0
note_on channel=7 note=57 velocity=100 time=0
note_on channel=11 note=74 velocity=0 time=0
note_on channel=11 note=76 velocity=100 time=0
note_on channel=0 note=78 velocity=100 time=0.38961049999999997
<meta message lyrics text='Hot ' time=0>
note_on channel=5 note=66 velocity=0 time=0
note_on channel=6 note=62 velocity=0 time=0
note_on channel=7 note=57 velocity=0 time=0
note_on channel=8 note=50 velocity=0 time=0
note_on channel=8 note=50 velocity=100 time=0
note_on channel=11 note=76 velocity=0 time=0
note_on channel=11 note=78 velocity=100 time=0
note_on channel=0 note=78 velocity=0 time=0.19480524999999999
note_on channel=0 note=78 velocity=100 time=0.19480524999999999
<meta message lyrics text='ta ' time=0>
note_on channel=7 note=57 velocity=100 time=0
note_on channel=0 note=78 velocity=0 time=0.19480524999999999
note_on channel=0 note=78 velocity=100 time=0
<meta message lyrics text='ka ' time=0>
note_on channel=0 note=78 velocity=0 time=0.19480524999999999
note_on channel=0 note=78 velocity=100 time=0
<meta message lyrics text='sa ' time=0>
note_on channel=5 note=66 velocity=100 time=0
note_on channel=6 note=62 velocity=100 time=0
note_on channel=9 note=77 velocity=100 time=0
note_on channel=0 note=78 velocity=0 time=0.38961049999999997
note_on channel=0 note=79 velocity=100 time=0
<meta message lyrics text='re ' time=0>
note_on channel=7 note=57 velocity=0 time=0
note_on channel=7 note=57 velocity=100 time=0
note_on channel=9 note=77 velocity=0 time=0
note_on channel=0 note=79 velocity=0 time=0.19480524999999999
note_on channel=0 note=81 velocity=100 time=0
<meta message lyrics text='te ' time=0>
note_on channel=5 note=66 velocity=0 time=0.19480524999999999
note_on channel=6 note=62 velocity=0 time=0
note_on channel=7 note=57 velocity=0 time=0
note_on channel=8 note=50 velocity=0 time=0
note_on channel=8 note=45 velocity=100 time=0
note_on channel=0 note=81 velocity=0 time=0.19480524999999999
note_on channel=0 note=81 velocity=100 time=0.19480524999999999
<meta message lyrics text='ma ' time=0>
note_on channel=7 note=57 velocity=100 time=0
note_on channel=0 note=81 velocity=0 time=0.19480524999999999
note_on channel=0 note=81 velocity=100 time=0
<meta message lyrics text='ta ' time=0>
note_on channel=0 note=81 velocity=0 time=0.19480524999999999
note_on channel=0 note=81 velocity=100 time=0
<meta message lyrics text='a ' time=0>
note_on channel=5 note=66 velocity=100 time=0
note_on channel=6 note=62 velocity=100 time=0
note_on channel=11 note=78 velocity=0 time=0
note_on channel=11 note=81 velocity=100 time=0
note_on channel=0 note=81 velocity=0 time=0.38961049999999997
note_on channel=0 note=81 velocity=100 time=0
note_on channel=5 note=66 velocity=0 time=0
note_on channel=6 note=62 velocity=0 time=0
note_on channel=7 note=57 velocity=0 time=0
note_on channel=7 note=55 velocity=100 time=0
note_on channel=0 note=81 velocity=0 time=0.19480524999999999
note_on channel=0 note=83 velocity=100 time=0
<meta message lyrics text='te ' time=0>
note_on channel=7 note=55 velocity=0 time=0.19480524999999999
note_on channel=8 note=45 velocity=0 time=0
note_on channel=8 note=43 velocity=100 time=0
note_on channel=11 note=81 velocity=0 time=0
note_on channel=11 note=79 velocity=100 time=0
note_on channel=0 note=83 velocity=0 time=0.19480524999999999
note_on channel=0 note=83 velocity=100 time=0.19480524999999999
<meta message lyrics text='na ' time=0>
note_on channel=7 note=55 velocity=100 time=0
note_on channel=0 note=83 velocity=0 time=0.19480524999999999
note_on channel=0 note=79 velocity=100 time=0
<meta message lyrics text='ge ' time=0>
note_on channel=5 note=67 velocity=100 time=0.19480524999999999
note_on channel=6 note=59 velocity=100 time=0
note_on channel=9 note=77 velocity=100 time=0
note_on channel=0 note=79 velocity=0 time=0.19480524999999999
note_on channel=0 note=79 velocity=100 time=0
<meta message lyrics text='ra ' time=0>
note_on channel=0 note=79 velocity=0 time=0.19480524999999999
note_on channel=0 note=78 velocity=100 time=0
<meta message lyrics text='re ' time=0>
note_on channel=7 note=55 velocity=0 time=0
note_on channel=7 note=55 velocity=100 time=0
note_on channel=9 note=77 velocity=0 time=0
note_on channel=11 note=79 velocity=0 time=0
note_on channel=0 note=78 velocity=0 time=0.19480524999999999
note_on channel=0 note=79 velocity=100 time=0
<meta message lyrics text='te, ' time=0>
note_on channel=5 note=67 velocity=0 time=0.19480524999999999
note_on channel=6 note=59 velocity=0 time=0
note_on channel=7 note=55 velocity=0 time=0
note_on channel=8 note=43 velocity=0 time=0
note_on channel=8 note=50 velocity=100 time=0
note_on channel=11 note=71 velocity=100 time=0
note_on channel=7 note=55 velocity=100 time=0.38961049999999997
note_on channel=11 note=71 velocity=0 time=0
note_on channel=11 note=73 velocity=100 time=0
note_on channel=0 note=79 velocity=0 time=0.19480524999999999
note_on channel=0 note=74 velocity=100 time=0.19480524999999999
<meta message lyrics text='de ' time=0>
note_on channel=5 note=67 velocity=100 time=0
note_on channel=6 note=59 velocity=100 time=0
note_on channel=11 note=73 velocity=0 time=0
note_on channel=11 note=74 velocity=100 time=0
note_on channel=0 note=74 velocity=0 time=0.38961049999999997
note_on channel=0 note=76 velocity=100 time=0
<meta message lyrics text='mo ' time=0>
note_on channel=5 note=67 velocity=0 time=0
note_on channel=6 note=59 velocity=0 time=0
note_on channel=7 note=55 velocity=0 time=0
note_on channel=7 note=55 velocity=100 time=0
note_on channel=11 note=74 velocity=0 time=0
note_on channel=11 note=76 velocity=100 time=0
note_on channel=0 note=76 velocity=0 time=0.38961049999999997
note_on channel=0 note=78 velocity=100 time=0
<meta message lyrics text='wa ' time=0>
note_on channel=7 note=55 velocity=0 time=0
note_on channel=8 note=50 velocity=0 time=0
note_on channel=8 note=47 velocity=100 time=0
note_on channel=11 note=76 velocity=0 time=0
note_on channel=11 note=78 velocity=100 time=0
note_on channel=0 note=78 velocity=0 time=0.19480524999999999
note_on channel=0 note=78 velocity=100 time=0
<meta message lyrics text='ta ' time=0>
note_on channel=0 note=78 velocity=0 time=0.19480524999999999
note_on channel=0 note=78 velocity=100 time=0
<meta message lyrics text='shi ' time=0>
note_on channel=7 note=59 velocity=100 time=0
note_on channel=0 note=78 velocity=0 time=0.19480524999999999
note_on channel=0 note=78 velocity=100 time=0
<meta message lyrics text='ta ' time=0>
note_on channel=5 note=66 velocity=100 time=0.19480524999999999
note_on channel=6 note=62 velocity=100 time=0
note_on channel=9 note=77 velocity=100 time=0
note_on channel=11 note=78 velocity=0 time=0.29220787499999995
note_on channel=7 note=59 velocity=0 time=0.09740262499999999
note_on channel=7 note=59 velocity=100 time=0
note_on channel=9 note=77 velocity=0 time=0
note_on channel=11 note=71 velocity=100 time=0
note_on channel=0 note=78 velocity=0 time=0.19480524999999999
note_on channel=0 note=78 velocity=100 time=0
<meta message lyrics text='chi ' time=0>
note_on channel=0 note=78 velocity=0 time=0.19480524999999999
note_on channel=0 note=78 velocity=100 time=0
<meta message lyrics text='an ' time=0>
note_on channel=5 note=66 velocity=0 time=0
note_on channel=6 note=62 velocity=0 time=0
note_on channel=7 note=59 velocity=0 time=0
note_on channel=8 note=47 velocity=0 time=0
note_on channel=8 note=42 velocity=100 time=0
note_on channel=11 note=71 velocity=0 time=0
note_on channel=11 note=70 velocity=100 time=0
note_on channel=0 note=78 velocity=0 time=0.19480524999999999
note_on channel=0 note=78 velocity=100 time=0
<meta message lyrics text='na ' time=0>
note_on channel=0 note=78 velocity=0 time=0.19480524999999999
note_on channel=0 note=78 velocity=100 time=0
<meta message lyrics text='ta ' time=0>
note_on channel=7 note=58 velocity=100 time=0
note_on channel=0 note=78 velocity=0 time=0.19480524999999999
note_on channel=0 note=76 velocity=100 time=0
<meta message lyrics text='ni ' time=0>
note_on channel=0 note=76 velocity=0 time=0.19480524999999999
note_on channel=0 note=76 velocity=100 time=0
<meta message lyrics text='shi ' time=0>
note_on channel=5 note=66 velocity=100 time=0
note_on channel=6 note=61 velocity=100 time=0
note_on channel=9 note=77 velocity=100 time=0
note_on channel=0 note=76 velocity=0 time=0.19480524999999999
note_on channel=0 note=76 velocity=100 time=0
<meta message lyrics text='ta ' time=0>
note_on channel=0 note=76 velocity=0 time=0.19480524999999999
note_on channel=0 note=78 velocity=100 time=0
<meta message lyrics text='ga ' time=0>
note_on channel=7 note=58 velocity=0 time=0
note_on channel=7 note=58 velocity=100 time=0
note_on channel=9 note=77 velocity=0 time=0
note_on channel=11 note=70 velocity=0 time=0
note_on channel=0 note=78 velocity=0 time=0.19480524999999999
note_on channel=0 note=76 velocity=100 time=0
<meta message lyrics text='u ' time=0>
note_on channel=0 note=76 velocity=0 time=0.19480524999999999
note_on channel=0 note=76 velocity=100 time=0
<meta message lyrics text='tsu ' time=0>
note_on channel=5 note=66 velocity=0 time=0
note_on channel=6 note=61 velocity=0 time=0
note_on channel=7 note=58 velocity=0 time=0
note_on channel=8 note=42 velocity=0 time=0
note_on channel=8 note=43 velocity=100 time=0
note_on channel=9 note=77 velocity=100 time=0
note_on channel=11 note=71 velocity=100 time=0
note_on channel=0 note=76 velocity=0 time=0.19480524999999999
note_on channel=0 note=78 velocity=100 time=0
<meta message lyrics text='ku ' time=0>
note_on channel=5 note=67 velocity=100 time=0.19480524999999999
note_on channel=6 note=59 velocity=100 time=0
note_on channel=7 note=55 velocity=100 time=0
note_on channel=9 note=77 velocity=0 time=0
note_on channel=0 note=78 velocity=0 time=0.38961049999999997
note_on channel=0 note=76 velocity=100 time=0
<meta message lyrics text='shi ' time=0>
note_on channel=5 note=67 velocity=0 time=0
note_on channel=6 note=59 velocity=0 time=0
note_on channel=7 note=55 velocity=0 time=0
note_on channel=8 note=43 velocity=0 time=0
note_on channel=8 note=45 velocity=100 time=0
note_on channel=9 note=77 velocity=100 time=0
note_on channel=11 note=71 velocity=0 time=0
note_on channel=11 note=73 velocity=100 time=0
note_on channel=0 note=76 velocity=0 time=0.19480524999999999
note_on channel=0 note=74 velocity=100 time=0
<meta message lyrics text='ma ' time=0>
note_on channel=0 note=74 velocity=0 time=0.19480524999999999
note_on channel=0 note=74 velocity=100 time=0
<meta message lyrics text='su. ' time=0>
note_on channel=5 note=64 velocity=100 time=0
note_on channel=6 note=61 velocity=100 time=0
note_on channel=7 note=57 velocity=100 time=0
note_on channel=9 note=77 velocity=0 time=0
note_on channel=5 note=64 velocity=0 time=0.38961049999999997
note_on channel=6 note=61 velocity=0 time=0
note_on channel=7 note=57 velocity=0 time=0
note_on channel=8 note=45 velocity=0 time=0
note_on channel=8 note=50 velocity=100 time=0
note_on channel=11 note=73 velocity=0 time=0
note_on channel=11 note=74 velocity=100 time=0
note_on channel=7 note=57 velocity=100 time=0.38961049999999997
note_on channel=5 note=66 velocity=100 time=0.38961049999999997
note_on channel=6 note=62 velocity=100 time=0
note_on channel=0 note=74 velocity=0 time=0.38961049999999997
note_on channel=5 note=66 velocity=0 time=0
note_on channel=6 note=62 velocity=0 time=0
note_on channel=7 note=57 velocity=0 time=0
note_on channel=7 note=55 velocity=100 time=0
note_on channel=2 note=71 velocity=100 time=0.38961049999999997
note_on channel=3 note=67 velocity=100 time=0
note_on channel=4 note=62 velocity=100 time=0
note_on channel=5 note=67 velocity=100 time=0
note_on channel=6 note=59 velocity=100 time=0
note_on channel=7 note=55 velocity=0 time=0
note_on channel=8 note=50 velocity=0 time=0
note_on channel=8 note=43 velocity=100 time=0
note_on channel=11 note=74 velocity=0 time=0
note_on channel=13 note=67 velocity=100 time=0
note_on channel=13 note=55 velocity=100 time=0
note_on channel=15 note=43 velocity=100 time=0
note_on channel=2 note=71 velocity=0 time=0.38961049999999997
note_on channel=3 note=67 velocity=0 time=0
note_on channel=4 note=62 velocity=0 time=0
note_on channel=7 note=55 velocity=100 time=0
note_on channel=13 note=67 velocity=0 time=0
note_on channel=13 note=62 velocity=100 time=0
note_on channel=0 note=79 velocity=100 time=0.38961049999999997
<meta message lyrics text='So ' time=0>
note_on channel=2 note=71 velocity=100 time=0
note_on channel=3 note=67 velocity=100 time=0
note_on channel=4 note=62 velocity=100 time=0
note_on channel=5 note=67 velocity=0 time=0
note_on channel=5 note=67 velocity=100 time=0
note_on channel=6 note=59 velocity=0 time=0
note_on channel=6 note=59 velocity=100 time=0
note_on channel=13 note=62 velocity=0 time=0
note_on channel=13 note=67 velocity=100 time=0
note_on channel=0 note=79 velocity=0 time=0.19480524999999999
note_on channel=0 note=79 velocity=100 time=0
<meta message lyrics text='ro ' time=0>
note_on channel=0 note=79 velocity=0 time=0.19480524999999999
note_on channel=0 note=79 velocity=100 time=0
<meta message lyrics text='so ' time=0>
note_on channel=2 note=71 velocity=0 time=0
note_on channel=3 note=67 velocity=0 time=0
note_on channel=4 note=62 velocity=0 time=0
note_on channel=5 note=67 velocity=0 time=0
note_on channel=5 note=62 velocity=100 time=0
note_on channel=7 note=55 velocity=0 time=0
note_on channel=7 note=55 velocity=100 time=0
note_on channel=13 note=67 velocity=0 time=0
note_on channel=13 note=62 velocity=100 time=0
note_on channel=0 note=79 velocity=0 time=0.19480524999999999
note_on channel=0 note=79 velocity=100 time=0
<meta message lyrics text='ro ' time=0>
note_on channel=0 note=79 velocity=0 time=0.19480524999999999
note_on channel=0 note=81 velocity=100 time=0
<meta message lyrics text='a ' time=0>
note_on channel=2 note=73 velocity=100 time=0
note_on channel=3 note=69 velocity=100 time=0
note_on channel=4 note=64 velocity=100 time=0
note_on channel=5 note=62 velocity=0 time=0
note_on channel=5 note=64 velocity=100 time=0
note_on channel=6 note=59 velocity=0 time=0
note_on channel=6 note=61 velocity=100 time=0
note_on channel=7 note=55 velocity=0 time=0
note_on channel=8 note=43 velocity=0 time=0
note_on channel=8 note=45 velocity=100 time=0
note_on channel=13 note=62 velocity=0 time=0
note_on channel=13 note=69 velocity=100 time=0
note_on channel=13 note=55 velocity=0 time=0
note_on channel=13 note=57 velocity=100 time=0
note_on channel=15 note=43 velocity=0 time=0
note_on channel=15 note=45 velocity=100 time=0
note_on channel=0 note=81 velocity=0 time=0.19480524999999999
note_on channel=0 note=81 velocity=100 time=0
<meta message lyrics text='son ' time=0>
note_on channel=2 note=73 velocity=0 time=0.19480524999999999
note_on channel=3 note=69 velocity=0 time=0
note_on channel=4 note=64 velocity=0 time=0
note_on channel=7 note=57 velocity=100 time=0
note_on channel=13 note=69 velocity=0 time=0
note_on channel=13 note=64 velocity=100 time=0
note_on channel=0 note=81 velocity=0 time=0.19480524999999999
note_on channel=0 note=81 velocity=100 time=0
<meta message lyrics text='ja ' time=0>
note_on channel=0 note=81 velocity=0 time=0.19480524999999999
note_on channel=0 note=79 velocity=100 time=0
<meta message lyrics text='ou ' time=0>
note_on channel=2 note=73 velocity=100 time=0
note_on channel=3 note=69 velocity=100 time=0
note_on channel=4 note=64 velocity=100 time=0
note_on channel=5 note=64 velocity=0 time=0
note_on channel=5 note=64 velocity=100 time=0
note_on channel=6 note=61 velocity=0 time=0
note_on channel=6 note=61 velocity=100 time=0
note_on channel=13 note=64 velocity=0 time=0
note_on channel=13 note=69 velocity=100 time=0
note_on channel=0 note=79 velocity=0 time=0.38961049999999997
note_on channel=0 note=79 velocity=100 time=0
<meta message lyrics text='ka ' time=0>
note_on channel=2 note=73 velocity=0 time=0
note_on channel=3 note=69 velocity=0 time=0
note_on channel=4 note=64 velocity=0 time=0
note_on channel=7 note=57 velocity=0 time=0
note_on channel=7 note=57 velocity=100 time=0
note_on channel=13 note=69 velocity=0 time=0
note_on channel=13 note=64 velocity=100 time=0
note_on channel=0 note=79 velocity=0 time=0.19480524999999999
note_on channel=0 note=79 velocity=100 time=0
<meta message lyrics text='na... ' time=0>
note_on channel=0 note=79 velocity=0 time=0.19480524999999999
note_on channel=0 note=78 velocity=100 time=0
note_on channel=2 note=69 velocity=100 time=0
note_on channel=3 note=66 velocity=100 time=0
note_on channel=4 note=62 velocity=100 time=0
note_on channel=5 note=64 velocity=0 time=0
note_on channel=5 note=66 velocity=100 time=0
note_on channel=6 note=61 velocity=0 time=0
note_on channel=6 note=62 velocity=100 time=0
note_on channel=7 note=57 velocity=0 time=0
note_on channel=8 note=45 velocity=0 time=0
note_on channel=8 note=50 velocity=100 time=0
note_on channel=13 note=64 velocity=0 time=0
note_on channel=13 note=66 velocity=100 time=0
note_on channel=13 note=57 velocity=0 time=0
note_on channel=13 note=54 velocity=100 time=0
note_on channel=15 note=45 velocity=0 time=0
note_on channel=15 note=38 velocity=100 time=0
note_on channel=2 note=69 velocity=0 time=0.38961049999999997
note_on channel=3 note=66 velocity=0 time=0
note_on channel=4 note=62 velocity=0 time=0
note_on channel=7 note=57 velocity=100 time=0
note_on channel=13 note=66 velocity=0 time=0
note_on channel=13 note=67 velocity=100 time=0
note_on channel=13 note=54 velocity=0 time=0
note_on channel=13 note=55 velocity=100 time=0
note_on channel=2 note=69 velocity=100 time=0.38961049999999997
note_on channel=3 note=66 velocity=100 time=0
note_on channel=4 note=62 velocity=100 time=0
note_on channel=5 note=66 velocity=0 time=0
note_on channel=5 note=66 velocity=100 time=0
note_on channel=6 note=62 velocity=0 time=0
note_on channel=6 note=62 velocity=100 time=0
note_on channel=13 note=67 velocity=0 time=0
note_on channel=13 note=66 velocity=100 time=0
note_on channel=13 note=55 velocity=0 time=0
note_on channel=13 note=54 velocity=100 time=0
note_on channel=2 note=69 velocity=0 time=0.38961049999999997
note_on channel=3 note=66 velocity=0 time=0
note_on channel=4 note=62 velocity=0 time=0
note_on channel=7 note=57 velocity=0 time=0
note_on channel=7 note=57 velocity=100 time=0
note_on channel=13 note=66 velocity=0 time=0
note_on channel=13 note=64 velocity=100 time=0
note_on channel=13 note=54 velocity=0 time=0
note_on channel=13 note=52 velocity=100 time=0
note_on channel=15 note=38 velocity=0 time=0
note_on channel=15 note=40 velocity=100 time=0
note_on channel=0 note=78 velocity=0 time=0.38961049999999997
note_on channel=2 note=69 velocity=100 time=0
note_on channel=3 note=66 velocity=100 time=0
note_on channel=4 note=62 velocity=100 time=0
note_on channel=5 note=66 velocity=0 time=0
note_on channel=5 note=66 velocity=100 time=0
note_on channel=6 note=62 velocity=0 time=0
note_on channel=6 note=62 velocity=100 time=0
note_on channel=13 note=64 velocity=0 time=0
note_on channel=13 note=62 velocity=100 time=0
note_on channel=13 note=52 velocity=0 time=0
note_on channel=13 note=50 velocity=100 time=0
note_on channel=15 note=40 velocity=0 time=0
note_on channel=15 note=42 velocity=100 time=0
note_on channel=2 note=69 velocity=0 time=0.38961049999999997
note_on channel=3 note=66 velocity=0 time=0
note_on channel=4 note=62 velocity=0 time=0
note_on channel=7 note=57 velocity=0 time=0
note_on channel=7 note=57 velocity=100 time=0
note_on channel=13 note=62 velocity=0 time=0
note_on channel=13 note=64 velocity=100 time=0
note_on channel=13 note=50 velocity=0 time=0
note_on channel=13 note=52 velocity=100 time=0
note_on channel=2 note=69 velocity=100 time=0.38961049999999997
note_on channel=3 note=66 velocity=100 time=0
note_on channel=4 note=62 velocity=100 time=0
note_on channel=5 note=66 velocity=0 time=0
note_on channel=5 note=66 velocity=100 time=0
note_on channel=6 note=62 velocity=0 time=0
note_on channel=6 note=62 velocity=100 time=0
note_on channel=13 note=64 velocity=0 time=0
note_on channel=13 note=66 velocity=100 time=0
note_on channel=13 note=52 velocity=0 time=0
note_on channel=13 note=54 velocity=100 time=0
note_on channel=2 note=69 velocity=0 time=0.38961049999999997
note_on channel=3 note=66 velocity=0 time=0
note_on channel=4 note=62 velocity=0 time=0
note_on channel=5 note=66 velocity=0 time=0
note_on channel=6 note=62 velocity=0 time=0
note_on channel=7 note=57 velocity=0 time=0
note_on channel=7 note=55 velocity=100 time=0
note_on channel=2 note=71 velocity=100 time=0.38961049999999997
note_on channel=3 note=67 velocity=100 time=0
note_on channel=4 note=62 velocity=100 time=0
note_on channel=5 note=67 velocity=100 time=0
note_on channel=6 note=59 velocity=100 time=0
note_on channel=7 note=55 velocity=0 time=0
note_on channel=8 note=50 velocity=0 time=0
note_on channel=8 note=43 velocity=100 time=0
note_on channel=13 note=66 velocity=0 time=0
note_on channel=13 note=67 velocity=100 time=0
note_on channel=13 note=54 velocity=0 time=0
note_on channel=13 note=55 velocity=100 time=0
note_on channel=15 note=42 velocity=0 time=0
note_on channel=15 note=43 velocity=100 time=0
note_on channel=2 note=71 velocity=0 time=0.38961049999999997
note_on channel=3 note=67 velocity=0 time=0
note_on channel=4 note=62 velocity=0 time=0
note_on channel=7 note=55 velocity=100 time=0
note_on channel=13 note=67 velocity=0 time=0
note_on channel=13 note=62 velocity=100 time=0
note_on channel=0 note=79 velocity=100 time=0.38961049999999997
<meta message lyrics text='So ' time=0>
note_on channel=2 note=71 velocity=100 time=0
note_on channel=3 note=67 velocity=100 time=0
note_on channel=4 note=62 velocity=100 time=0
note_on channel=5 note=67 velocity=0 time=0
note_on channel=5 note=67 velocity=100 time=0
note_on channel=6 note=59 velocity=0 time=0
note_on channel=6 note=59 velocity=100 time=0
note_on channel=13 note=62 velocity=0 time=0
note_on channel=13 note=67 velocity=100 time=0
note_on channel=0 note=79 velocity=0 time=0.38961049999999997
note_on channel=0 note=79 velocity=100 time=0
<meta message lyrics text='to ' time=0>
note_on channel=2 note=71 velocity=0 time=0
note_on channel=3 note=67 velocity=0 time=0
note_on channel=4 note=62 velocity=0 time=0
note_on channel=5 note=67 velocity=0 time=0
note_on channel=5 note=62 velocity=100 time=0
note_on channel=6 note=59 velocity=0 time=0
note_on channel=7 note=55 velocity=0 time=0
note_on channel=7 note=55 velocity=100 time=0
note_on channel=13 note=67 velocity=0 time=0
note_on channel=13 note=62 velocity=100 time=0
note_on channel=0 note=79 velocity=0 time=0.19480524999999999
note_on channel=0 note=79 velocity=100 time=0
<meta message lyrics text='de ' time=0>
note_on channel=0 note=79 velocity=0 time=0.19480524999999999
note_on channel=0 note=81 velocity=100 time=0
<meta message lyrics text='ka ' time=0>
note_on channel=2 note=73 velocity=100 time=0
note_on channel=3 note=69 velocity=100 time=0
note_on channel=4 note=64 velocity=100 time=0
note_on channel=5 note=62 velocity=0 time=0
note_on channel=5 note=64 velocity=100 time=0
note_on channel=6 note=61 velocity=100 time=0
note_on channel=7 note=55 velocity=0 time=0
note_on channel=8 note=43 velocity=0 time=0
note_on channel=8 note=45 velocity=100 time=0
note_on channel=13 note=62 velocity=0 time=0
note_on channel=13 note=69 velocity=100 time=0
note_on channel=13 note=55 velocity=0 time=0
note_on channel=13 note=57 velocity=100 time=0
note_on channel=15 note=43 velocity=0 time=0
note_on channel=15 note=45 velocity=100 time=0
note_on channel=0 note=81 velocity=0 time=0.38961049999999997
note_on channel=0 note=81 velocity=100 time=0
<meta message lyrics text='ke ' time=0>
note_on channel=2 note=73 velocity=0 time=0
note_on channel=3 note=69 velocity=0 time=0
note_on channel=4 note=64 velocity=0 time=0
note_on channel=7 note=57 velocity=100 time=0
note_on channel=13 note=69 velocity=0 time=0
note_on channel=13 note=64 velocity=100 time=0
note_on channel=0 note=81 velocity=0 time=0.38961049999999997
note_on channel=0 note=81 velocity=100 time=0
<meta message lyrics text='te ' time=0>
note_on channel=2 note=71 velocity=100 time=0
note_on channel=3 note=67 velocity=100 time=0
note_on channel=4 note=64 velocity=100 time=0
note_on channel=5 note=64 velocity=0 time=0
note_on channel=5 note=64 velocity=100 time=0
note_on channel=6 note=61 velocity=0 time=0
note_on channel=6 note=61 velocity=100 time=0
note_on channel=13 note=64 velocity=0 time=0
note_on channel=13 note=67 velocity=100 time=0
note_on channel=0 note=81 velocity=0 time=0.38961049999999997
note_on channel=0 note=79 velocity=100 time=0
<meta message lyrics text='mi ' time=0>
note_on channel=2 note=71 velocity=0 time=0
note_on channel=3 note=67 velocity=0 time=0
note_on channel=4 note=64 velocity=0 time=0
note_on channel=7 note=57 velocity=0 time=0
note_on channel=7 note=57 velocity=100 time=0
note_on channel=0 note=79 velocity=0 time=0.19480524999999999
note_on channel=0 note=79 velocity=100 time=0
<meta message lyrics text='you ' time=0>
note_on channel=2 note=69 velocity=100 time=0.19480524999999999
note_on channel=3 note=66 velocity=100 time=0
note_on channel=4 note=62 velocity=100 time=0
note_on channel=5 note=64 velocity=0 time=0
note_on channel=5 note=66 velocity=100 time=0
note_on channel=6 note=61 velocity=0 time=0
note_on channel=6 note=62 velocity=100 time=0
note_on channel=7 note=57 velocity=0 time=0
note_on channel=8 note=45 velocity=0 time=0
note_on channel=8 note=50 velocity=100 time=0
note_on channel=13 note=67 velocity=0 time=0
note_on channel=13 note=66 velocity=100 time=0
note_on channel=13 note=57 velocity=0 time=0
note_on channel=13 note=54 velocity=100 time=0
note_on channel=15 note=45 velocity=0 time=0
note_on channel=15 note=38 velocity=100 time=0
note_on channel=0 note=79 velocity=0 time=0.19480524999999999
note_on channel=0 note=78 velocity=100 time=0
<meta message lyrics text='ka ' time=0>
note_on channel=2 note=69 velocity=0 time=0.19480524999999999
note_on channel=3 note=66 velocity=0 time=0
note_on channel=4 note=62 velocity=0 time=0
note_on channel=7 note=57 velocity=100 time=0
note_on channel=13 note=66 velocity=0 time=0
note_on channel=13 note=62 velocity=100 time=0
note_on channel=0 note=78 velocity=0 time=0.38961049999999997
note_on channel=0 note=78 velocity=100 time=0
<meta message lyrics text='na ' time=0>
note_on channel=2 note=69 velocity=100 time=0
note_on channel=3 note=66 velocity=100 time=0
note_on channel=4 note=62 velocity=100 time=0
note_on channel=5 note=66 velocity=0 time=0
note_on channel=5 note=66 velocity=100 time=0
note_on channel=6 note=62 velocity=0 time=0
note_on channel=6 note=62 velocity=100 time=0
note_on channel=13 note=62 velocity=0 time=0
note_on channel=13 note=66 velocity=100 time=0
note_on channel=0 note=78 velocity=0 time=0.38961049999999997
note_on channel=0 note=85 velocity=100 time=0
<meta message lyrics text='n ' time=0>
note_on channel=2 note=69 velocity=0 time=0
note_on channel=3 note=66 velocity=0 time=0
note_on channel=4 note=62 velocity=0 time=0
note_on channel=7 note=57 velocity=0 time=0
note_on channel=7 note=55 velocity=100 time=0
note_on channel=13 note=66 velocity=0 time=0
note_on channel=13 note=62 velocity=100 time=0
note_on channel=13 note=54 velocity=0 time=0
note_on channel=13 note=57 velocity=100 time=0
note_on channel=0 note=85 velocity=0 time=0.19480524999999999
note_on channel=0 note=83 velocity=100 time=0
<meta message lyrics text='te ' time=0>
note_on channel=2 note=71 velocity=100 time=0.19480524999999999
note_on channel=3 note=66 velocity=100 time=0
note_on channel=4 note=62 velocity=100 time=0
note_on channel=5 note=66 velocity=0 time=0
note_on channel=5 note=66 velocity=100 time=0
note_on channel=6 note=62 velocity=0 time=0
note_on channel=6 note=62 velocity=100 time=0
note_on channel=7 note=55 velocity=0 time=0
note_on channel=8 note=50 velocity=0 time=0
note_on channel=8 note=47 velocity=100 time=0
note_on channel=13 note=62 velocity=0 time=0
note_on channel=13 note=66 velocity=100 time=0
note_on channel=13 note=57 velocity=0 time=0
note_on channel=13 note=59 velocity=100 time=0
note_on channel=15 note=38 velocity=0 time=0
note_on channel=15 note=47 velocity=100 time=0
note_on channel=2 note=71 velocity=0 time=0.38961049999999997
note_on channel=3 note=66 velocity=0 time=0
note_on channel=4 note=62 velocity=0 time=0
note_on channel=7 note=59 velocity=100 time=0
note_on channel=13 note=66 velocity=0 time=0
note_on channel=13 note=62 velocity=100 time=0
note_on channel=0 note=83 velocity=0 time=0.38961049999999997
note_on channel=2 note=69 velocity=100 time=0
note_on channel=3 note=66 velocity=100 time=0
note_on channel=4 note=62 velocity=100 time=0
note_on channel=5 note=66 velocity=0 time=0
note_on channel=5 note=66 velocity=100 time=0
note_on channel=6 note=62 velocity=0 time=0
note_on channel=6 note=62 velocity=100 time=0
note_on channel=13 note=62 velocity=0 time=0
note_on channel=13 note=66 velocity=100 time=0
note_on channel=0 note=76 velocity=100 time=0.38961049999999997
<meta message lyrics text='a... ' time=0>
note_on channel=2 note=69 velocity=0 time=0
note_on channel=3 note=66 velocity=0 time=0
note_on channel=4 note=62 velocity=0 time=0
note_on channel=7 note=59 velocity=0 time=0
note_on channel=7 note=59 velocity=100 time=0
note_on channel=13 note=66 velocity=0 time=0
note_on channel=13 note=62 velocity=100 time=0
note_on channel=0 note=76 velocity=0 time=0.19480524999999999
note_on channel=0 note=78 velocity=100 time=0
note_on channel=0 note=78 velocity=0 time=0.19480524999999999
note_on channel=0 note=79 velocity=100 time=0
note_on channel=2 note=71 velocity=100 time=0
note_on channel=3 note=67 velocity=100 time=0
note_on channel=4 note=62 velocity=100 time=0
note_on channel=5 note=66 velocity=0 time=0
note_on channel=5 note=67 velocity=100 time=0
note_on channel=6 note=62 velocity=0 time=0
note_on channel=6 note=59 velocity=100 time=0
note_on channel=7 note=59 velocity=0 time=0
note_on channel=8 note=47 velocity=0 time=0
note_on channel=8 note=43 velocity=100 time=0
note_on channel=13 note=62 velocity=0 time=0
note_on channel=13 note=67 velocity=100 time=0
note_on channel=13 note=59 velocity=0 time=0
note_on channel=13 note=50 velocity=100 time=0
note_on channel=15 note=47 velocity=0 time=0
note_on channel=15 note=43 velocity=100 time=0
note_on channel=2 note=71 velocity=0 time=0.38961049999999997
note_on channel=3 note=67 velocity=0 time=0
note_on channel=4 note=62 velocity=0 time=0
note_on channel=7 note=55 velocity=100 time=0
note_on channel=13 note=67 velocity=0 time=0
note_on channel=13 note=62 velocity=100 time=0
note_on channel=2 note=71 velocity=100 time=0.38961049999999997
note_on channel=3 note=67 velocity=100 time=0
note_on channel=4 note=62 velocity=100 time=0
note_on channel=5 note=67 velocity=0 time=0
note_on channel=5 note=67 velocity=100 time=0
note_on channel=6 note=59 velocity=0 time=0
note_on channel=6 note=59 velocity=100 time=0
note_on channel=13 note=62 velocity=0 time=0
note_on channel=13 note=67 velocity=100 time=0
note_on channel=0 note=79 velocity=0 time=0.38961049999999997
note_on channel=0 note=79 velocity=100 time=0
<meta message lyrics text='a... ' time=0>
note_on channel=2 note=71 velocity=0 time=0
note_on channel=3 note=67 velocity=0 time=0
note_on channel=4 note=62 velocity=0 time=0
note_on channel=5 note=67 velocity=0 time=0
note_on channel=5 note=62 velocity=100 time=0
note_on channel=7 note=55 velocity=0 time=0
note_on channel=7 note=55 velocity=100 time=0
note_on channel=13 note=67 velocity=0 time=0
note_on channel=13 note=62 velocity=100 time=0
note_on channel=0 note=79 velocity=0 time=0.19480524999999999
note_on channel=0 note=78 velocity=100 time=0
note_on channel=0 note=78 velocity=0 time=0.19480524999999999
note_on channel=0 note=76 velocity=100 time=0
note_on channel=2 note=73 velocity=100 time=0
note_on channel=3 note=69 velocity=100 time=0
note_on channel=4 note=64 velocity=100 time=0
note_on channel=5 note=62 velocity=0 time=0
note_on channel=5 note=64 velocity=100 time=0
note_on channel=6 note=59 velocity=0 time=0
note_on channel=6 note=61 velocity=100 time=0
note_on channel=7 note=55 velocity=0 time=0
note_on channel=8 note=43 velocity=0 time=0
note_on channel=8 note=45 velocity=100 time=0
note_on channel=13 note=62 velocity=0 time=0
note_on channel=13 note=64 velocity=100 time=0
note_on channel=13 note=50 velocity=0 time=0
note_on channel=13 note=52 velocity=100 time=0
note_on channel=15 note=43 velocity=0 time=0
note_on channel=15 note=45 velocity=100 time=0
note_on channel=2 note=73 velocity=0 time=0.38961049999999997
note_on channel=3 note=69 velocity=0 time=0
note_on channel=4 note=64 velocity=0 time=0
note_on channel=7 note=57 velocity=100 time=0
note_on channel=2 note=73 velocity=100 time=0.38961049999999997
note_on channel=3 note=69 velocity=100 time=0
note_on channel=4 note=64 velocity=100 time=0
note_on channel=5 note=64 velocity=0 time=0
note_on channel=5 note=64 velocity=100 time=0
note_on channel=6 note=61 velocity=0 time=0
note_on channel=6 note=61 velocity=100 time=0
note_on channel=0 note=76 velocity=0 time=0.38961049999999997
note_on channel=0 note=78 velocity=100 time=0
<meta message lyrics text='a ' time=0>
note_on channel=2 note=73 velocity=0 time=0
note_on channel=3 note=69 velocity=0 time=0
note_on channel=4 note=64 velocity=0 time=0
note_on channel=6 note=61 velocity=0 time=0
note_on channel=7 note=57 velocity=0 time=0
note_on channel=7 note=55 velocity=100 time=0
note_on channel=0 note=78 velocity=0 time=0.19480524999999999
note_on channel=0 note=78 velocity=100 time=0
<meta message lyrics text='no ' time=0>
note_on channel=0 note=78 velocity=0 time=0.19480524999999999
note_on channel=0 note=79 velocity=100 time=0
<meta message lyrics text='so ' time=0>
note_on channel=2 note=71 velocity=100 time=0
note_on channel=3 note=67 velocity=100 time=0
note_on channel=4 note=62 velocity=100 time=0
note_on channel=5 note=64 velocity=0 time=0
note_on channel=5 note=67 velocity=100 time=0
note_on channel=6 note=59 velocity=100 time=0
note_on channel=7 note=55 velocity=0 time=0
note_on channel=8 note=45 velocity=0 time=0
note_on channel=8 note=43 velocity=100 time=0
note_on channel=13 note=64 velocity=0 time=0
note_on channel=13 note=67 velocity=100 time=0
note_on channel=13 note=52 velocity=0 time=0
note_on channel=13 note=50 velocity=100 time=0
note_on channel=15 note=45 velocity=0 time=0
note_on channel=15 note=43 velocity=100 time=0
note_on channel=2 note=71 velocity=0 time=0.38961049999999997
note_on channel=3 note=67 velocity=0 time=0
note_on channel=4 note=62 velocity=0 time=0
note_on channel=7 note=55 velocity=100 time=0
note_on channel=13 note=67 velocity=0 time=0
note_on channel=13 note=62 velocity=100 time=0
note_on channel=0 note=79 velocity=0 time=0.38961049999999997
note_on channel=0 note=74 velocity=100 time=0
<meta message lyrics text='ra ' time=0>
note_on channel=2 note=71 velocity=100 time=0
note_on channel=3 note=67 velocity=100 time=0
note_on channel=4 note=62 velocity=100 time=0
note_on channel=5 note=67 velocity=0 time=0
note_on channel=5 note=67 velocity=100 time=0
note_on channel=6 note=59 velocity=0 time=0
note_on channel=6 note=59 velocity=100 time=0
note_on channel=13 note=62 velocity=0 time=0
note_on channel=13 note=67 velocity=100 time=0
note_on channel=13 note=50 velocity=0 time=0
note_on channel=13 note=55 velocity=100 time=0
note_on channel=2 note=71 velocity=0 time=0.38961049999999997
note_on channel=3 note=67 velocity=0 time=0
note_on channel=4 note=62 velocity=0 time=0
note_on channel=5 note=67 velocity=0 time=0
note_on channel=5 note=62 velocity=100 time=0
note_on channel=7 note=55 velocity=0 time=0
note_on channel=7 note=55 velocity=100 time=0
note_on channel=13 note=67 velocity=0 time=0
note_on channel=13 note=62 velocity=100 time=0
note_on channel=13 note=55 velocity=0 time=0
note_on channel=13 note=54 velocity=100 time=0
note_on channel=0 note=74 velocity=0 time=0.38961049999999997
note_on channel=0 note=76 velocity=100 time=0
<meta message lyrics text='ni, ' time=0>
note_on channel=2 note=73 velocity=100 time=0
note_on channel=3 note=69 velocity=100 time=0
note_on channel=4 note=64 velocity=100 time=0
note_on channel=5 note=62 velocity=0 time=0
note_on channel=5 note=64 velocity=100 time=0
note_on channel=6 note=59 velocity=0 time=0
note_on channel=6 note=61 velocity=100 time=0
note_on channel=7 note=55 velocity=0 time=0
note_on channel=8 note=43 velocity=0 time=0
note_on channel=8 note=45 velocity=100 time=0
note_on channel=13 note=62 velocity=0 time=0
note_on channel=13 note=64 velocity=100 time=0
note_on channel=13 note=54 velocity=0 time=0
note_on channel=13 note=52 velocity=100 time=0
note_on channel=15 note=43 velocity=0 time=0
note_on channel=15 note=45 velocity=100 time=0
note_on channel=2 note=73 velocity=0 time=0.38961049999999997
note_on channel=3 note=69 velocity=0 time=0
note_on channel=4 note=64 velocity=0 time=0
note_on channel=7 note=57 velocity=100 time=0
note_on channel=2 note=73 velocity=100 time=0.38961049999999997
note_on channel=3 note=69 velocity=100 time=0
note_on channel=4 note=64 velocity=100 time=0
note_on channel=5 note=64 velocity=0 time=0
note_on channel=5 note=64 velocity=100 time=0
note_on channel=6 note=61 velocity=0 time=0
note_on channel=6 note=61 velocity=100 time=0
note_on channel=0 note=76 velocity=0 time=0.38961049999999997
note_on channel=0 note=78 velocity=100 time=0
<meta message lyrics text='ko ' time=0>
note_on channel=2 note=73 velocity=0 time=0
note_on channel=3 note=69 velocity=0 time=0
note_on channel=4 note=64 velocity=0 time=0
note_on channel=6 note=61 velocity=0 time=0
note_on channel=7 note=57 velocity=0 time=0
note_on channel=7 note=55 velocity=100 time=0
note_on channel=0 note=78 velocity=0 time=0.19480524999999999
note_on channel=0 note=78 velocity=100 time=0
<meta message lyrics text='i ' time=0>
note_on channel=0 note=78 velocity=0 time=0.19480524999999999
note_on channel=0 note=79 velocity=100 time=0
<meta message lyrics text='to ' time=0>
note_on channel=2 note=71 velocity=100 time=0
note_on channel=3 note=67 velocity=100 time=0
note_on channel=4 note=62 velocity=100 time=0
note_on channel=5 note=64 velocity=0 time=0
note_on channel=5 note=67 velocity=100 time=0
note_on channel=6 note=59 velocity=100 time=0
note_on channel=7 note=55 velocity=0 time=0
note_on channel=8 note=45 velocity=0 time=0
note_on channel=8 note=43 velocity=100 time=0
note_on channel=13 note=64 velocity=0 time=0
note_on channel=13 note=67 velocity=100 time=0
note_on channel=13 note=52 velocity=0 time=0
note_on channel=13 note=50 velocity=100 time=0
note_on channel=15 note=45 velocity=0 time=0
note_on channel=15 note=43 velocity=100 time=0
note_on channel=0 note=79 velocity=0 time=0.19480524999999999
note_on channel=0 note=79 velocity=100 time=0
<meta message lyrics text='ka ' time=0>
note_on channel=2 note=71 velocity=0 time=0.19480524999999999
note_on channel=3 note=67 velocity=0 time=0
note_on channel=4 note=62 velocity=0 time=0
note_on channel=7 note=55 velocity=100 time=0
note_on channel=13 note=67 velocity=0 time=0
note_on channel=13 note=62 velocity=100 time=0
note_on channel=2 note=71 velocity=100 time=0.38961049999999997
note_on channel=3 note=67 velocity=100 time=0
note_on channel=4 note=62 velocity=100 time=0
note_on channel=5 note=67 velocity=0 time=0
note_on channel=5 note=67 velocity=100 time=0
note_on channel=6 note=59 velocity=0 time=0
note_on channel=6 note=59 velocity=100 time=0
note_on channel=13 note=62 velocity=0 time=0
note_on channel=13 note=67 velocity=100 time=0
note_on channel=2 note=71 velocity=0 time=0.38961049999999997
note_on channel=3 note=67 velocity=0 time=0
note_on channel=4 note=62 velocity=0 time=0
note_on channel=5 note=67 velocity=0 time=0
note_on channel=5 note=62 velocity=100 time=0
note_on channel=7 note=55 velocity=0 time=0
note_on channel=7 note=55 velocity=100 time=0
note_on channel=13 note=67 velocity=0 time=0
note_on channel=13 note=62 velocity=100 time=0
note_on channel=0 note=79 velocity=0 time=0.38961049999999997
note_on channel=0 note=76 velocity=100 time=0
<meta message lyrics text='shi ' time=0>
note_on channel=2 note=73 velocity=100 time=0
note_on channel=3 note=69 velocity=100 time=0
note_on channel=4 note=64 velocity=100 time=0
note_on channel=5 note=62 velocity=0 time=0
note_on channel=5 note=64 velocity=100 time=0
note_on channel=6 note=59 velocity=0 time=0
note_on channel=6 note=61 velocity=100 time=0
note_on channel=7 note=55 velocity=0 time=0
note_on channel=8 note=43 velocity=0 time=0
note_on channel=8 note=45 velocity=100 time=0
note_on channel=13 note=62 velocity=0 time=0
note_on channel=13 note=64 velocity=100 time=0
note_on channel=13 note=50 velocity=0 time=0
note_on channel=13 note=52 velocity=100 time=0
note_on channel=15 note=43 velocity=0 time=0
note_on channel=15 note=45 velocity=100 time=0
note_on channel=2 note=73 velocity=0 time=0.38961049999999997
note_on channel=3 note=69 velocity=0 time=0
note_on channel=4 note=64 velocity=0 time=0
note_on channel=7 note=57 velocity=100 time=0
note_on channel=0 note=76 velocity=0 time=0.38961049999999997
note_on channel=0 note=74 velocity=100 time=0
<meta message lyrics text='na ' time=0>
note_on channel=2 note=73 velocity=100 time=0
note_on channel=3 note=69 velocity=100 time=0
note_on channel=4 note=64 velocity=100 time=0
note_on channel=5 note=64 velocity=0 time=0
note_on channel=5 note=64 velocity=100 time=0
note_on channel=6 note=61 velocity=0 time=0
note_on channel=6 note=61 velocity=100 time=0
note_on channel=0 note=74 velocity=0 time=0.38961049999999997
note_on channel=0 note=73 velocity=100 time=0
<meta message lyrics text='ga ' time=0>
note_on channel=2 note=73 velocity=0 time=0
note_on channel=3 note=69 velocity=0 time=0
note_on channel=4 note=64 velocity=0 time=0
note_on channel=6 note=61 velocity=0 time=0
note_on channel=7 note=57 velocity=0 time=0
note_on channel=7 note=57 velocity=100 time=0
note_on channel=0 note=73 velocity=0 time=0.19480524999999999
note_on channel=0 note=74 velocity=100 time=0
<meta message lyrics text='ra... ' time=0>
note_on channel=2 note=69 velocity=100 time=0.19480524999999999
note_on channel=3 note=66 velocity=100 time=0
note_on channel=4 note=62 velocity=100 time=0
note_on channel=5 note=64 velocity=0 time=0
note_on channel=7 note=57 velocity=0 time=0
note_on channel=8 note=45 velocity=0 time=0
note_on channel=8 note=50 velocity=100 time=0
note_on channel=13 note=64 velocity=0 time=0
note_on channel=13 note=66 velocity=100 time=0
note_on channel=13 note=52 velocity=0 time=0
note_on channel=13 note=50 velocity=100 time=0
note_on channel=15 note=45 velocity=0 time=0
note_on channel=15 note=38 velocity=100 time=0
note_on channel=2 note=69 velocity=0 time=0.38961049999999997
note_on channel=3 note=66 velocity=0 time=0
note_on channel=4 note=62 velocity=0 time=0
note_on channel=7 note=57 velocity=100 time=0
note_on channel=2 note=69 velocity=100 time=0.38961049999999997
note_on channel=3 note=66 velocity=100 time=0
note_on channel=4 note=62 velocity=100 time=0
note_on channel=6 note=62 velocity=100 time=0
note_on channel=2 note=69 velocity=0 time=0.38961049999999997
note_on channel=3 note=66 velocity=0 time=0
note_on channel=4 note=62 velocity=0 time=0
note_on channel=7 note=57 velocity=0 time=0
note_on channel=7 note=57 velocity=100 time=0
note_on channel=2 note=69 velocity=100 time=0.38961049999999997
note_on channel=3 note=66 velocity=100 time=0
note_on channel=4 note=62 velocity=100 time=0
note_on channel=5 note=66 velocity=100 time=0
note_on channel=6 note=62 velocity=0 time=0
note_on channel=6 note=62 velocity=100 time=0
note_on channel=7 note=57 velocity=0 time=0
note_on channel=8 note=50 velocity=0 time=0
note_on channel=8 note=50 velocity=100 time=0
note_on channel=0 note=74 velocity=0 time=0.7792209999999999
note_on channel=0 note=78 velocity=100 time=0.7792209999999999
<meta message lyrics text='I ' time=0>
note_on channel=2 note=69 velocity=0 time=0
note_on channel=2 note=69 velocity=100 time=0
note_on channel=3 note=66 velocity=0 time=0
note_on channel=3 note=66 velocity=100 time=0
note_on channel=4 note=62 velocity=0 time=0
note_on channel=4 note=62 velocity=100 time=0
note_on channel=5 note=66 velocity=0 time=0
note_on channel=6 note=62 velocity=0 time=0
note_on channel=8 note=50 velocity=0 time=0
note_on channel=8 note=50 velocity=100 time=0
note_on channel=13 note=66 velocity=0 time=0
note_on channel=13 note=50 velocity=0 time=0
note_on channel=15 note=38 velocity=0 time=0
note_on channel=0 note=78 velocity=0 time=0.19480524999999999
note_on channel=0 note=78 velocity=100 time=0
<meta message lyrics text='ron ' time=0>
note_on channel=2 note=69 velocity=0 time=0.19480524999999999
note_on channel=3 note=66 velocity=0 time=0
note_on channel=4 note=62 velocity=0 time=0
note_on channel=7 note=57 velocity=100 time=0
note_on channel=0 note=78 velocity=0 time=0.19480524999999999
note_on channel=0 note=78 velocity=100 time=0
<meta message lyrics text='na ' time=0>
note_on channel=0 note=78 velocity=0 time=0.19480524999999999
note_on channel=0 note=78 velocity=100 time=0
<meta message lyrics text='i ' time=0>
note_on channel=2 note=69 velocity=100 time=0
note_on channel=3 note=66 velocity=100 time=0
note_on channel=4 note=62 velocity=100 time=0
note_on channel=5 note=66 velocity=100 time=0
note_on channel=6 note=62 velocity=100 time=0
note_on channel=9 note=77 velocity=100 time=0
note_on channel=0 note=78 velocity=0 time=0.19480524999999999
note_on channel=0 note=78 velocity=100 time=0
<meta message lyrics text='no ' time=0>
note_on channel=0 note=78 velocity=0 time=0.19480524999999999
note_on channel=0 note=79 velocity=100 time=0
<meta message lyrics text='chi ' time=0>
note_on channel=2 note=69 velocity=0 time=0
note_on channel=3 note=66 velocity=0 time=0
note_on channel=4 note=62 velocity=0 time=0
note_on channel=7 note=57 velocity=0 time=0
note_on channel=7 note=57 velocity=100 time=0
note_on channel=9 note=77 velocity=0 time=0
note_on channel=0 note=79 velocity=0 time=0.19480524999999999
note_on channel=0 note=81 velocity=100 time=0
<meta message lyrics text='ga ' time=0>
note_on channel=2 note=69 velocity=100 time=0.19480524999999999
note_on channel=3 note=66 velocity=100 time=0
note_on channel=4 note=62 velocity=100 time=0
note_on channel=5 note=66 velocity=0 time=0
note_on channel=6 note=62 velocity=0 time=0
note_on channel=7 note=57 velocity=0 time=0
note_on channel=8 note=50 velocity=0 time=0
note_on channel=8 note=45 velocity=100 time=0
note_on channel=9 note=35 velocity=100 time=0
note_on channel=10 note=45 velocity=100 time=0
note_on channel=0 note=81 velocity=0 time=0.19480524999999999
note_on channel=0 note=81 velocity=100 time=0.19480524999999999
<meta message lyrics text='i ' time=0>
note_on channel=2 note=69 velocity=0 time=0
note_on channel=3 note=66 velocity=0 time=0
note_on channel=4 note=62 velocity=0 time=0
note_on channel=7 note=57 velocity=100 time=0
note_on channel=9 note=35 velocity=0 time=0
note_on channel=0 note=81 velocity=0 time=0.19480524999999999
note_on channel=0 note=81 velocity=100 time=0
<meta message lyrics text='ki ' time=0>
note_on channel=0 note=81 velocity=0 time=0.19480524999999999
note_on channel=0 note=81 velocity=100 time=0
<meta message lyrics text='te ' time=0>
note_on channel=2 note=69 velocity=100 time=0
note_on channel=3 note=66 velocity=100 time=0
note_on channel=4 note=62 velocity=100 time=0
note_on channel=5 note=66 velocity=100 time=0
note_on channel=6 note=62 velocity=100 time=0
note_on channel=0 note=81 velocity=0 time=0.38961049999999997
note_on channel=0 note=81 velocity=100 time=0
<meta message lyrics text='i ' time=0>
note_on channel=2 note=69 velocity=0 time=0
note_on channel=3 note=66 velocity=0 time=0
note_on channel=4 note=62 velocity=0 time=0
note_on channel=5 note=66 velocity=0 time=0
note_on channel=6 note=62 velocity=0 time=0
note_on channel=7 note=57 velocity=0 time=0
note_on channel=7 note=57 velocity=100 time=0
note_on channel=0 note=81 velocity=0 time=0.19480524999999999
note_on channel=0 note=83 velocity=100 time=0
<meta message lyrics text='ru ' time=0>
note_on channel=2 note=71 velocity=100 time=0.19480524999999999
note_on channel=3 note=67 velocity=100 time=0
note_on channel=4 note=62 velocity=100 time=0
note_on channel=7 note=57 velocity=0 time=0
note_on channel=8 note=45 velocity=0 time=0
note_on channel=8 note=43 velocity=100 time=0
note_on channel=10 note=45 velocity=0 time=0
note_on channel=10 note=43 velocity=100 time=0
note_on channel=0 note=83 velocity=0 time=0.19480524999999999
note_on channel=0 note=83 velocity=100 time=0.19480524999999999
<meta message lyrics text='ko ' time=0>
note_on channel=2 note=71 velocity=0 time=0
note_on channel=3 note=67 velocity=0 time=0
note_on channel=4 note=62 velocity=0 time=0
note_on channel=7 note=55 velocity=100 time=0
note_on channel=0 note=83 velocity=0 time=0.19480524999999999
note_on channel=0 note=79 velocity=100 time=0
<meta message lyrics text='no ' time=0>
note_on channel=2 note=71 velocity=100 time=0.19480524999999999
note_on channel=3 note=67 velocity=100 time=0
note_on channel=4 note=62 velocity=100 time=0
note_on channel=5 note=67 velocity=100 time=0
note_on channel=6 note=59 velocity=100 time=0
note_on channel=9 note=77 velocity=100 time=0
note_on channel=0 note=79 velocity=0 time=0.19480524999999999
note_on channel=0 note=79 velocity=100 time=0
<meta message lyrics text='ho ' time=0>
note_on channel=0 note=79 velocity=0 time=0.19480524999999999
note_on channel=0 note=78 velocity=100 time=0
<meta message lyrics text='shi ' time=0>
note_on channel=2 note=71 velocity=0 time=0
note_on channel=3 note=67 velocity=0 time=0
note_on channel=4 note=62 velocity=0 time=0
note_on channel=7 note=55 velocity=0 time=0
note_on channel=7 note=55 velocity=100 time=0
note_on channel=9 note=77 velocity=0 time=0
note_on channel=0 note=78 velocity=0 time=0.19480524999999999
note_on channel=0 note=79 velocity=100 time=0
<meta message lyrics text='de, ' time=0>
note_on channel=2 note=71 velocity=100 time=0.19480524999999999
note_on channel=3 note=67 velocity=100 time=0
note_on channel=4 note=62 velocity=100 time=0
note_on channel=5 note=67 velocity=0 time=0
note_on channel=6 note=59 velocity=0 time=0
note_on channel=7 note=55 velocity=0 time=0
note_on channel=8 note=43 velocity=0 time=0
note_on channel=8 note=50 velocity=100 time=0
note_on channel=9 note=35 velocity=100 time=0
note_on channel=2 note=71 velocity=0 time=0.38961049999999997
note_on channel=3 note=67 velocity=0 time=0
note_on channel=4 note=62 velocity=0 time=0
note_on channel=7 note=55 velocity=100 time=0
note_on channel=9 note=35 velocity=0 time=0
note_on channel=0 note=79 velocity=0 time=0.19480524999999999
note_on channel=0 note=74 velocity=100 time=0.19480524999999999
<meta message lyrics text='kyou ' time=0>
note_on channel=2 note=71 velocity=100 time=0
note_on channel=3 note=67 velocity=100 time=0
note_on channel=4 note=62 velocity=100 time=0
note_on channel=5 note=67 velocity=100 time=0
note_on channel=6 note=59 velocity=100 time=0
note_on channel=0 note=74 velocity=0 time=0.38961049999999997
note_on channel=0 note=76 velocity=100 time=0
<meta message lyrics text='mo ' time=0>
note_on channel=2 note=71 velocity=0 time=0
note_on channel=3 note=67 velocity=0 time=0
note_on channel=4 note=62 velocity=0 time=0
note_on channel=5 note=67 velocity=0 time=0
note_on channel=6 note=59 velocity=0 time=0
note_on channel=7 note=55 velocity=0 time=0
note_on channel=7 note=55 velocity=100 time=0
note_on channel=0 note=76 velocity=0 time=0.38961049999999997
note_on channel=0 note=78 velocity=100 time=0
<meta message lyrics text='ha ' time=0>
note_on channel=2 note=71 velocity=100 time=0
note_on channel=3 note=66 velocity=100 time=0
note_on channel=4 note=62 velocity=100 time=0
note_on channel=7 note=55 velocity=0 time=0
note_on channel=8 note=50 velocity=0 time=0
note_on channel=8 note=47 velocity=100 time=0
note_on channel=10 note=43 velocity=0 time=0
note_on channel=10 note=47 velocity=100 time=0
note_on channel=0 note=78 velocity=0 time=0.19480524999999999
note_on channel=0 note=78 velocity=100 time=0
<meta message lyrics text='ko ' time=0>
note_on channel=0 note=78 velocity=0 time=0.19480524999999999
note_on channel=0 note=78 velocity=100 time=0
<meta message lyrics text='bu ' time=0>
note_on channel=2 note=71 velocity=0 time=0
note_on channel=3 note=66 velocity=0 time=0
note_on channel=4 note=62 velocity=0 time=0
note_on channel=7 note=59 velocity=100 time=0
note_on channel=0 note=78 velocity=0 time=0.38961049999999997
note_on channel=0 note=78 velocity=100 time=0
<meta message lyrics text='ta ' time=0>
note_on channel=2 note=71 velocity=100 time=0
note_on channel=3 note=66 velocity=100 time=0
note_on channel=4 note=62 velocity=100 time=0
note_on channel=5 note=66 velocity=100 time=0
note_on channel=6 note=62 velocity=100 time=0
note_on channel=9 note=77 velocity=100 time=0
note_on channel=0 note=78 velocity=0 time=0.19480524999999999
note_on channel=0 note=78 velocity=100 time=0
<meta message lyrics text='ta ' time=0>
note_on channel=0 note=78 velocity=0 time=0.19480524999999999
note_on channel=0 note=78 velocity=100 time=0
<meta message lyrics text='kau ' time=0>
note_on channel=2 note=71 velocity=0 time=0
note_on channel=3 note=66 velocity=0 time=0
note_on channel=4 note=62 velocity=0 time=0
note_on channel=7 note=59 velocity=0 time=0
note_on channel=7 note=59 velocity=100 time=0
note_on channel=9 note=77 velocity=0 time=0
note_on channel=0 note=78 velocity=0 time=0.38961049999999997
note_on channel=0 note=78 velocity=100 time=0
<meta message lyrics text='fu ' time=0>
note_on channel=2 note=70 velocity=100 time=0
note_on channel=3 note=66 velocity=100 time=0
note_on channel=4 note=61 velocity=100 time=0
note_on channel=5 note=66 velocity=0 time=0
note_on channel=6 note=62 velocity=0 time=0
note_on channel=7 note=59 velocity=0 time=0
note_on channel=8 note=47 velocity=0 time=0
note_on channel=8 note=42 velocity=100 time=0
note_on channel=9 note=35 velocity=100 time=0
note_on channel=10 note=47 velocity=0 time=0
note_on channel=10 note=42 velocity=100 time=0
note_on channel=0 note=78 velocity=0 time=0.19480524999999999
note_on channel=0 note=78 velocity=100 time=0
<meta message lyrics text='e ' time=0>
note_on channel=0 note=78 velocity=0 time=0.19480524999999999
note_on channel=0 note=78 velocity=100 time=0
<meta message lyrics text='ru ' time=0>
note_on channel=2 note=70 velocity=0 time=0
note_on channel=3 note=66 velocity=0 time=0
note_on channel=4 note=61 velocity=0 time=0
note_on channel=7 note=58 velocity=100 time=0
note_on channel=9 note=35 velocity=0 time=0
note_on channel=0 note=78 velocity=0 time=0.38961049999999997
note_on channel=0 note=76 velocity=100 time=0
<meta message lyrics text='soshi ' time=0>
note_on channel=2 note=70 velocity=100 time=0
note_on channel=3 note=66 velocity=100 time=0
note_on channel=4 note=61 velocity=100 time=0
note_on channel=5 note=66 velocity=100 time=0
note_on channel=6 note=61 velocity=100 time=0
note_on channel=9 note=77 velocity=100 time=0
note_on channel=0 note=76 velocity=0 time=0.38961049999999997
note_on channel=0 note=76 velocity=100 time=0
<meta message lyrics text='te ' time=0>
note_on channel=2 note=70 velocity=0 time=0
note_on channel=3 note=66 velocity=0 time=0
note_on channel=4 note=61 velocity=0 time=0
note_on channel=7 note=58 velocity=0 time=0
note_on channel=7 note=58 velocity=100 time=0
note_on channel=9 note=77 velocity=0 time=0
note_on channel=0 note=76 velocity=0 time=0.38961049999999997
note_on channel=0 note=76 velocity=100 time=0
<meta message lyrics text='ta ' time=0>
note_on channel=2 note=71 velocity=100 time=0
note_on channel=3 note=67 velocity=100 time=0
note_on channel=4 note=62 velocity=100 time=0
note_on channel=5 note=66 velocity=0 time=0
note_on channel=6 note=61 velocity=0 time=0
note_on channel=7 note=58 velocity=0 time=0
note_on channel=8 note=42 velocity=0 time=0
note_on channel=8 note=43 velocity=100 time=0
note_on channel=9 note=35 velocity=100 time=0
note_on channel=9 note=77 velocity=100 time=0
note_on channel=10 note=42 velocity=0 time=0
note_on channel=10 note=43 velocity=100 time=0
note_on channel=0 note=76 velocity=0 time=0.19480524999999999
note_on channel=0 note=78 velocity=100 time=0
<meta message lyrics text='be ' time=0>
note_on channel=2 note=71 velocity=0 time=0.19480524999999999
note_on channel=3 note=67 velocity=0 time=0
note_on channel=4 note=62 velocity=0 time=0
note_on channel=5 note=67 velocity=100 time=0
note_on channel=6 note=59 velocity=100 time=0
note_on channel=7 note=55 velocity=100 time=0
note_on channel=9 note=77 velocity=0 time=0
note_on channel=9 note=35 velocity=0 time=0
note_on channel=0 note=78 velocity=0 time=0.38961049999999997
note_on channel=0 note=76 velocity=100 time=0
<meta message lyrics text='ra ' time=0>
note_on channel=2 note=69 velocity=100 time=0
note_on channel=3 note=64 velocity=100 time=0
note_on channel=4 note=64 velocity=100 time=0
note_on channel=5 note=67 velocity=0 time=0
note_on channel=6 note=59 velocity=0 time=0
note_on channel=7 note=55 velocity=0 time=0
note_on channel=8 note=43 velocity=0 time=0
note_on channel=8 note=45 velocity=100 time=0
note_on channel=9 note=35 velocity=100 time=0
note_on channel=9 note=77 velocity=100 time=0
note_on channel=10 note=43 velocity=0 time=0
note_on channel=10 note=45 velocity=100 time=0
note_on channel=0 note=76 velocity=0 time=0.19480524999999999
note_on channel=0 note=74 velocity=100 time=0
<meta message lyrics text='re ' time=0>
note_on channel=0 note=74 velocity=0 time=0.19480524999999999
note_on channel=0 note=74 velocity=100 time=0
note_on channel=2 note=69 velocity=0 time=0
note_on channel=3 note=64 velocity=0 time=0
note_on channel=4 note=64 velocity=0 time=0
note_on channel=5 note=64 velocity=100 time=0
note_on channel=6 note=61 velocity=100 time=0
note_on channel=7 note=57 velocity=100 time=0
note_on channel=9 note=77 velocity=0 time=0
note_on channel=9 note=35 velocity=0 time=0
<meta message lyrics text='ru. ' time=0.19480524999999999>
note_on channel=2 note=69 velocity=100 time=0.19480524999999999
note_on channel=3 note=66 velocity=100 time=0
note_on channel=4 note=62 velocity=100 time=0
note_on channel=5 note=64 velocity=0 time=0
note_on channel=6 note=61 velocity=0 time=0
note_on channel=7 note=57 velocity=0 time=0
note_on channel=8 note=45 velocity=0 time=0
note_on channel=8 note=50 velocity=100 time=0
note_on channel=2 note=69 velocity=0 time=0.38961049999999997
note_on channel=3 note=66 velocity=0 time=0
note_on channel=4 note=62 velocity=0 time=0
note_on channel=7 note=57 velocity=100 time=0
note_on channel=2 note=69 velocity=100 time=0.38961049999999997
note_on channel=3 note=66 velocity=100 time=0
note_on channel=4 note=62 velocity=100 time=0
note_on channel=5 note=66 velocity=100 time=0
note_on channel=6 note=62 velocity=100 time=0
note_on channel=9 note=35 velocity=100 time=0
note_on channel=0 note=74 velocity=0 time=0.38961049999999997
note_on channel=2 note=69 velocity=0 time=0
note_on channel=3 note=66 velocity=0 time=0
note_on channel=4 note=62 velocity=0 time=0
note_on channel=7 note=57 velocity=0 time=0
note_on channel=7 note=57 velocity=100 time=0
note_on channel=9 note=35 velocity=0 time=0
note_on channel=0 note=78 velocity=100 time=0.38961049999999997
<meta message lyrics text='Hik ' time=0>
note_on channel=2 note=69 velocity=100 time=0
note_on channel=3 note=66 velocity=100 time=0
note_on channel=4 note=62 velocity=100 time=0
note_on channel=5 note=66 velocity=0 time=0
note_on channel=6 note=62 velocity=0 time=0
note_on channel=7 note=57 velocity=0 time=0
note_on channel=8 note=50 velocity=0 time=0
note_on channel=8 note=50 velocity=100 time=0
note_on channel=10 note=45 velocity=0 time=0
note_on channel=11 note=78 velocity=100 time=0
note_on channel=0 note=78 velocity=0 time=0.19480524999999999
note_on channel=0 note=78 velocity=100 time=0.19480524999999999
<meta message lyrics text='ko ' time=0>
note_on channel=2 note=69 velocity=0 time=0
note_on channel=3 note=66 velocity=0 time=0
note_on channel=4 note=62 velocity=0 time=0
note_on channel=7 note=57 velocity=100 time=0
note_on channel=0 note=78 velocity=0 time=0.19480524999999999
note_on channel=0 note=78 velocity=100 time=0
<meta message lyrics text='nu ' time=0>
note_on channel=0 note=78 velocity=0 time=0.19480524999999999
note_on channel=0 note=78 velocity=100 time=0
<meta message lyrics text='ka ' time=0>
note_on channel=2 note=69 velocity=100 time=0
note_on channel=3 note=66 velocity=100 time=0
note_on channel=4 note=62 velocity=100 time=0
note_on channel=5 note=66 velocity=100 time=0
note_on channel=6 note=62 velocity=100 time=0
note_on channel=9 note=77 velocity=100 time=0
note_on channel=0 note=78 velocity=0 time=0.38961049999999997
note_on channel=0 note=79 velocity=100 time=0
<meta message lyrics text='re ' time=0>
note_on channel=2 note=69 velocity=0 time=0
note_on channel=3 note=66 velocity=0 time=0
note_on channel=4 note=62 velocity=0 time=0
note_on channel=7 note=57 velocity=0 time=0
note_on channel=7 note=57 velocity=100 time=0
note_on channel=9 note=77 velocity=0 time=0
note_on channel=11 note=78 velocity=0 time=0
note_on channel=11 note=76 velocity=100 time=0
note_on channel=0 note=79 velocity=0 time=0.19480524999999999
note_on channel=0 note=81 velocity=100 time=0
<meta message lyrics text='te ' time=0>
note_on channel=11 note=76 velocity=0 time=0
note_on channel=11 note=78 velocity=100 time=0
note_on channel=2 note=69 velocity=100 time=0.19480524999999999
note_on channel=3 note=66 velocity=100 time=0
note_on channel=4 note=62 velocity=100 time=0
note_on channel=5 note=66 velocity=0 time=0
note_on channel=6 note=62 velocity=0 time=0
note_on channel=7 note=57 velocity=0 time=0
note_on channel=8 note=50 velocity=0 time=0
note_on channel=8 note=45 velocity=100 time=0
note_on channel=9 note=35 velocity=100 time=0
note_on channel=10 note=45 velocity=100 time=0
note_on channel=0 note=81 velocity=0 time=0.19480524999999999
note_on channel=0 note=81 velocity=100 time=0.19480524999999999
<meta message lyrics text='at ' time=0>
note_on channel=2 note=69 velocity=0 time=0
note_on channel=3 note=66 velocity=0 time=0
note_on channel=4 note=62 velocity=0 time=0
note_on channel=7 note=57 velocity=100 time=0
note_on channel=9 note=35 velocity=0 time=0
note_on channel=0 note=81 velocity=0 time=0.19480524999999999
note_on channel=0 note=81 velocity=100 time=0
<meta message lyrics text='tsu ' time=0>
note_on channel=0 note=81 velocity=0 time=0.19480524999999999
note_on channel=0 note=81 velocity=100 time=0
<meta message lyrics text='ma ' time=0>
note_on channel=2 note=69 velocity=100 time=0
note_on channel=3 note=66 velocity=100 time=0
note_on channel=4 note=62 velocity=100 time=0
note_on channel=5 note=66 velocity=100 time=0
note_on channel=6 note=62 velocity=100 time=0
note_on channel=11 note=78 velocity=0 time=0
note_on channel=11 note=81 velocity=100 time=0
note_on channel=2 note=69 velocity=0 time=0.38961049999999997
note_on channel=3 note=66 velocity=0 time=0
note_on channel=4 note=62 velocity=0 time=0
note_on channel=5 note=66 velocity=0 time=0
note_on channel=6 note=62 velocity=0 time=0
note_on channel=7 note=57 velocity=0 time=0
note_on channel=7 note=57 velocity=100 time=0
note_on channel=0 note=81 velocity=0 time=0.19480524999999999
note_on channel=0 note=83 velocity=100 time=0
<meta message lyrics text='tte ' time=0>
note_on channel=2 note=71 velocity=100 time=0.19480524999999999
note_on channel=3 note=67 velocity=100 time=0
note_on channel=4 note=62 velocity=100 time=0
note_on channel=7 note=57 velocity=0 time=0
note_on channel=8 note=45 velocity=0 time=0
note_on channel=8 note=43 velocity=100 time=0
note_on channel=10 note=45 velocity=0 time=0
note_on channel=10 note=43 velocity=100 time=0
note_on channel=11 note=81 velocity=0 time=0
note_on channel=11 note=79 velocity=100 time=0
note_on channel=0 note=83 velocity=0 time=0.19480524999999999
note_on channel=0 note=83 velocity=100 time=0.19480524999999999
<meta message lyrics text='to ' time=0>
note_on channel=2 note=71 velocity=0 time=0
note_on channel=3 note=67 velocity=0 time=0
note_on channel=4 note=62 velocity=0 time=0
note_on channel=7 note=55 velocity=100 time=0
note_on channel=0 note=83 velocity=0 time=0.19480524999999999
note_on channel=0 note=79 velocity=100 time=0
<meta message lyrics text='ba ' time=0>
note_on channel=11 note=81 velocity=100 time=0.058441574999999996
note_on channel=11 note=79 velocity=0 time=0.03896105
note_on channel=11 note=82 velocity=100 time=0.0064935083333333326
note_on channel=11 note=81 velocity=0 time=0.05194806666666666
note_on channel=2 note=71 velocity=100 time=0.03896105
note_on channel=3 note=67 velocity=100 time=0
note_on channel=4 note=62 velocity=100 time=0
note_on channel=5 note=67 velocity=100 time=0
note_on channel=6 note=59 velocity=100 time=0
note_on channel=9 note=77 velocity=100 time=0
note_on channel=11 note=83 velocity=100 time=0
note_on channel=11 note=82 velocity=0 time=0.0064935083333333326
note_on channel=0 note=79 velocity=0 time=0.18831174166666664
note_on channel=0 note=79 velocity=100 time=0
<meta message lyrics text='sa ' time=0>
note_on channel=0 note=79 velocity=0 time=0.19480524999999999
note_on channel=0 note=78 velocity=100 time=0
<meta message lyrics text='re ' time=0>
note_on channel=2 note=71 velocity=0 time=0
note_on channel=3 note=67 velocity=0 time=0
note_on channel=4 note=62 velocity=0 time=0
note_on channel=7 note=55 velocity=0 time=0
note_on channel=7 note=55 velocity=100 time=0
note_on channel=9 note=77 velocity=0 time=0
note_on channel=0 note=78 velocity=0 time=0.19480524999999999
note_on channel=0 note=79 velocity=100 time=0
<meta message lyrics text='te, ' time=0>
note_on channel=2 note=71 velocity=100 time=0.19480524999999999
note_on channel=3 note=67 velocity=100 time=0
note_on channel=4 note=62 velocity=100 time=0
note_on channel=5 note=67 velocity=0 time=0
note_on channel=6 note=59 velocity=0 time=0
note_on channel=7 note=55 velocity=0 time=0
note_on channel=8 note=43 velocity=0 time=0
note_on channel=8 note=50 velocity=100 time=0
note_on channel=9 note=35 velocity=100 time=0
note_on channel=11 note=83 velocity=0 time=0
note_on channel=11 note=71 velocity=100 time=0
note_on channel=2 note=71 velocity=0 time=0.38961049999999997
note_on channel=3 note=67 velocity=0 time=0
note_on channel=4 note=62 velocity=0 time=0
note_on channel=7 note=55 velocity=100 time=0
note_on channel=9 note=35 velocity=0 time=0
note_on channel=11 note=71 velocity=0 time=0
note_on channel=11 note=73 velocity=100 time=0
note_on channel=0 note=79 velocity=0 time=0.19480524999999999
note_on channel=0 note=74 velocity=100 time=0.19480524999999999
<meta message lyrics text='de ' time=0>
note_on channel=2 note=71 velocity=100 time=0
note_on channel=3 note=67 velocity=100 time=0
note_on channel=4 note=62 velocity=100 time=0
note_on channel=5 note=67 velocity=100 time=0
note_on channel=6 note=59 velocity=100 time=0
note_on channel=11 note=73 velocity=0 time=0
note_on channel=11 note=74 velocity=100 time=0
note_on channel=0 note=74 velocity=0 time=0.38961049999999997
note_on channel=0 note=76 velocity=100 time=0
<meta message lyrics text='mo ' time=0>
note_on channel=2 note=71 velocity=0 time=0
note_on channel=3 note=67 velocity=0 time=0
note_on channel=4 note=62 velocity=0 time=0
note_on channel=5 note=67 velocity=0 time=0
note_on channel=6 note=59 velocity=0 time=0
note_on channel=7 note=55 velocity=0 time=0
note_on channel=7 note=55 velocity=100 time=0
note_on channel=11 note=74 velocity=0 time=0
note_on channel=11 note=76 velocity=100 time=0
note_on channel=0 note=76 velocity=0 time=0.38961049999999997
note_on channel=0 note=78 velocity=100 time=0
<meta message lyrics text='wa ' time=0>
note_on channel=2 note=71 velocity=100 time=0
note_on channel=3 note=66 velocity=100 time=0
note_on channel=4 note=62 velocity=100 time=0
note_on channel=7 note=55 velocity=0 time=0
note_on channel=8 note=50 velocity=0 time=0
note_on channel=8 note=47 velocity=100 time=0
note_on channel=10 note=43 velocity=0 time=0
note_on channel=10 note=47 velocity=100 time=0
note_on channel=11 note=76 velocity=0 time=0
note_on channel=11 note=78 velocity=100 time=0
note_on channel=0 note=78 velocity=0 time=0.19480524999999999
note_on channel=0 note=78 velocity=100 time=0
<meta message lyrics text='ta ' time=0>
note_on channel=0 note=78 velocity=0 time=0.19480524999999999
note_on channel=0 note=78 velocity=100 time=0
<meta message lyrics text='shi ' time=0>
note_on channel=2 note=71 velocity=0 time=0
note_on channel=3 note=66 velocity=0 time=0
note_on channel=4 note=62 velocity=0 time=0
note_on channel=7 note=59 velocity=100 time=0
note_on channel=0 note=78 velocity=0 time=0.19480524999999999
note_on channel=0 note=78 velocity=100 time=0
<meta message lyrics text='ta ' time=0>
note_on channel=2 note=71 velocity=100 time=0.19480524999999999
note_on channel=3 note=66 velocity=100 time=0
note_on channel=4 note=62 velocity=100 time=0
note_on channel=5 note=66 velocity=100 time=0
note_on channel=6 note=62 velocity=100 time=0
note_on channel=9 note=77 velocity=100 time=0
note_on channel=11 note=78 velocity=0 time=0
note_on channel=2 note=71 velocity=0 time=0.38961049999999997
note_on channel=3 note=66 velocity=0 time=0
note_on channel=4 note=62 velocity=0 time=0
note_on channel=7 note=59 velocity=0 time=0
note_on channel=7 note=59 velocity=100 time=0
note_on channel=9 note=77 velocity=0 time=0
note_on channel=11 note=71 velocity=100 time=0
note_on channel=0 note=78 velocity=0 time=0.19480524999999999
note_on channel=0 note=78 velocity=100 time=0
<meta message lyrics text='chi ' time=0>
note_on channel=0 note=78 velocity=0 time=0.19480524999999999
note_on channel=0 note=78 velocity=100 time=0
<meta message lyrics text='"a ' time=0>
note_on channel=2 note=70 velocity=100 time=0
note_on channel=3 note=66 velocity=100 time=0
note_on channel=4 note=61 velocity=100 time=0
note_on channel=5 note=66 velocity=0 time=0
note_on channel=6 note=62 velocity=0 time=0
note_on channel=7 note=59 velocity=0 time=0
note_on channel=8 note=47 velocity=0 time=0
note_on channel=8 note=42 velocity=100 time=0
note_on channel=9 note=35 velocity=100 time=0
note_on channel=10 note=47 velocity=0 time=0
note_on channel=10 note=42 velocity=100 time=0
note_on channel=11 note=71 velocity=0 time=0
note_on channel=11 note=70 velocity=100 time=0
note_on channel=0 note=78 velocity=0 time=0.19480524999999999
note_on channel=0 note=78 velocity=100 time=0
<meta message lyrics text='i ' time=0>
note_on channel=0 note=78 velocity=0 time=0.19480524999999999
note_on channel=0 note=78 velocity=100 time=0
<meta message lyrics text='shi ' time=0>
note_on channel=2 note=70 velocity=0 time=0
note_on channel=3 note=66 velocity=0 time=0
note_on channel=4 note=61 velocity=0 time=0
note_on channel=7 note=58 velocity=100 time=0
note_on channel=9 note=35 velocity=0 time=0
note_on channel=0 note=78 velocity=0 time=0.19480524999999999
note_on channel=0 note=76 velocity=100 time=0
<meta message lyrics text='te ' time=0>
note_on channel=0 note=76 velocity=0 time=0.19480524999999999
note_on channel=0 note=76 velocity=100 time=0
<meta message lyrics text='ku ' time=0>
note_on channel=2 note=70 velocity=100 time=0
note_on channel=3 note=66 velocity=100 time=0
note_on channel=4 note=61 velocity=100 time=0
note_on channel=5 note=66 velocity=100 time=0
note_on channel=6 note=61 velocity=100 time=0
note_on channel=9 note=77 velocity=100 time=0
note_on channel=0 note=76 velocity=0 time=0.19480524999999999
note_on channel=0 note=76 velocity=100 time=0
<meta message lyrics text='re" ' time=0>
note_on channel=0 note=76 velocity=0 time=0.19480524999999999
note_on channel=0 note=78 velocity=100 time=0
<meta message lyrics text='to ' time=0>
note_on channel=2 note=70 velocity=0 time=0
note_on channel=3 note=66 velocity=0 time=0
note_on channel=4 note=61 velocity=0 time=0
note_on channel=7 note=58 velocity=0 time=0
note_on channel=7 note=58 velocity=100 time=0
note_on channel=9 note=77 velocity=0 time=0
note_on channel=0 note=78 velocity=0 time=0.19480524999999999
note_on channel=0 note=76 velocity=100 time=0
<meta message lyrics text='wa ' time=0>
note_on channel=0 note=76 velocity=0 time=0.19480524999999999
note_on channel=0 note=76 velocity=100 time=0
<meta message lyrics text='i ' time=0>
note_on channel=2 note=71 velocity=100 time=0
note_on channel=3 note=67 velocity=100 time=0
note_on channel=4 note=62 velocity=100 time=0
note_on channel=5 note=66 velocity=0 time=0
note_on channel=6 note=61 velocity=0 time=0
note_on channel=7 note=58 velocity=0 time=0
note_on channel=8 note=42 velocity=0 time=0
note_on channel=8 note=43 velocity=100 time=0
note_on channel=9 note=35 velocity=100 time=0
note_on channel=9 note=77 velocity=100 time=0
note_on channel=10 note=42 velocity=0 time=0
note_on channel=10 note=43 velocity=100 time=0
note_on channel=11 note=70 velocity=0 time=0
note_on channel=11 note=76 velocity=100 time=0
note_on channel=0 note=76 velocity=0 time=0.19480524999999999
note_on channel=0 note=78 velocity=100 time=0
<meta message lyrics text='wa ' time=0>
note_on channel=11 note=76 velocity=0 time=0
note_on channel=11 note=78 velocity=100 time=0
note_on channel=2 note=71 velocity=0 time=0.19480524999999999
note_on channel=3 note=67 velocity=0 time=0
note_on channel=4 note=62 velocity=0 time=0
note_on channel=5 note=67 velocity=100 time=0
note_on channel=6 note=59 velocity=100 time=0
note_on channel=7 note=55 velocity=100 time=0
note_on channel=9 note=77 velocity=0 time=0
note_on channel=9 note=35 velocity=0 time=0
note_on channel=0 note=78 velocity=0 time=0.38961049999999997
note_on channel=0 note=76 velocity=100 time=0
<meta message lyrics text='na ' time=0>
note_on channel=2 note=69 velocity=100 time=0
note_on channel=3 note=64 velocity=100 time=0
note_on channel=4 note=64 velocity=100 time=0
note_on channel=5 note=67 velocity=0 time=0
note_on channel=6 note=59 velocity=0 time=0
note_on channel=7 note=55 velocity=0 time=0
note_on channel=8 note=43 velocity=0 time=0
note_on channel=8 note=45 velocity=100 time=0
note_on channel=9 note=35 velocity=100 time=0
note_on channel=9 note=77 velocity=100 time=0
note_on channel=10 note=43 velocity=0 time=0
note_on channel=10 note=45 velocity=100 time=0
note_on channel=11 note=78 velocity=0 time=0
note_on channel=11 note=76 velocity=100 time=0
note_on channel=0 note=76 velocity=0 time=0.19480524999999999
note_on channel=0 note=74 velocity=100 time=0
<meta message lyrics text='i ' time=0>
note_on channel=11 note=76 velocity=0 time=0
note_on channel=11 note=74 velocity=100 time=0
note_on channel=0 note=74 velocity=0 time=0.19480524999999999
note_on channel=0 note=74 velocity=100 time=0
<meta message lyrics text='yo. ' time=0>
note_on channel=2 note=69 velocity=0 time=0
note_on channel=3 note=64 velocity=0 time=0
note_on channel=4 note=64 velocity=0 time=0
note_on channel=5 note=64 velocity=100 time=0
note_on channel=6 note=61 velocity=100 time=0
note_on channel=7 note=57 velocity=100 time=0
note_on channel=9 note=77 velocity=0 time=0
note_on channel=9 note=35 velocity=0 time=0
note_on channel=2 note=69 velocity=100 time=0.38961049999999997
note_on channel=3 note=66 velocity=100 time=0
note_on channel=4 note=62 velocity=100 time=0
note_on channel=5 note=64 velocity=0 time=0
note_on channel=6 note=61 velocity=0 time=0
note_on channel=7 note=57 velocity=0 time=0
note_on channel=8 note=45 velocity=0 time=0
note_on channel=8 note=50 velocity=100 time=0
note_on channel=2 note=69 velocity=0 time=0.38961049999999997
note_on channel=3 note=66 velocity=0 time=0
note_on channel=4 note=62 velocity=0 time=0
note_on channel=7 note=57 velocity=100 time=0
note_on channel=2 note=69 velocity=100 time=0.38961049999999997
note_on channel=3 note=66 velocity=100 time=0
note_on channel=4 note=62 velocity=100 time=0
note_on channel=5 note=66 velocity=100 time=0
note_on channel=6 note=62 velocity=100 time=0
note_on channel=9 note=35 velocity=100 time=0
note_on channel=0 note=74 velocity=0 time=0.38961049999999997
note_on channel=2 note=69 velocity=0 time=0
note_on channel=3 note=66 velocity=0 time=0
note_on channel=4 note=62 velocity=0 time=0
note_on channel=7 note=57 velocity=0 time=0
note_on channel=7 note=57 velocity=100 time=0
note_on channel=9 note=35 velocity=0 time=0
note_on channel=1 note=90 velocity=100 time=0.38961049999999997
note_on channel=5 note=66 velocity=0 time=0
note_on channel=6 note=62 velocity=0 time=0
note_on channel=7 note=57 velocity=0 time=0
note_on channel=8 note=50 velocity=0 time=0
note_on channel=8 note=50 velocity=100 time=0
note_on channel=10 note=45 velocity=0 time=0
note_on channel=11 note=74 velocity=0 time=0
note_on channel=1 note=90 velocity=0 time=0.38961049999999997
note_on channel=1 note=90 velocity=100 time=0
note_on channel=7 note=57 velocity=100 time=0
note_on channel=1 note=90 velocity=0 time=0.19480524999999999
note_on channel=1 note=90 velocity=100 time=0
note_on channel=1 note=90 velocity=0 time=0.19480524999999999
note_on channel=1 note=90 velocity=100 time=0
note_on channel=5 note=66 velocity=100 time=0
note_on channel=6 note=62 velocity=100 time=0
note_on channel=9 note=77 velocity=100 time=0
note_on channel=1 note=90 velocity=0 time=0.19480524999999999
note_on channel=1 note=90 velocity=100 time=0
note_on channel=1 note=90 velocity=0 time=0.19480524999999999
note_on channel=1 note=91 velocity=100 time=0
note_on channel=7 note=57 velocity=0 time=0
note_on channel=7 note=57 velocity=100 time=0
note_on channel=9 note=77 velocity=0 time=0
note_on channel=1 note=91 velocity=0 time=0.19480524999999999
note_on channel=1 note=93 velocity=100 time=0
note_on channel=1 note=93 velocity=0 time=0.19480524999999999
note_on channel=5 note=66 velocity=0 time=0
note_on channel=6 note=62 velocity=0 time=0
note_on channel=7 note=57 velocity=0 time=0
note_on channel=8 note=50 velocity=0 time=0
note_on channel=8 note=45 velocity=100 time=0
note_on channel=10 note=45 velocity=100 time=0
note_on channel=1 note=93 velocity=100 time=0.38961049999999997
note_on channel=7 note=57 velocity=100 time=0
note_on channel=1 note=93 velocity=0 time=0.19480524999999999
note_on channel=1 note=93 velocity=100 time=0
note_on channel=1 note=93 velocity=0 time=0.19480524999999999
note_on channel=1 note=93 velocity=100 time=0
note_on channel=5 note=66 velocity=100 time=0
note_on channel=6 note=62 velocity=100 time=0
note_on channel=1 note=93 velocity=0 time=0.19480524999999999
note_on channel=1 note=93 velocity=100 time=0
note_on channel=1 note=93 velocity=0 time=0.19480524999999999
note_on channel=1 note=93 velocity=100 time=0
note_on channel=5 note=66 velocity=0 time=0
note_on channel=6 note=62 velocity=0 time=0
note_on channel=7 note=57 velocity=0 time=0
note_on channel=7 note=57 velocity=100 time=0
note_on channel=1 note=93 velocity=0 time=0.19480524999999999
note_on channel=1 note=95 velocity=100 time=0
note_on channel=1 note=95 velocity=0 time=0.19480524999999999
note_on channel=7 note=57 velocity=0 time=0
note_on channel=8 note=45 velocity=0 time=0
note_on channel=8 note=43 velocity=100 time=0
note_on channel=10 note=45 velocity=0 time=0
note_on channel=10 note=43 velocity=100 time=0
note_on channel=1 note=95 velocity=100 time=0.38961049999999997
note_on channel=7 note=55 velocity=100 time=0
note_on channel=1 note=95 velocity=0 time=0.19480524999999999
note_on channel=1 note=91 velocity=100 time=0
note_on channel=1 note=91 velocity=0 time=0.19480524999999999
note_on channel=1 note=91 velocity=100 time=0
note_on channel=5 note=67 velocity=100 time=0
note_on channel=6 note=59 velocity=100 time=0
note_on channel=9 note=77 velocity=100 time=0
note_on channel=1 note=91 velocity=0 time=0.19480524999999999
note_on channel=1 note=90 velocity=100 time=0.19480524999999999
note_on channel=7 note=55 velocity=0 time=0
note_on channel=7 note=55 velocity=100 time=0
note_on channel=9 note=77 velocity=0 time=0
note_on channel=1 note=90 velocity=0 time=0.19480524999999999
note_on channel=1 note=91 velocity=100 time=0
note_on channel=1 note=91 velocity=0 time=0.19480524999999999
note_on channel=5 note=67 velocity=0 time=0
note_on channel=6 note=59 velocity=0 time=0
note_on channel=7 note=55 velocity=0 time=0
note_on channel=8 note=43 velocity=0 time=0
note_on channel=8 note=50 velocity=100 time=0
note_on channel=7 note=55 velocity=100 time=0.38961049999999997
note_on channel=1 note=86 velocity=100 time=0.38961049999999997
note_on channel=5 note=67 velocity=100 time=0
note_on channel=6 note=59 velocity=100 time=0
note_on channel=1 note=86 velocity=0 time=0.19480524999999999
note_on channel=1 note=88 velocity=100 time=0.19480524999999999
note_on channel=5 note=67 velocity=0 time=0
note_on channel=6 note=59 velocity=0 time=0
note_on channel=7 note=55 velocity=0 time=0
note_on channel=7 note=55 velocity=100 time=0
note_on channel=1 note=88 velocity=0 time=0.19480524999999999
note_on channel=1 note=90 velocity=100 time=0.19480524999999999
note_on channel=7 note=55 velocity=0 time=0
note_on channel=8 note=50 velocity=0 time=0
note_on channel=8 note=47 velocity=100 time=0
note_on channel=10 note=43 velocity=0 time=0
note_on channel=10 note=47 velocity=100 time=0
note_on channel=1 note=90 velocity=0 time=0.19480524999999999
note_on channel=1 note=90 velocity=100 time=0
note_on channel=1 note=90 velocity=0 time=0.19480524999999999
note_on channel=1 note=90 velocity=100 time=0
note_on channel=7 note=59 velocity=100 time=0
note_on channel=1 note=90 velocity=0 time=0.19480524999999999
note_on channel=1 note=90 velocity=100 time=0.19480524999999999
note_on channel=5 note=66 velocity=100 time=0
note_on channel=6 note=62 velocity=100 time=0
note_on channel=9 note=77 velocity=100 time=0
note_on channel=1 note=90 velocity=0 time=0.19480524999999999
note_on channel=1 note=90 velocity=100 time=0
note_on channel=1 note=90 velocity=0 time=0.19480524999999999
note_on channel=1 note=90 velocity=100 time=0
note_on channel=7 note=59 velocity=0 time=0
note_on channel=7 note=59 velocity=100 time=0
note_on channel=9 note=77 velocity=0 time=0
note_on channel=1 note=90 velocity=0 time=0.19480524999999999
note_on channel=1 note=90 velocity=100 time=0.19480524999999999
note_on channel=5 note=66 velocity=0 time=0
note_on channel=6 note=62 velocity=0 time=0
note_on channel=7 note=59 velocity=0 time=0
note_on channel=8 note=47 velocity=0 time=0
note_on channel=8 note=42 velocity=100 time=0
note_on channel=10 note=47 velocity=0 time=0
note_on channel=10 note=42 velocity=100 time=0
note_on channel=1 note=90 velocity=0 time=0.19480524999999999
note_on channel=1 note=90 velocity=100 time=0
note_on channel=1 note=90 velocity=0 time=0.19480524999999999
note_on channel=1 note=90 velocity=100 time=0
note_on channel=7 note=58 velocity=100 time=0
note_on channel=1 note=90 velocity=0 time=0.19480524999999999
note_on channel=1 note=88 velocity=100 time=0.19480524999999999
note_on channel=5 note=66 velocity=100 time=0
note_on channel=6 note=61 velocity=100 time=0
note_on channel=9 note=77 velocity=100 time=0
note_on channel=1 note=88 velocity=0 time=0.19480524999999999
note_on channel=1 note=88 velocity=100 time=0
note_on channel=1 note=88 velocity=0 time=0.19480524999999999
note_on channel=1 note=88 velocity=100 time=0
note_on channel=7 note=58 velocity=0 time=0
note_on channel=7 note=58 velocity=100 time=0
note_on channel=9 note=77 velocity=0 time=0
note_on channel=1 note=88 velocity=0 time=0.19480524999999999
note_on channel=1 note=88 velocity=100 time=0.19480524999999999
note_on channel=5 note=66 velocity=0 time=0
note_on channel=6 note=61 velocity=0 time=0
note_on channel=7 note=58 velocity=0 time=0
note_on channel=8 note=42 velocity=0 time=0
note_on channel=8 note=43 velocity=100 time=0
note_on channel=9 note=77 velocity=100 time=0
note_on channel=10 note=42 velocity=0 time=0
note_on channel=10 note=43 velocity=100 time=0
note_on channel=1 note=88 velocity=0 time=0.19480524999999999
note_on channel=1 note=88 velocity=100 time=0
note_on channel=1 note=88 velocity=0 time=0.19480524999999999
note_on channel=1 note=90 velocity=100 time=0
note_on channel=5 note=67 velocity=100 time=0
note_on channel=6 note=59 velocity=100 time=0
note_on channel=7 note=55 velocity=100 time=0
note_on channel=9 note=77 velocity=0 time=0
note_on channel=1 note=90 velocity=0 time=0.19480524999999999
note_on channel=1 note=88 velocity=100 time=0.19480524999999999
note_on channel=5 note=67 velocity=0 time=0
note_on channel=6 note=59 velocity=0 time=0
note_on channel=7 note=55 velocity=0 time=0
note_on channel=8 note=43 velocity=0 time=0
note_on channel=8 note=45 velocity=100 time=0
note_on channel=9 note=77 velocity=100 time=0
note_on channel=10 note=43 velocity=0 time=0
note_on channel=10 note=45 velocity=100 time=0
note_on channel=1 note=88 velocity=0 time=0.19480524999999999
note_on channel=1 note=86 velocity=100 time=0
note_on channel=1 note=86 velocity=0 time=0.19480524999999999
note_on channel=5 note=64 velocity=100 time=0
note_on channel=6 note=61 velocity=100 time=0
note_on channel=7 note=57 velocity=100 time=0
note_on channel=9 note=77 velocity=0 time=0
note_on channel=1 note=86 velocity=100 time=0.19480524999999999
note_on channel=1 note=86 velocity=0 time=0.19480524999999999
note_on channel=5 note=64 velocity=0 time=0
note_on channel=6 note=61 velocity=0 time=0
note_on channel=7 note=57 velocity=0 time=0
note_on channel=8 note=45 velocity=0 time=0
note_on channel=8 note=50 velocity=100 time=0
note_on channel=7 note=57 velocity=100 time=0.38961049999999997
note_on channel=11 note=74 velocity=100 time=0
note_on channel=5 note=66 velocity=100 time=0.38961049999999997
note_on channel=6 note=62 velocity=100 time=0
note_on channel=7 note=57 velocity=0 time=0.38961049999999997
note_on channel=7 note=57 velocity=100 time=0
note_on channel=11 note=74 velocity=0 time=0.29220787499999995
note_on channel=11 note=76 velocity=100 time=0.0064935083333333326
note_on channel=1 note=90 velocity=100 time=0.09090911666666665
note_on channel=5 note=66 velocity=0 time=0
note_on channel=6 note=62 velocity=0 time=0
note_on channel=7 note=57 velocity=0 time=0
note_on channel=8 note=50 velocity=0 time=0
note_on channel=8 note=50 velocity=100 time=0
note_on channel=9 note=49 velocity=60 time=0
note_on channel=10 note=45 velocity=0 time=0
note_on channel=10 note=50 velocity=100 time=0
note_on channel=11 note=78 velocity=100 time=0
note_on channel=13 note=66 velocity=100 time=0
note_on channel=13 note=57 velocity=100 time=0
note_on channel=15 note=50 velocity=100 time=0
note_on channel=11 note=76 velocity=0 time=0.0064935083333333326
note_on channel=1 note=90 velocity=0 time=0.18831174166666664
note_on channel=1 note=90 velocity=100 time=0.19480524999999999
note_on channel=7 note=57 velocity=100 time=0
note_on channel=1 note=90 velocity=0 time=0.19480524999999999
note_on channel=1 note=90 velocity=100 time=0
note_on channel=1 note=90 velocity=0 time=0.19480524999999999
note_on channel=1 note=90 velocity=100 time=0
note_on channel=5 note=66 velocity=100 time=0
note_on channel=6 note=62 velocity=100 time=0
note_on channel=9 note=77 velocity=100 time=0
note_on channel=1 note=90 velocity=0 time=0.19480524999999999
note_on channel=1 note=90 velocity=100 time=0
note_on channel=1 note=90 velocity=0 time=0.19480524999999999
note_on channel=1 note=91 velocity=100 time=0
note_on channel=7 note=57 velocity=0 time=0
note_on channel=7 note=57 velocity=100 time=0
note_on channel=9 note=77 velocity=0 time=0
note_on channel=11 note=78 velocity=0 time=0
note_on channel=11 note=76 velocity=100 time=0
note_on channel=1 note=91 velocity=0 time=0.19480524999999999
note_on channel=1 note=93 velocity=100 time=0
note_on channel=11 note=76 velocity=0 time=0
note_on channel=11 note=78 velocity=100 time=0
note_on channel=1 note=93 velocity=0 time=0.19480524999999999
note_on channel=5 note=66 velocity=0 time=0
note_on channel=6 note=62 velocity=0 time=0
note_on channel=7 note=57 velocity=0 time=0
note_on channel=8 note=50 velocity=0 time=0
note_on channel=8 note=45 velocity=100 time=0
note_on channel=9 note=35 velocity=100 time=0
note_on channel=10 note=50 velocity=0 time=0
note_on channel=10 note=45 velocity=100 time=0
note_on channel=13 note=57 velocity=0 time=0
note_on channel=13 note=62 velocity=100 time=0
note_on channel=15 note=50 velocity=0 time=0
note_on channel=15 note=54 velocity=100 time=0
note_on channel=1 note=93 velocity=100 time=0.38961049999999997
note_on channel=7 note=57 velocity=100 time=0
note_on channel=9 note=35 velocity=0 time=0
note_on channel=1 note=93 velocity=0 time=0.19480524999999999
note_on channel=1 note=93 velocity=100 time=0
note_on channel=1 note=93 velocity=0 time=0.19480524999999999
note_on channel=1 note=93 velocity=100 time=0
note_on channel=5 note=66 velocity=100 time=0
note_on channel=6 note=62 velocity=100 time=0
note_on channel=11 note=78 velocity=0 time=0
note_on channel=11 note=81 velocity=100 time=0
note_on channel=1 note=93 velocity=0 time=0.19480524999999999
note_on channel=1 note=93 velocity=100 time=0
note_on channel=1 note=93 velocity=0 time=0.19480524999999999
note_on channel=1 note=93 velocity=100 time=0
note_on channel=5 note=66 velocity=0 time=0
note_on channel=6 note=62 velocity=0 time=0
note_on channel=7 note=57 velocity=0 time=0
note_on channel=7 note=55 velocity=100 time=0
note_on channel=1 note=93 velocity=0 time=0.19480524999999999
note_on channel=1 note=95 velocity=100 time=0
note_on channel=1 note=95 velocity=0 time=0.19480524999999999
note_on channel=7 note=55 velocity=0 time=0
note_on channel=8 note=45 velocity=0 time=0
note_on channel=8 note=43 velocity=100 time=0
note_on channel=9 note=49 velocity=0 time=0
note_on channel=10 note=45 velocity=0 time=0
note_on channel=10 note=43 velocity=100 time=0
note_on channel=11 note=81 velocity=0 time=0
note_on channel=11 note=79 velocity=100 time=0
note_on channel=13 note=66 velocity=0 time=0
note_on channel=13 note=67 velocity=100 time=0
note_on channel=13 note=62 velocity=0 time=0
note_on channel=13 note=59 velocity=100 time=0
note_on channel=15 note=54 velocity=0 time=0
note_on channel=15 note=50 velocity=100 time=0
note_on channel=1 note=95 velocity=100 time=0.38961049999999997
note_on channel=7 note=55 velocity=100 time=0
note_on channel=1 note=95 velocity=0 time=0.19480524999999999
note_on channel=1 note=91 velocity=100 time=0
note_on channel=1 note=91 velocity=0 time=0.19480524999999999
note_on channel=1 note=91 velocity=100 time=0
note_on channel=5 note=67 velocity=100 time=0
note_on channel=6 note=59 velocity=100 time=0
note_on channel=9 note=77 velocity=100 time=0
note_on channel=11 note=79 velocity=0 time=0
note_on channel=1 note=91 velocity=0 time=0.19480524999999999
note_on channel=1 note=90 velocity=100 time=0.19480524999999999
note_on channel=7 note=55 velocity=0 time=0
note_on channel=7 note=55 velocity=100 time=0
note_on channel=9 note=77 velocity=0 time=0
note_on channel=1 note=90 velocity=0 time=0.19480524999999999
note_on channel=1 note=91 velocity=100 time=0
note_on channel=1 note=91 velocity=0 time=0.19480524999999999
note_on channel=5 note=67 velocity=0 time=0
note_on channel=6 note=59 velocity=0 time=0
note_on channel=7 note=55 velocity=0 time=0
note_on channel=8 note=43 velocity=0 time=0
note_on channel=8 note=50 velocity=100 time=0
note_on channel=9 note=35 velocity=100 time=0
note_on channel=10 note=43 velocity=0 time=0
note_on channel=10 note=43 velocity=100 time=0
note_on channel=11 note=71 velocity=100 time=0
note_on channel=7 note=55 velocity=100 time=0.38961049999999997
note_on channel=9 note=35 velocity=0 time=0
note_on channel=11 note=71 velocity=0 time=0
note_on channel=11 note=73 velocity=100 time=0
note_on channel=13 note=59 velocity=0 time=0
note_on channel=13 note=61 velocity=100 time=0
note_on channel=1 note=86 velocity=100 time=0.38961049999999997
note_on channel=5 note=67 velocity=100 time=0
note_on channel=6 note=59 velocity=100 time=0
note_on channel=11 note=73 velocity=0 time=0
note_on channel=11 note=74 velocity=100 time=0
note_on channel=13 note=61 velocity=0 time=0
note_on channel=13 note=62 velocity=100 time=0
note_on channel=1 note=86 velocity=0 time=0.19480524999999999
note_on channel=1 note=88 velocity=100 time=0.19480524999999999
note_on channel=5 note=67 velocity=0 time=0
note_on channel=6 note=59 velocity=0 time=0
note_on channel=7 note=55 velocity=0 time=0
note_on channel=7 note=55 velocity=100 time=0
note_on channel=11 note=74 velocity=0 time=0
note_on channel=11 note=76 velocity=100 time=0
note_on channel=13 note=62 velocity=0 time=0
note_on channel=13 note=64 velocity=100 time=0
note_on channel=1 note=88 velocity=0 time=0.19480524999999999
note_on channel=1 note=90 velocity=100 time=0.19480524999999999
note_on channel=7 note=55 velocity=0 time=0
note_on channel=8 note=50 velocity=0 time=0
note_on channel=8 note=47 velocity=100 time=0
note_on channel=9 note=49 velocity=60 time=0
note_on channel=10 note=43 velocity=0 time=0
note_on channel=10 note=47 velocity=100 time=0
note_on channel=11 note=76 velocity=0 time=0
note_on channel=11 note=78 velocity=100 time=0
note_on channel=13 note=67 velocity=0 time=0
note_on channel=13 note=66 velocity=100 time=0
note_on channel=13 note=64 velocity=0 time=0
note_on channel=13 note=62 velocity=100 time=0
note_on channel=15 note=50 velocity=0 time=0
note_on channel=15 note=54 velocity=100 time=0
note_on channel=1 note=90 velocity=0 time=0.19480524999999999
note_on channel=1 note=90 velocity=100 time=0
note_on channel=1 note=90 velocity=0 time=0.19480524999999999
note_on channel=1 note=90 velocity=100 time=0
note_on channel=7 note=59 velocity=100 time=0
note_on channel=1 note=90 velocity=0 time=0.19480524999999999
note_on channel=1 note=90 velocity=100 time=0.19480524999999999
note_on channel=5 note=66 velocity=100 time=0
note_on channel=6 note=62 velocity=100 time=0
note_on channel=9 note=77 velocity=100 time=0
note_on channel=11 note=78 velocity=0 time=0
note_on channel=1 note=90 velocity=0 time=0.19480524999999999
note_on channel=1 note=90 velocity=100 time=0
note_on channel=1 note=90 velocity=0 time=0.19480524999999999
note_on channel=1 note=90 velocity=100 time=0
note_on channel=7 note=59 velocity=0 time=0
note_on channel=7 note=59 velocity=100 time=0
note_on channel=9 note=77 velocity=0 time=0
note_on channel=11 note=71 velocity=100 time=0
note_on channel=13 note=62 velocity=0 time=0
note_on channel=13 note=59 velocity=100 time=0
note_on channel=1 note=90 velocity=0 time=0.19480524999999999
note_on channel=1 note=90 velocity=100 time=0.19480524999999999
note_on channel=5 note=66 velocity=0 time=0
note_on channel=6 note=62 velocity=0 time=0
note_on channel=7 note=59 velocity=0 time=0
note_on channel=8 note=47 velocity=0 time=0
note_on channel=8 note=42 velocity=100 time=0
note_on channel=9 note=49 velocity=0 time=0
note_on channel=9 note=49 velocity=60 time=0
note_on channel=9 note=35 velocity=100 time=0
note_on channel=10 note=47 velocity=0 time=0
note_on channel=10 note=42 velocity=100 time=0
note_on channel=11 note=71 velocity=0 time=0
note_on channel=11 note=70 velocity=100 time=0
note_on channel=13 note=66 velocity=0 time=0
note_on channel=13 note=66 velocity=100 time=0
note_on channel=13 note=59 velocity=0 time=0
note_on channel=13 note=58 velocity=100 time=0
note_on channel=15 note=54 velocity=0 time=0
note_on channel=15 note=49 velocity=100 time=0
note_on channel=1 note=90 velocity=0 time=0.19480524999999999
note_on channel=1 note=90 velocity=100 time=0
note_on channel=1 note=90 velocity=0 time=0.19480524999999999
note_on channel=1 note=90 velocity=100 time=0
note_on channel=7 note=58 velocity=100 time=0
note_on channel=9 note=35 velocity=0 time=0
note_on channel=1 note=90 velocity=0 time=0.19480524999999999
note_on channel=1 note=90 velocity=100 time=0.19480524999999999
note_on channel=5 note=66 velocity=100 time=0
note_on channel=6 note=61 velocity=100 time=0
note_on channel=9 note=77 velocity=100 time=0
note_on channel=11 note=70 velocity=0 time=0
note_on channel=11 note=78 velocity=100 time=0
note_on channel=13 note=58 velocity=0 time=0
note_on channel=13 note=61 velocity=100 time=0
note_on channel=1 note=90 velocity=0 time=0.19480524999999999
note_on channel=1 note=90 velocity=100 time=0
note_on channel=1 note=90 velocity=0 time=0.19480524999999999
note_on channel=1 note=90 velocity=100 time=0
note_on channel=7 note=58 velocity=0 time=0
note_on channel=7 note=58 velocity=100 time=0
note_on channel=9 note=77 velocity=0 time=0
note_on channel=1 note=90 velocity=0 time=0.19480524999999999
note_on channel=1 note=88 velocity=100 time=0.19480524999999999
note_on channel=5 note=66 velocity=0 time=0
note_on channel=6 note=61 velocity=0 time=0
note_on channel=7 note=58 velocity=0 time=0
note_on channel=8 note=42 velocity=0 time=0
note_on channel=8 note=43 velocity=100 time=0
note_on channel=9 note=49 velocity=0 time=0
note_on channel=9 note=49 velocity=60 time=0
note_on channel=9 note=35 velocity=100 time=0
note_on channel=9 note=77 velocity=100 time=0
note_on channel=10 note=42 velocity=0 time=0
note_on channel=10 note=43 velocity=100 time=0
note_on channel=11 note=78 velocity=0 time=0
note_on channel=11 note=71 velocity=100 time=0
note_on channel=12 note=67 velocity=100 time=0
note_on channel=13 note=66 velocity=0 time=0
note_on channel=13 note=67 velocity=100 time=0
note_on channel=13 note=61 velocity=0 time=0
note_on channel=13 note=59 velocity=100 time=0
note_on channel=15 note=49 velocity=0 time=0
note_on channel=15 note=50 velocity=100 time=0
note_on channel=1 note=88 velocity=0 time=0.19480524999999999
note_on channel=1 note=88 velocity=100 time=0
note_on channel=1 note=88 velocity=0 time=0.19480524999999999
note_on channel=1 note=90 velocity=100 time=0
note_on channel=5 note=67 velocity=100 time=0
note_on channel=6 note=59 velocity=100 time=0
note_on channel=7 note=55 velocity=100 time=0
note_on channel=9 note=77 velocity=0 time=0
note_on channel=9 note=35 velocity=0 time=0
note_on channel=1 note=90 velocity=0 time=0.19480524999999999
note_on channel=1 note=88 velocity=100 time=0.19480524999999999
note_on channel=5 note=67 velocity=0 time=0
note_on channel=6 note=59 velocity=0 time=0
note_on channel=7 note=55 velocity=0 time=0
note_on channel=8 note=43 velocity=0 time=0
note_on channel=8 note=45 velocity=100 time=0
note_on channel=9 note=49 velocity=0 time=0
note_on channel=9 note=49 velocity=60 time=0
note_on channel=9 note=35 velocity=100 time=0
note_on channel=9 note=77 velocity=100 time=0
note_on channel=10 note=43 velocity=0 time=0
note_on channel=10 note=45 velocity=100 time=0
note_on channel=11 note=71 velocity=0 time=0
note_on channel=11 note=73 velocity=100 time=0
note_on channel=12 note=67 velocity=0 time=0
note_on channel=12 note=69 velocity=100 time=0
note_on channel=13 note=67 velocity=0 time=0
note_on channel=13 note=69 velocity=100 time=0
note_on channel=13 note=59 velocity=0 time=0
note_on channel=13 note=61 velocity=100 time=0
note_on channel=15 note=50 velocity=0 time=0
note_on channel=15 note=52 velocity=100 time=0
note_on channel=1 note=88 velocity=0 time=0.19480524999999999
note_on channel=1 note=86 velocity=100 time=0
note_on channel=1 note=86 velocity=0 time=0.19480524999999999
note_on channel=5 note=64 velocity=100 time=0
note_on channel=6 note=61 velocity=100 time=0
note_on channel=7 note=57 velocity=100 time=0
note_on channel=9 note=77 velocity=0 time=0
note_on channel=9 note=35 velocity=0 time=0
note_on channel=1 note=86 velocity=100 time=0.19480524999999999
note_on channel=1 note=86 velocity=0 time=0.19480524999999999
note_on channel=5 note=64 velocity=0 time=0
note_on channel=6 note=61 velocity=0 time=0
note_on channel=7 note=57 velocity=0 time=0
note_on channel=8 note=45 velocity=0 time=0
note_on channel=8 note=50 velocity=100 time=0
note_on channel=9 note=49 velocity=0 time=0
note_on channel=9 note=49 velocity=60 time=0
note_on channel=9 note=35 velocity=100 time=0
note_on channel=11 note=73 velocity=0 time=0
note_on channel=11 note=74 velocity=100 time=0
note_on channel=12 note=69 velocity=0 time=0
note_on channel=12 note=69 velocity=100 time=0
note_on channel=13 note=69 velocity=0 time=0
note_on channel=13 note=66 velocity=100 time=0
note_on channel=13 note=61 velocity=0 time=0
note_on channel=13 note=62 velocity=100 time=0
note_on channel=15 note=52 velocity=0 time=0
note_on channel=15 note=50 velocity=100 time=0
note_on channel=7 note=57 velocity=100 time=0.38961049999999997
note_on channel=9 note=35 velocity=0 time=0
note_on channel=5 note=66 velocity=100 time=0.38961049999999997
note_on channel=6 note=62 velocity=100 time=0
note_on channel=9 note=49 velocity=0 time=0
note_on channel=9 note=35 velocity=100 time=0
note_on channel=5 note=66 velocity=0 time=0.38961049999999997
note_on channel=6 note=62 velocity=0 time=0
note_on channel=7 note=57 velocity=0 time=0
note_on channel=7 note=55 velocity=100 time=0
note_on channel=9 note=35 velocity=0 time=0
note_on channel=12 note=69 velocity=0 time=0
note_on channel=11 note=73 velocity=100 time=0.25324682499999995
note_on channel=11 note=74 velocity=0 time=0.03896105
note_on channel=11 note=72 velocity=100 time=0.0064935083333333326
note_on channel=11 note=73 velocity=0 time=0.05194806666666666
note_on channel=5 note=67 velocity=100 time=0.03896105
note_on channel=6 note=59 velocity=100 time=0
note_on channel=7 note=55 velocity=0 time=0
note_on channel=8 note=50 velocity=0 time=0
note_on channel=8 note=43 velocity=100 time=0
note_on channel=9 note=33 velocity=60 time=0
note_on channel=10 note=45 velocity=0 time=0
note_on channel=10 note=43 velocity=100 time=0
note_on channel=11 note=71 velocity=100 time=0
note_on channel=13 note=66 velocity=0 time=0
note_on channel=13 note=62 velocity=0 time=0
note_on channel=15 note=50 velocity=0 time=0
note_on channel=11 note=72 velocity=0 time=0.0064935083333333326
note_on channel=9 note=33 velocity=0 time=0.18831174166666664
note_on channel=7 note=55 velocity=100 time=0.19480524999999999
note_on channel=9 note=33 velocity=60 time=0.19480524999999999
note_on channel=0 note=79 velocity=100 time=0.19480524999999999
<meta message lyrics text='So ' time=0>
note_on channel=5 note=67 velocity=0 time=0
note_on channel=5 note=67 velocity=100 time=0
note_on channel=6 note=59 velocity=0 time=0
note_on channel=6 note=59 velocity=100 time=0
note_on channel=9 note=33 velocity=0 time=0
note_on channel=9 note=35 velocity=100 time=0
note_on channel=0 note=79 velocity=0 time=0.19480524999999999
note_on channel=0 note=79 velocity=100 time=0
<meta message lyrics text='ro ' time=0>
note_on channel=0 note=79 velocity=0 time=0.19480524999999999
note_on channel=0 note=79 velocity=100 time=0
<meta message lyrics text='so ' time=0>
note_on channel=5 note=67 velocity=0 time=0
note_on channel=5 note=62 velocity=100 time=0
note_on channel=7 note=55 velocity=0 time=0
note_on channel=7 note=55 velocity=100 time=0
note_on channel=9 note=35 velocity=0 time=0
note_on channel=11 note=71 velocity=0 time=0
note_on channel=0 note=79 velocity=0 time=0.19480524999999999
note_on channel=0 note=79 velocity=100 time=0
<meta message lyrics text='ro ' time=0>
note_on channel=0 note=79 velocity=0 time=0.19480524999999999
note_on channel=0 note=81 velocity=100 time=0
<meta message lyrics text='a ' time=0>
note_on channel=5 note=62 velocity=0 time=0
note_on channel=5 note=64 velocity=100 time=0
note_on channel=6 note=59 velocity=0 time=0
note_on channel=6 note=61 velocity=100 time=0
note_on channel=7 note=55 velocity=0 time=0
note_on channel=8 note=43 velocity=0 time=0
note_on channel=8 note=45 velocity=100 time=0
note_on channel=9 note=33 velocity=60 time=0
note_on channel=10 note=43 velocity=0 time=0
note_on channel=10 note=45 velocity=100 time=0
note_on channel=11 note=73 velocity=100 time=0
note_on channel=0 note=81 velocity=0 time=0.19480524999999999
note_on channel=0 note=81 velocity=100 time=0
<meta message lyrics text='son ' time=0>
note_on channel=9 note=33 velocity=0 time=0
note_on channel=7 note=57 velocity=100 time=0.19480524999999999
note_on channel=11 note=73 velocity=0 time=0
note_on channel=11 note=74 velocity=100 time=0
note_on channel=0 note=81 velocity=0 time=0.19480524999999999
note_on channel=0 note=81 velocity=100 time=0
<meta message lyrics text='ja ' time=0>
note_on channel=9 note=33 velocity=60 time=0
note_on channel=0 note=81 velocity=0 time=0.19480524999999999
note_on channel=0 note=79 velocity=100 time=0
<meta message lyrics text='ou ' time=0>
note_on channel=5 note=64 velocity=0 time=0
note_on channel=5 note=64 velocity=100 time=0
note_on channel=6 note=61 velocity=0 time=0
note_on channel=6 note=61 velocity=100 time=0
note_on channel=9 note=33 velocity=0 time=0
note_on channel=9 note=35 velocity=100 time=0
note_on channel=11 note=74 velocity=0 time=0
note_on channel=11 note=76 velocity=100 time=0
note_on channel=0 note=79 velocity=0 time=0.38961049999999997
note_on channel=0 note=79 velocity=100 time=0
<meta message lyrics text='ka ' time=0>
note_on channel=7 note=57 velocity=0 time=0
note_on channel=7 note=57 velocity=100 time=0
note_on channel=9 note=35 velocity=0 time=0
note_on channel=0 note=79 velocity=0 time=0.19480524999999999
note_on channel=0 note=79 velocity=100 time=0
<meta message lyrics text='na... ' time=0>
note_on channel=0 note=79 velocity=0 time=0.19480524999999999
note_on channel=0 note=78 velocity=100 time=0
note_on channel=5 note=64 velocity=0 time=0
note_on channel=5 note=66 velocity=100 time=0
note_on channel=6 note=61 velocity=0 time=0
note_on channel=6 note=62 velocity=100 time=0
note_on channel=7 note=57 velocity=0 time=0
note_on channel=8 note=45 velocity=0 time=0
note_on channel=8 note=50 velocity=100 time=0
note_on channel=9 note=33 velocity=60 time=0
note_on channel=10 note=45 velocity=0 time=0
note_on channel=10 note=50 velocity=100 time=0
note_on channel=11 note=76 velocity=0 time=0
note_on channel=11 note=74 velocity=100 time=0
note_on channel=9 note=33 velocity=0 time=0.19480524999999999
note_on channel=7 note=57 velocity=100 time=0.19480524999999999
note_on channel=9 note=33 velocity=60 time=0.19480524999999999
note_on channel=5 note=66 velocity=0 time=0.19480524999999999
note_on channel=5 note=66 velocity=100 time=0
note_on channel=6 note=62 velocity=0 time=0
note_on channel=6 note=62 velocity=100 time=0
note_on channel=9 note=33 velocity=0 time=0
note_on channel=9 note=35 velocity=100 time=0
note_on channel=7 note=57 velocity=0 time=0.38961049999999997
note_on channel=7 note=57 velocity=100 time=0
note_on channel=8 note=50 velocity=0 time=0
note_on channel=8 note=45 velocity=100 time=0
note_on channel=9 note=35 velocity=0 time=0
note_on channel=10 note=50 velocity=0 time=0
note_on channel=10 note=45 velocity=100 time=0
note_on channel=11 note=74 velocity=0 time=0
note_on channel=11 note=78 velocity=100 time=0.25324682499999995
note_on channel=11 note=79 velocity=100 time=0.045454558333333325
note_on channel=11 note=78 velocity=0 time=0.05194806666666666
note_on channel=0 note=78 velocity=0 time=0.03896105
note_on channel=5 note=66 velocity=0 time=0
note_on channel=5 note=66 velocity=100 time=0
note_on channel=6 note=62 velocity=0 time=0
note_on channel=6 note=62 velocity=100 time=0
note_on channel=8 note=45 velocity=0 time=0
note_on channel=8 note=50 velocity=100 time=0
note_on channel=9 note=33 velocity=60 time=0
note_on channel=10 note=45 velocity=0 time=0
note_on channel=10 note=50 velocity=100 time=0
note_on channel=11 note=81 velocity=100 time=0
note_on channel=11 note=79 velocity=0 time=0.0064935083333333326
note_on channel=9 note=33 velocity=0 time=0.18831174166666664
note_on channel=7 note=57 velocity=0 time=0.19480524999999999
note_on channel=7 note=57 velocity=100 time=0
note_on channel=11 note=81 velocity=0 time=0
note_on channel=11 note=79 velocity=100 time=0
note_on channel=9 note=33 velocity=60 time=0.19480524999999999
note_on channel=5 note=66 velocity=0 time=0.19480524999999999
note_on channel=5 note=66 velocity=100 time=0
note_on channel=6 note=62 velocity=0 time=0
note_on channel=6 note=62 velocity=100 time=0
note_on channel=9 note=33 velocity=0 time=0
note_on channel=9 note=35 velocity=100 time=0
note_on channel=11 note=79 velocity=0 time=0
note_on channel=11 note=78 velocity=100 time=0
note_on channel=5 note=66 velocity=0 time=0.38961049999999997
note_on channel=6 note=62 velocity=0 time=0
note_on channel=7 note=57 velocity=0 time=0
note_on channel=7 note=55 velocity=100 time=0
note_on channel=9 note=35 velocity=0 time=0
note_on channel=11 note=78 velocity=0 time=0
note_on channel=11 note=76 velocity=100 time=0
note_on channel=5 note=67 velocity=100 time=0.38961049999999997
note_on channel=6 note=59 velocity=100 time=0
note_on channel=7 note=55 velocity=0 time=0
note_on channel=8 note=50 velocity=0 time=0
note_on channel=8 note=43 velocity=100 time=0
note_on channel=9 note=33 velocity=60 time=0
note_on channel=10 note=50 velocity=0 time=0
note_on channel=10 note=43 velocity=100 time=0
note_on channel=11 note=76 velocity=0 time=0
note_on channel=11 note=74 velocity=100 time=0
note_on channel=9 note=33 velocity=0 time=0.19480524999999999
note_on channel=7 note=55 velocity=100 time=0.19480524999999999
note_on channel=9 note=33 velocity=60 time=0.19480524999999999
note_on channel=0 note=79 velocity=100 time=0.19480524999999999
<meta message lyrics text='Mot ' time=0>
note_on channel=5 note=67 velocity=0 time=0
note_on channel=5 note=67 velocity=100 time=0
note_on channel=6 note=59 velocity=0 time=0
note_on channel=6 note=59 velocity=100 time=0
note_on channel=9 note=33 velocity=0 time=0
note_on channel=9 note=35 velocity=100 time=0
note_on channel=0 note=79 velocity=0 time=0.19480524999999999
note_on channel=0 note=79 velocity=100 time=0.19480524999999999
<meta message lyrics text='to ' time=0>
note_on channel=5 note=67 velocity=0 time=0
note_on channel=5 note=62 velocity=100 time=0
note_on channel=6 note=59 velocity=0 time=0
note_on channel=7 note=55 velocity=0 time=0
note_on channel=7 note=55 velocity=100 time=0
note_on channel=9 note=35 velocity=0 time=0
note_on channel=10 note=43 velocity=0 time=0
note_on channel=10 note=43 velocity=100 time=0
note_on channel=0 note=79 velocity=0 time=0.38961049999999997
note_on channel=0 note=81 velocity=100 time=0
<meta message lyrics text='gan ' time=0>
note_on channel=5 note=62 velocity=0 time=0
note_on channel=5 note=64 velocity=100 time=0
note_on channel=6 note=61 velocity=100 time=0
note_on channel=7 note=55 velocity=0 time=0
note_on channel=8 note=43 velocity=0 time=0
note_on channel=8 note=45 velocity=100 time=0
note_on channel=9 note=33 velocity=60 time=0
note_on channel=10 note=43 velocity=0 time=0
note_on channel=10 note=45 velocity=100 time=0
note_on channel=11 note=74 velocity=0 time=0
note_on channel=11 note=76 velocity=100 time=0
note_on channel=9 note=33 velocity=0 time=0.19480524999999999
note_on channel=0 note=81 velocity=0 time=0.19480524999999999
note_on channel=0 note=81 velocity=100 time=0
<meta message lyrics text='bat ' time=0>
note_on channel=7 note=57 velocity=100 time=0
note_on channel=9 note=33 velocity=60 time=0.19480524999999999
note_on channel=0 note=81 velocity=0 time=0.19480524999999999
note_on channel=0 note=81 velocity=100 time=0
<meta message lyrics text='te ' time=0>
note_on channel=5 note=64 velocity=0 time=0
note_on channel=5 note=64 velocity=100 time=0
note_on channel=6 note=61 velocity=0 time=0
note_on channel=6 note=61 velocity=100 time=0
note_on channel=9 note=33 velocity=0 time=0
note_on channel=9 note=35 velocity=100 time=0
note_on channel=11 note=76 velocity=0 time=0
note_on channel=11 note=74 velocity=100 time=0
note_on channel=0 note=81 velocity=0 time=0.38961049999999997
note_on channel=0 note=79 velocity=100 time=0
<meta message lyrics text='mi ' time=0>
note_on channel=7 note=57 velocity=0 time=0
note_on channel=7 note=57 velocity=100 time=0
note_on channel=9 note=35 velocity=0 time=0
note_on channel=11 note=74 velocity=0 time=0
note_on channel=11 note=73 velocity=100 time=0
note_on channel=0 note=79 velocity=0 time=0.19480524999999999
note_on channel=0 note=79 velocity=100 time=0
<meta message lyrics text='you ' time=0>
note_on channel=5 note=64 velocity=0 time=0.19480524999999999
note_on channel=5 note=66 velocity=100 time=0
note_on channel=6 note=61 velocity=0 time=0
note_on channel=6 note=62 velocity=100 time=0
note_on channel=7 note=57 velocity=0 time=0
note_on channel=8 note=45 velocity=0 time=0
note_on channel=8 note=50 velocity=100 time=0
note_on channel=9 note=33 velocity=60 time=0
note_on channel=10 note=45 velocity=0 time=0
note_on channel=10 note=50 velocity=100 time=0
note_on channel=11 note=73 velocity=0 time=0
note_on channel=11 note=74 velocity=100 time=0
note_on channel=0 note=79 velocity=0 time=0.19480524999999999
note_on channel=0 note=78 velocity=100 time=0
<meta message lyrics text='ka ' time=0>
note_on channel=9 note=33 velocity=0 time=0
note_on channel=7 note=57 velocity=100 time=0.19480524999999999
note_on channel=9 note=33 velocity=60 time=0.19480524999999999
note_on channel=0 note=78 velocity=0 time=0.19480524999999999
note_on channel=0 note=78 velocity=100 time=0
<meta message lyrics text='na ' time=0>
note_on channel=5 note=66 velocity=0 time=0
note_on channel=5 note=66 velocity=100 time=0
note_on channel=6 note=62 velocity=0 time=0
note_on channel=6 note=62 velocity=100 time=0
note_on channel=9 note=33 velocity=0 time=0
note_on channel=9 note=35 velocity=100 time=0
note_on channel=0 note=78 velocity=0 time=0.38961049999999997
note_on channel=0 note=85 velocity=100 time=0
<meta message lyrics text='n ' time=0>
note_on channel=7 note=57 velocity=0 time=0
note_on channel=7 note=55 velocity=100 time=0
note_on channel=8 note=50 velocity=0 time=0
note_on channel=8 note=49 velocity=100 time=0
note_on channel=9 note=35 velocity=0 time=0
note_on channel=10 note=50 velocity=0 time=0
note_on channel=10 note=49 velocity=100 time=0
note_on channel=11 note=74 velocity=0 time=0
note_on channel=0 note=85 velocity=0 time=0.19480524999999999
note_on channel=0 note=83 velocity=100 time=0
<meta message lyrics text='te ' time=0>
note_on channel=5 note=66 velocity=0 time=0.19480524999999999
note_on channel=5 note=66 velocity=100 time=0
note_on channel=6 note=62 velocity=0 time=0
note_on channel=6 note=62 velocity=100 time=0
note_on channel=7 note=55 velocity=0 time=0
note_on channel=8 note=49 velocity=0 time=0
note_on channel=8 note=47 velocity=100 time=0
note_on channel=9 note=33 velocity=60 time=0
note_on channel=10 note=49 velocity=0 time=0
note_on channel=10 note=47 velocity=100 time=0
note_on channel=11 note=74 velocity=100 time=0
note_on channel=12 note=71 velocity=100 time=0
note_on channel=9 note=33 velocity=0 time=0.19480524999999999
note_on channel=7 note=59 velocity=100 time=0.19480524999999999
note_on channel=11 note=74 velocity=0 time=0
note_on channel=11 note=73 velocity=100 time=0
note_on channel=12 note=71 velocity=0 time=0
note_on channel=12 note=69 velocity=100 time=0
note_on channel=9 note=33 velocity=60 time=0.19480524999999999
note_on channel=0 note=83 velocity=0 time=0.19480524999999999
note_on channel=5 note=66 velocity=0 time=0
note_on channel=5 note=66 velocity=100 time=0
note_on channel=6 note=62 velocity=0 time=0
note_on channel=6 note=62 velocity=100 time=0
note_on channel=8 note=47 velocity=0 time=0
note_on channel=8 note=42 velocity=100 time=0
note_on channel=9 note=33 velocity=0 time=0
note_on channel=9 note=35 velocity=100 time=0
note_on channel=10 note=47 velocity=0 time=0
note_on channel=10 note=42 velocity=100 time=0
note_on channel=11 note=73 velocity=0 time=0
note_on channel=11 note=74 velocity=100 time=0
note_on channel=12 note=69 velocity=0 time=0
note_on channel=12 note=71 velocity=100 time=0
note_on channel=0 note=76 velocity=100 time=0.38961049999999997
<meta message lyrics text='a... ' time=0>
note_on channel=7 note=59 velocity=0 time=0
note_on channel=7 note=59 velocity=100 time=0
note_on channel=8 note=42 velocity=0 time=0
note_on channel=8 note=47 velocity=100 time=0
note_on channel=9 note=35 velocity=0 time=0
note_on channel=10 note=42 velocity=0 time=0
note_on channel=10 note=47 velocity=100 time=0
note_on channel=11 note=74 velocity=0 time=0
note_on channel=11 note=73 velocity=100 time=0
note_on channel=12 note=71 velocity=0 time=0
note_on channel=12 note=69 velocity=100 time=0
note_on channel=0 note=76 velocity=0 time=0.19480524999999999
note_on channel=0 note=78 velocity=100 time=0
note_on channel=0 note=78 velocity=0 time=0.19480524999999999
note_on channel=0 note=79 velocity=100 time=0
note_on channel=5 note=66 velocity=0 time=0
note_on channel=5 note=67 velocity=100 time=0
note_on channel=6 note=62 velocity=0 time=0
note_on channel=6 note=59 velocity=100 time=0
note_on channel=7 note=59 velocity=0 time=0
note_on channel=8 note=47 velocity=0 time=0
note_on channel=8 note=43 velocity=100 time=0
note_on channel=10 note=47 velocity=0 time=0
note_on channel=10 note=43 velocity=100 time=0
note_on channel=11 note=73 velocity=0 time=0
note_on channel=11 note=74 velocity=100 time=0
note_on channel=12 note=69 velocity=0 time=0
note_on channel=12 note=71 velocity=100 time=0
note_on channel=7 note=55 velocity=100 time=0.38961049999999997
note_on channel=5 note=67 velocity=0 time=0.38961049999999997
note_on channel=5 note=67 velocity=100 time=0
note_on channel=6 note=59 velocity=0 time=0
note_on channel=6 note=59 velocity=100 time=0
note_on channel=9 note=35 velocity=100 time=0
note_on channel=0 note=79 velocity=0 time=0.38961049999999997
note_on channel=0 note=79 velocity=100 time=0
<meta message lyrics text='a... ' time=0>
note_on channel=5 note=67 velocity=0 time=0
note_on channel=5 note=62 velocity=100 time=0
note_on channel=7 note=55 velocity=0 time=0
note_on channel=7 note=55 velocity=100 time=0
note_on channel=8 note=43 velocity=0 time=0
note_on channel=8 note=43 velocity=100 time=0
note_on channel=9 note=35 velocity=0 time=0
note_on channel=10 note=43 velocity=0 time=0
note_on channel=10 note=43 velocity=100 time=0
note_on channel=11 note=74 velocity=0 time=0
note_on channel=12 note=71 velocity=0 time=0
note_on channel=0 note=79 velocity=0 time=0.19480524999999999
note_on channel=0 note=78 velocity=100 time=0
note_on channel=0 note=78 velocity=0 time=0.19480524999999999
note_on channel=0 note=76 velocity=100 time=0
note_on channel=5 note=62 velocity=0 time=0
note_on channel=5 note=64 velocity=100 time=0
note_on channel=6 note=59 velocity=0 time=0
note_on channel=6 note=61 velocity=100 time=0
note_on channel=7 note=55 velocity=0 time=0
note_on channel=8 note=43 velocity=0 time=0
note_on channel=8 note=45 velocity=100 time=0
note_on channel=9 note=33 velocity=60 time=0
note_on channel=10 note=43 velocity=0 time=0
note_on channel=10 note=45 velocity=100 time=0
note_on channel=11 note=73 velocity=100 time=0
note_on channel=12 note=69 velocity=100 time=0
note_on channel=9 note=33 velocity=0 time=0.19480524999999999
note_on channel=7 note=57 velocity=100 time=0.19480524999999999
note_on channel=9 note=33 velocity=60 time=0
note_on channel=9 note=33 velocity=0 time=0.19480524999999999
note_on channel=5 note=64 velocity=0 time=0.19480524999999999
note_on channel=5 note=64 velocity=100 time=0
note_on channel=6 note=61 velocity=0 time=0
note_on channel=6 note=61 velocity=100 time=0
note_on channel=9 note=35 velocity=100 time=0
note_on channel=11 note=73 velocity=0 time=0
note_on channel=11 note=76 velocity=100 time=0
note_on channel=12 note=69 velocity=0 time=0
note_on channel=12 note=73 velocity=100 time=0
note_on channel=0 note=76 velocity=0 time=0.38961049999999997
note_on channel=0 note=78 velocity=100 time=0
<meta message lyrics text='a ' time=0>
note_on channel=6 note=61 velocity=0 time=0
note_on channel=7 note=57 velocity=0 time=0
note_on channel=7 note=55 velocity=100 time=0
note_on channel=9 note=35 velocity=0 time=0
note_on channel=0 note=78 velocity=0 time=0.19480524999999999
note_on channel=0 note=78 velocity=100 time=0
<meta message lyrics text='no ' time=0>
note_on channel=0 note=78 velocity=0 time=0.19480524999999999
note_on channel=0 note=79 velocity=100 time=0
<meta message lyrics text='so ' time=0>
note_on channel=5 note=64 velocity=0 time=0
note_on channel=5 note=67 velocity=100 time=0
note_on channel=6 note=59 velocity=100 time=0
note_on channel=7 note=55 velocity=0 time=0
note_on channel=8 note=45 velocity=0 time=0
note_on channel=8 note=43 velocity=100 time=0
note_on channel=10 note=45 velocity=0 time=0
note_on channel=10 note=43 velocity=100 time=0
note_on channel=11 note=76 velocity=0 time=0
note_on channel=11 note=74 velocity=100 time=0
note_on channel=12 note=73 velocity=0 time=0
note_on channel=12 note=71 velocity=100 time=0
note_on channel=7 note=55 velocity=100 time=0.38961049999999997
note_on channel=9 note=33 velocity=60 time=0.19480524999999999
note_on channel=0 note=79 velocity=0 time=0.19480524999999999
note_on channel=0 note=74 velocity=100 time=0
<meta message lyrics text='ra ' time=0>
note_on channel=5 note=67 velocity=0 time=0
note_on channel=5 note=67 velocity=100 time=0
note_on channel=6 note=59 velocity=0 time=0
note_on channel=6 note=59 velocity=100 time=0
note_on channel=9 note=33 velocity=0 time=0
note_on channel=9 note=35 velocity=100 time=0
note_on channel=5 note=67 velocity=0 time=0.38961049999999997
note_on channel=5 note=62 velocity=100 time=0
note_on channel=7 note=55 velocity=0 time=0
note_on channel=7 note=55 velocity=100 time=0
note_on channel=8 note=43 velocity=0 time=0
note_on channel=8 note=43 velocity=100 time=0
note_on channel=9 note=35 velocity=0 time=0
note_on channel=10 note=43 velocity=0 time=0
note_on channel=10 note=43 velocity=100 time=0
note_on channel=0 note=74 velocity=0 time=0.38961049999999997
note_on channel=0 note=76 velocity=100 time=0
<meta message lyrics text='ni, ' time=0>
note_on channel=5 note=62 velocity=0 time=0
note_on channel=5 note=64 velocity=100 time=0
note_on channel=6 note=59 velocity=0 time=0
note_on channel=6 note=61 velocity=100 time=0
note_on channel=7 note=55 velocity=0 time=0
note_on channel=8 note=43 velocity=0 time=0
note_on channel=8 note=45 velocity=100 time=0
note_on channel=9 note=33 velocity=60 time=0
note_on channel=10 note=43 velocity=0 time=0
note_on channel=10 note=45 velocity=100 time=0
note_on channel=11 note=74 velocity=0 time=0
note_on channel=11 note=76 velocity=100 time=0
note_on channel=12 note=71 velocity=0 time=0
note_on channel=12 note=73 velocity=100 time=0
note_on channel=9 note=33 velocity=0 time=0.19480524999999999
note_on channel=7 note=57 velocity=100 time=0.19480524999999999
note_on channel=9 note=33 velocity=60 time=0
note_on channel=11 note=76 velocity=0 time=0
note_on channel=11 note=74 velocity=100 time=0
note_on channel=12 note=73 velocity=0 time=0
note_on channel=12 note=71 velocity=100 time=0
note_on channel=9 note=33 velocity=0 time=0.19480524999999999
note_on channel=5 note=64 velocity=0 time=0.19480524999999999
note_on channel=5 note=64 velocity=100 time=0
note_on channel=6 note=61 velocity=0 time=0
note_on channel=6 note=61 velocity=100 time=0
note_on channel=9 note=35 velocity=100 time=0
note_on channel=11 note=74 velocity=0 time=0
note_on channel=11 note=73 velocity=100 time=0
note_on channel=12 note=71 velocity=0 time=0
note_on channel=12 note=69 velocity=100 time=0
note_on channel=0 note=76 velocity=0 time=0.38961049999999997
note_on channel=0 note=78 velocity=100 time=0
<meta message lyrics text='ko ' time=0>
note_on channel=6 note=61 velocity=0 time=0
note_on channel=7 note=57 velocity=0 time=0
note_on channel=7 note=55 velocity=100 time=0
note_on channel=9 note=35 velocity=0 time=0
note_on channel=11 note=73 velocity=0 time=0
note_on channel=11 note=76 velocity=100 time=0
note_on channel=12 note=69 velocity=0 time=0
note_on channel=12 note=73 velocity=100 time=0
note_on channel=0 note=78 velocity=0 time=0.19480524999999999
note_on channel=0 note=78 velocity=100 time=0
<meta message lyrics text='i ' time=0>
note_on channel=0 note=78 velocity=0 time=0.19480524999999999
note_on channel=0 note=79 velocity=100 time=0
<meta message lyrics text='to ' time=0>
note_on channel=5 note=64 velocity=0 time=0
note_on channel=5 note=67 velocity=100 time=0
note_on channel=6 note=59 velocity=100 time=0
note_on channel=7 note=55 velocity=0 time=0
note_on channel=8 note=45 velocity=0 time=0
note_on channel=8 note=43 velocity=100 time=0
note_on channel=10 note=45 velocity=0 time=0
note_on channel=10 note=43 velocity=100 time=0
note_on channel=11 note=76 velocity=0 time=0
note_on channel=11 note=74 velocity=100 time=0
note_on channel=12 note=73 velocity=0 time=0
note_on channel=12 note=71 velocity=100 time=0
note_on channel=0 note=79 velocity=0 time=0.19480524999999999
note_on channel=0 note=79 velocity=100 time=0
<meta message lyrics text='ka ' time=0>
note_on channel=7 note=55 velocity=100 time=0.19480524999999999
note_on channel=9 note=33 velocity=60 time=0.19480524999999999
note_on channel=5 note=67 velocity=0 time=0.19480524999999999
note_on channel=5 note=67 velocity=100 time=0
note_on channel=6 note=59 velocity=0 time=0
note_on channel=6 note=59 velocity=100 time=0
note_on channel=9 note=33 velocity=0 time=0
note_on channel=9 note=35 velocity=100 time=0
note_on channel=5 note=67 velocity=0 time=0.38961049999999997
note_on channel=5 note=62 velocity=100 time=0
note_on channel=7 note=55 velocity=0 time=0
note_on channel=7 note=55 velocity=100 time=0
note_on channel=8 note=43 velocity=0 time=0
note_on channel=8 note=43 velocity=100 time=0
note_on channel=9 note=35 velocity=0 time=0
note_on channel=10 note=43 velocity=0 time=0
note_on channel=10 note=43 velocity=100 time=0
note_on channel=0 note=79 velocity=0 time=0.38961049999999997
note_on channel=0 note=76 velocity=100 time=0
<meta message lyrics text='shi ' time=0>
note_on channel=5 note=62 velocity=0 time=0
note_on channel=5 note=64 velocity=100 time=0
note_on channel=6 note=59 velocity=0 time=0
note_on channel=6 note=61 velocity=100 time=0
note_on channel=7 note=55 velocity=0 time=0
note_on channel=8 note=43 velocity=0 time=0
note_on channel=8 note=45 velocity=100 time=0
note_on channel=10 note=43 velocity=0 time=0
note_on channel=10 note=45 velocity=100 time=0
note_on channel=11 note=74 velocity=0 time=0
note_on channel=11 note=76 velocity=100 time=0
note_on channel=12 note=71 velocity=0 time=0
note_on channel=12 note=73 velocity=100 time=0
note_on channel=7 note=57 velocity=100 time=0.38961049999999997
note_on channel=9 note=33 velocity=60 time=0.19480524999999999
note_on channel=0 note=76 velocity=0 time=0.19480524999999999
note_on channel=0 note=74 velocity=100 time=0
<meta message lyrics text='na ' time=0>
note_on channel=5 note=64 velocity=0 time=0
note_on channel=5 note=64 velocity=100 time=0
note_on channel=6 note=61 velocity=0 time=0
note_on channel=6 note=61 velocity=100 time=0
note_on channel=8 note=45 velocity=0 time=0
note_on channel=8 note=47 velocity=100 time=0
note_on channel=9 note=33 velocity=0 time=0
note_on channel=9 note=35 velocity=100 time=0
note_on channel=0 note=74 velocity=0 time=0.38961049999999997
note_on channel=0 note=73 velocity=100 time=0
<meta message lyrics text='ga ' time=0>
note_on channel=6 note=61 velocity=0 time=0
note_on channel=7 note=57 velocity=0 time=0
note_on channel=7 note=57 velocity=100 time=0
note_on channel=8 note=47 velocity=0 time=0
note_on channel=8 note=49 velocity=100 time=0
note_on channel=9 note=35 velocity=0 time=0
note_on channel=0 note=73 velocity=0 time=0.19480524999999999
note_on channel=0 note=74 velocity=100 time=0
<meta message lyrics text='ra... ' time=0>
note_on channel=5 note=64 velocity=0 time=0.19480524999999999
note_on channel=7 note=57 velocity=0 time=0
note_on channel=8 note=49 velocity=0 time=0
note_on channel=8 note=50 velocity=100 time=0
note_on channel=10 note=45 velocity=0 time=0
note_on channel=10 note=50 velocity=100 time=0
note_on channel=11 note=76 velocity=0 time=0
note_on channel=11 note=81 velocity=100 time=0
note_on channel=12 note=73 velocity=0 time=0
note_on channel=12 note=78 velocity=100 time=0
note_on channel=7 note=57 velocity=100 time=0.38961049999999997
note_on channel=12 note=78 velocity=0 time=0
note_on channel=12 note=76 velocity=100 time=0
note_on channel=9 note=33 velocity=60 time=0.19480524999999999
note_on channel=6 note=62 velocity=100 time=0.19480524999999999
note_on channel=9 note=33 velocity=0 time=0
note_on channel=9 note=35 velocity=100 time=0
note_on channel=12 note=76 velocity=0 time=0
note_on channel=12 note=78 velocity=100 time=0
note_on channel=7 note=57 velocity=0 time=0.38961049999999997
note_on channel=7 note=57 velocity=100 time=0
note_on channel=8 note=50 velocity=0 time=0
note_on channel=8 note=45 velocity=100 time=0
note_on channel=9 note=35 velocity=0 time=0
note_on channel=10 note=50 velocity=0 time=0
note_on channel=10 note=45 velocity=100 time=0
note_on channel=12 note=78 velocity=0 time=0
note_on channel=12 note=76 velocity=100 time=0
note_on channel=6 note=62 velocity=0 time=0.38961049999999997
note_on channel=7 note=57 velocity=0 time=0
note_on channel=8 note=45 velocity=0 time=0
note_on channel=8 note=50 velocity=100 time=0
note_on channel=10 note=45 velocity=0 time=0
note_on channel=10 note=50 velocity=100 time=0
note_on channel=12 note=76 velocity=0 time=0
note_on channel=12 note=74 velocity=100 time=0
note_on channel=7 note=57 velocity=100 time=0.045454558333333325
note_on channel=6 note=62 velocity=100 time=0.045454558333333325
note_on channel=5 note=66 velocity=100 time=0.045454558333333325
note_on channel=0 note=74 velocity=0 time=0.6428573249999999
note_on channel=0 note=78 velocity=100 time=0.7792209999999999
<meta message lyrics text='Chi ' time=0>
note_on channel=2 note=69 velocity=100 time=0
note_on channel=3 note=66 velocity=100 time=0
note_on channel=4 note=62 velocity=100 time=0
note_on channel=5 note=66 velocity=0 time=0
note_on channel=6 note=62 velocity=0 time=0
note_on channel=7 note=57 velocity=0 time=0
note_on channel=8 note=50 velocity=0 time=0
note_on channel=8 note=50 velocity=100 time=0
note_on channel=10 note=50 velocity=0 time=0
note_on channel=10 note=50 velocity=100 time=0
note_on channel=11 note=81 velocity=0 time=0
note_on channel=12 note=74 velocity=0 time=0
note_on channel=13 note=50 velocity=100 time=0
note_on channel=15 note=50 velocity=100 time=0
note_on channel=0 note=78 velocity=0 time=0.19480524999999999
note_on channel=0 note=78 velocity=100 time=0
<meta message lyrics text='ka ' time=0>
note_on channel=0 note=78 velocity=0 time=0.19480524999999999
note_on channel=0 note=78 velocity=100 time=0
<meta message lyrics text='ra ' time=0>
note_on channel=2 note=69 velocity=0 time=0
note_on channel=3 note=66 velocity=0 time=0
note_on channel=4 note=62 velocity=0 time=0
note_on channel=7 note=57 velocity=100 time=0
note_on channel=0 note=78 velocity=0 time=0.19480524999999999
note_on channel=0 note=78 velocity=100 time=0
<meta message lyrics text='a ' time=0>
note_on channel=0 note=78 velocity=0 time=0.19480524999999999
note_on channel=0 note=78 velocity=100 time=0
<meta message lyrics text='wa ' time=0>
note_on channel=2 note=69 velocity=100 time=0
note_on channel=3 note=66 velocity=100 time=0
note_on channel=4 note=62 velocity=100 time=0
note_on channel=5 note=66 velocity=100 time=0
note_on channel=6 note=62 velocity=100 time=0
note_on channel=9 note=77 velocity=100 time=0
note_on channel=0 note=78 velocity=0 time=0.38961049999999997
note_on channel=0 note=79 velocity=100 time=0
<meta message lyrics text='se ' time=0>
note_on channel=2 note=69 velocity=0 time=0
note_on channel=3 note=66 velocity=0 time=0
note_on channel=4 note=62 velocity=0 time=0
note_on channel=7 note=57 velocity=0 time=0
note_on channel=7 note=57 velocity=100 time=0
note_on channel=9 note=77 velocity=0 time=0
note_on channel=0 note=79 velocity=0 time=0.19480524999999999
note_on channel=0 note=81 velocity=100 time=0
<meta message lyrics text='te ' time=0>
note_on channel=2 note=69 velocity=100 time=0.19480524999999999
note_on channel=3 note=66 velocity=100 time=0
note_on channel=4 note=62 velocity=100 time=0
note_on channel=5 note=66 velocity=0 time=0
note_on channel=6 note=62 velocity=0 time=0
note_on channel=7 note=57 velocity=0 time=0
note_on channel=8 note=50 velocity=0 time=0
note_on channel=8 note=45 velocity=100 time=0
note_on channel=9 note=35 velocity=100 time=0
note_on channel=10 note=50 velocity=0 time=0
note_on channel=10 note=45 velocity=100 time=0
note_on channel=13 note=50 velocity=0 time=0
note_on channel=13 note=54 velocity=100 time=0
note_on channel=15 note=50 velocity=0 time=0
note_on channel=15 note=45 velocity=100 time=0
note_on channel=0 note=81 velocity=0 time=0.19480524999999999
note_on channel=0 note=81 velocity=100 time=0.19480524999999999
<meta message lyrics text='ta ' time=0>
note_on channel=2 note=69 velocity=0 time=0
note_on channel=3 note=66 velocity=0 time=0
note_on channel=4 note=62 velocity=0 time=0
note_on channel=7 note=57 velocity=100 time=0
note_on channel=9 note=35 velocity=0 time=0
note_on channel=0 note=81 velocity=0 time=0.19480524999999999
note_on channel=0 note=81 velocity=100 time=0
<meta message lyrics text='ta ' time=0>
note_on channel=0 note=81 velocity=0 time=0.19480524999999999
note_on channel=0 note=81 velocity=100 time=0
<meta message lyrics text='ka ' time=0>
note_on channel=2 note=69 velocity=100 time=0
note_on channel=3 note=66 velocity=100 time=0
note_on channel=4 note=62 velocity=100 time=0
note_on channel=5 note=66 velocity=100 time=0
note_on channel=6 note=62 velocity=100 time=0
note_on channel=0 note=81 velocity=0 time=0.38961049999999997
note_on channel=0 note=81 velocity=100 time=0
note_on channel=2 note=69 velocity=0 time=0
note_on channel=3 note=66 velocity=0 time=0
note_on channel=4 note=62 velocity=0 time=0
note_on channel=5 note=66 velocity=0 time=0
note_on channel=6 note=62 velocity=0 time=0
note_on channel=7 note=57 velocity=0 time=0
note_on channel=7 note=57 velocity=100 time=0
note_on channel=0 note=81 velocity=0 time=0.19480524999999999
note_on channel=0 note=83 velocity=100 time=0
<meta message lyrics text='te ' time=0>
note_on channel=2 note=71 velocity=100 time=0.19480524999999999
note_on channel=3 note=67 velocity=100 time=0
note_on channel=4 note=62 velocity=100 time=0
note_on channel=7 note=57 velocity=0 time=0
note_on channel=8 note=45 velocity=0 time=0
note_on channel=8 note=43 velocity=100 time=0
note_on channel=10 note=45 velocity=0 time=0
note_on channel=10 note=43 velocity=100 time=0
note_on channel=13 note=54 velocity=0 time=0
note_on channel=13 note=50 velocity=100 time=0
note_on channel=15 note=45 velocity=0 time=0
note_on channel=15 note=43 velocity=100 time=0
note_on channel=0 note=83 velocity=0 time=0.19480524999999999
note_on channel=0 note=83 velocity=100 time=0.19480524999999999
<meta message lyrics text='ta ' time=0>
note_on channel=2 note=71 velocity=0 time=0
note_on channel=3 note=67 velocity=0 time=0
note_on channel=4 note=62 velocity=0 time=0
note_on channel=7 note=55 velocity=100 time=0
note_on channel=0 note=83 velocity=0 time=0.19480524999999999
note_on channel=0 note=79 velocity=100 time=0
<meta message lyrics text='be ' time=0>
note_on channel=2 note=67 velocity=100 time=0.19480524999999999
note_on channel=3 note=67 velocity=100 time=0
note_on channel=4 note=62 velocity=100 time=0
note_on channel=5 note=67 velocity=100 time=0
note_on channel=6 note=59 velocity=100 time=0
note_on channel=9 note=77 velocity=100 time=0
note_on channel=0 note=79 velocity=0 time=0.19480524999999999
note_on channel=0 note=79 velocity=100 time=0
<meta message lyrics text='ra ' time=0>
note_on channel=0 note=79 velocity=0 time=0.19480524999999999
note_on channel=0 note=78 velocity=100 time=0
<meta message lyrics text='re ' time=0>
note_on channel=2 note=67 velocity=0 time=0
note_on channel=3 note=67 velocity=0 time=0
note_on channel=4 note=62 velocity=0 time=0
note_on channel=7 note=55 velocity=0 time=0
note_on channel=7 note=55 velocity=100 time=0
note_on channel=9 note=77 velocity=0 time=0
note_on channel=0 note=78 velocity=0 time=0.19480524999999999
note_on channel=0 note=79 velocity=100 time=0
<meta message lyrics text='te, ' time=0>
note_on channel=2 note=71 velocity=100 time=0.19480524999999999
note_on channel=3 note=67 velocity=100 time=0
note_on channel=4 note=62 velocity=100 time=0
note_on channel=5 note=67 velocity=0 time=0
note_on channel=6 note=59 velocity=0 time=0
note_on channel=7 note=55 velocity=0 time=0
note_on channel=8 note=43 velocity=0 time=0
note_on channel=8 note=50 velocity=100 time=0
note_on channel=9 note=35 velocity=100 time=0
note_on channel=2 note=71 velocity=0 time=0.38961049999999997
note_on channel=3 note=67 velocity=0 time=0
note_on channel=4 note=62 velocity=0 time=0
note_on channel=7 note=55 velocity=100 time=0
note_on channel=9 note=35 velocity=0 time=0
note_on channel=0 note=79 velocity=0 time=0.19480524999999999
note_on channel=0 note=74 velocity=100 time=0.19480524999999999
<meta message lyrics text='de ' time=0>
note_on channel=2 note=71 velocity=100 time=0
note_on channel=3 note=67 velocity=100 time=0
note_on channel=4 note=62 velocity=100 time=0
note_on channel=5 note=67 velocity=100 time=0
note_on channel=6 note=59 velocity=100 time=0
note_on channel=10 note=43 velocity=0 time=0
note_on channel=10 note=43 velocity=100 time=0
note_on channel=0 note=74 velocity=0 time=0.38961049999999997
note_on channel=0 note=76 velocity=100 time=0
<meta message lyrics text='mo ' time=0>
note_on channel=2 note=71 velocity=0 time=0
note_on channel=3 note=67 velocity=0 time=0
note_on channel=4 note=62 velocity=0 time=0
note_on channel=5 note=67 velocity=0 time=0
note_on channel=6 note=59 velocity=0 time=0
note_on channel=7 note=55 velocity=0 time=0
note_on channel=7 note=55 velocity=100 time=0
note_on channel=0 note=76 velocity=0 time=0.38961049999999997
note_on channel=0 note=78 velocity=100 time=0
<meta message lyrics text='wa ' time=0>
note_on channel=2 note=71 velocity=100 time=0
note_on channel=3 note=66 velocity=100 time=0
note_on channel=4 note=62 velocity=100 time=0
note_on channel=7 note=55 velocity=0 time=0
note_on channel=8 note=50 velocity=0 time=0
note_on channel=8 note=47 velocity=100 time=0
note_on channel=10 note=43 velocity=0 time=0
note_on channel=10 note=47 velocity=100 time=0
note_on channel=13 note=50 velocity=0 time=0
note_on channel=13 note=54 velocity=100 time=0
note_on channel=15 note=43 velocity=0 time=0
note_on channel=15 note=47 velocity=100 time=0
note_on channel=0 note=78 velocity=0 time=0.19480524999999999
note_on channel=0 note=78 velocity=100 time=0
<meta message lyrics text='ta ' time=0>
note_on channel=0 note=78 velocity=0 time=0.19480524999999999
note_on channel=0 note=78 velocity=100 time=0
<meta message lyrics text='shi ' time=0>
note_on channel=2 note=71 velocity=0 time=0
note_on channel=3 note=66 velocity=0 time=0
note_on channel=4 note=62 velocity=0 time=0
note_on channel=7 note=59 velocity=100 time=0
note_on channel=0 note=78 velocity=0 time=0.19480524999999999
note_on channel=0 note=78 velocity=100 time=0
<meta message lyrics text='ta ' time=0>
note_on channel=2 note=71 velocity=100 time=0.19480524999999999
note_on channel=3 note=66 velocity=100 time=0
note_on channel=4 note=62 velocity=100 time=0
note_on channel=5 note=66 velocity=100 time=0
note_on channel=6 note=62 velocity=100 time=0
note_on channel=9 note=77 velocity=100 time=0
note_on channel=2 note=71 velocity=0 time=0.38961049999999997
note_on channel=3 note=66 velocity=0 time=0
note_on channel=4 note=62 velocity=0 time=0
note_on channel=7 note=59 velocity=0 time=0
note_on channel=7 note=59 velocity=100 time=0
note_on channel=9 note=77 velocity=0 time=0
note_on channel=0 note=78 velocity=0 time=0.19480524999999999
note_on channel=0 note=78 velocity=100 time=0
<meta message lyrics text='chi ' time=0>
note_on channel=0 note=78 velocity=0 time=0.19480524999999999
note_on channel=0 note=78 velocity=100 time=0
<meta message lyrics text='a ' time=0>
note_on channel=2 note=70 velocity=100 time=0
note_on channel=3 note=66 velocity=100 time=0
note_on channel=4 note=61 velocity=100 time=0
note_on channel=5 note=66 velocity=0 time=0
note_on channel=6 note=62 velocity=0 time=0
note_on channel=7 note=59 velocity=0 time=0
note_on channel=8 note=47 velocity=0 time=0
note_on channel=8 note=42 velocity=100 time=0
note_on channel=9 note=35 velocity=100 time=0
note_on channel=10 note=47 velocity=0 time=0
note_on channel=10 note=42 velocity=100 time=0
note_on channel=13 note=54 velocity=0 time=0
note_on channel=13 note=49 velocity=100 time=0
note_on channel=15 note=47 velocity=0 time=0
note_on channel=15 note=42 velocity=100 time=0
note_on channel=0 note=78 velocity=0 time=0.19480524999999999
note_on channel=0 note=78 velocity=100 time=0
<meta message lyrics text='na ' time=0>
note_on channel=0 note=78 velocity=0 time=0.19480524999999999
note_on channel=0 note=78 velocity=100 time=0
<meta message lyrics text='ta ' time=0>
note_on channel=2 note=70 velocity=0 time=0
note_on channel=3 note=66 velocity=0 time=0
note_on channel=4 note=61 velocity=0 time=0
note_on channel=7 note=58 velocity=100 time=0
note_on channel=9 note=35 velocity=0 time=0
note_on channel=0 note=78 velocity=0 time=0.19480524999999999
note_on channel=0 note=76 velocity=100 time=0
<meta message lyrics text='ni ' time=0>
note_on channel=0 note=76 velocity=0 time=0.19480524999999999
note_on channel=0 note=76 velocity=100 time=0
<meta message lyrics text='shi ' time=0>
note_on channel=2 note=70 velocity=100 time=0
note_on channel=3 note=66 velocity=100 time=0
note_on channel=4 note=61 velocity=100 time=0
note_on channel=5 note=66 velocity=100 time=0
note_on channel=6 note=61 velocity=100 time=0
note_on channel=9 note=77 velocity=100 time=0
note_on channel=0 note=76 velocity=0 time=0.19480524999999999
note_on channel=0 note=76 velocity=100 time=0
<meta message lyrics text='ta ' time=0>
note_on channel=0 note=76 velocity=0 time=0.19480524999999999
note_on channel=0 note=78 velocity=100 time=0
<meta message lyrics text='ga ' time=0>
note_on channel=2 note=70 velocity=0 time=0
note_on channel=3 note=66 velocity=0 time=0
note_on channel=4 note=61 velocity=0 time=0
note_on channel=7 note=58 velocity=0 time=0
note_on channel=7 note=58 velocity=100 time=0
note_on channel=9 note=77 velocity=0 time=0
note_on channel=0 note=78 velocity=0 time=0.19480524999999999
note_on channel=0 note=76 velocity=100 time=0
<meta message lyrics text='u ' time=0>
note_on channel=0 note=76 velocity=0 time=0.19480524999999999
note_on channel=0 note=76 velocity=100 time=0
<meta message lyrics text='tsu ' time=0>
note_on channel=2 note=71 velocity=100 time=0
note_on channel=3 note=67 velocity=100 time=0
note_on channel=4 note=62 velocity=100 time=0
note_on channel=5 note=66 velocity=0 time=0
note_on channel=6 note=61 velocity=0 time=0
note_on channel=7 note=58 velocity=0 time=0
note_on channel=8 note=42 velocity=0 time=0
note_on channel=8 note=43 velocity=100 time=0
note_on channel=9 note=35 velocity=100 time=0
note_on channel=9 note=77 velocity=100 time=0
note_on channel=10 note=42 velocity=0 time=0
note_on channel=10 note=43 velocity=100 time=0
note_on channel=13 note=49 velocity=0 time=0
note_on channel=13 note=50 velocity=100 time=0
note_on channel=15 note=42 velocity=0 time=0
note_on channel=15 note=43 velocity=100 time=0
note_on channel=0 note=76 velocity=0 time=0.19480524999999999
note_on channel=0 note=78 velocity=100 time=0
<meta message lyrics text='ku ' time=0>
note_on channel=2 note=71 velocity=0 time=0.19480524999999999
note_on channel=3 note=67 velocity=0 time=0
note_on channel=4 note=62 velocity=0 time=0
note_on channel=5 note=67 velocity=100 time=0
note_on channel=6 note=59 velocity=100 time=0
note_on channel=7 note=55 velocity=100 time=0
note_on channel=9 note=77 velocity=0 time=0
note_on channel=9 note=35 velocity=0 time=0
note_on channel=0 note=78 velocity=0 time=0.38961049999999997
note_on channel=0 note=76 velocity=100 time=0
<meta message lyrics text='shi ' time=0>
note_on channel=2 note=69 velocity=100 time=0
note_on channel=3 note=64 velocity=100 time=0
note_on channel=4 note=64 velocity=100 time=0
note_on channel=5 note=67 velocity=0 time=0
note_on channel=6 note=59 velocity=0 time=0
note_on channel=7 note=55 velocity=0 time=0
note_on channel=8 note=43 velocity=0 time=0
note_on channel=8 note=45 velocity=100 time=0
note_on channel=9 note=35 velocity=100 time=0
note_on channel=9 note=77 velocity=100 time=0
note_on channel=10 note=43 velocity=0 time=0
note_on channel=10 note=45 velocity=100 time=0
note_on channel=13 note=50 velocity=0 time=0
note_on channel=13 note=52 velocity=100 time=0
note_on channel=15 note=43 velocity=0 time=0
note_on channel=15 note=45 velocity=100 time=0
note_on channel=0 note=76 velocity=0 time=0.19480524999999999
note_on channel=0 note=74 velocity=100 time=0
<meta message lyrics text='ma ' time=0>
note_on channel=0 note=74 velocity=0 time=0.19480524999999999
note_on channel=0 note=74 velocity=100 time=0
<meta message lyrics text='su. ' time=0>
note_on channel=2 note=69 velocity=0 time=0
note_on channel=3 note=64 velocity=0 time=0
note_on channel=4 note=64 velocity=0 time=0
note_on channel=5 note=64 velocity=100 time=0
note_on channel=6 note=61 velocity=100 time=0
note_on channel=7 note=57 velocity=100 time=0
note_on channel=9 note=77 velocity=0 time=0
note_on channel=9 note=35 velocity=0 time=0
note_on channel=2 note=69 velocity=100 time=0.38961049999999997
note_on channel=3 note=66 velocity=100 time=0
note_on channel=4 note=62 velocity=100 time=0
note_on channel=5 note=64 velocity=0 time=0
note_on channel=6 note=61 velocity=0 time=0
note_on channel=7 note=57 velocity=0 time=0
note_on channel=8 note=45 velocity=0 time=0
note_on channel=8 note=50 velocity=100 time=0
note_on channel=10 note=45 velocity=0 time=0
note_on channel=10 note=50 velocity=100 time=0
note_on channel=13 note=52 velocity=0 time=0
note_on channel=13 note=50 velocity=100 time=0
note_on channel=15 note=45 velocity=0 time=0
note_on channel=15 note=38 velocity=100 time=0
note_on channel=2 note=69 velocity=0 time=0.38961049999999997
note_on channel=3 note=66 velocity=0 time=0
note_on channel=4 note=62 velocity=0 time=0
note_on channel=7 note=57 velocity=100 time=0
note_on channel=2 note=69 velocity=100 time=0.38961049999999997
note_on channel=3 note=66 velocity=100 time=0
note_on channel=4 note=62 velocity=100 time=0
note_on channel=5 note=66 velocity=100 time=0
note_on channel=6 note=62 velocity=100 time=0
note_on channel=9 note=35 velocity=100 time=0
note_on channel=0 note=74 velocity=0 time=0.38961049999999997
note_on channel=2 note=69 velocity=0 time=0
note_on channel=3 note=66 velocity=0 time=0
note_on channel=4 note=62 velocity=0 time=0
note_on channel=7 note=57 velocity=0 time=0
note_on channel=7 note=57 velocity=100 time=0
note_on channel=8 note=50 velocity=0 time=0
note_on channel=8 note=45 velocity=100 time=0
note_on channel=9 note=35 velocity=0 time=0
note_on channel=2 note=69 velocity=100 time=0.38961049999999997
note_on channel=3 note=66 velocity=100 time=0
note_on channel=4 note=62 velocity=100 time=0
note_on channel=5 note=66 velocity=0 time=0
note_on channel=6 note=62 velocity=0 time=0
note_on channel=7 note=57 velocity=0 time=0
note_on channel=8 note=45 velocity=0 time=0
note_on channel=8 note=50 velocity=100 time=0
note_on channel=9 note=69 velocity=60 time=0
note_on channel=10 note=50 velocity=0 time=0
note_on channel=10 note=50 velocity=100 time=0
note_on channel=13 note=57 velocity=100 time=0
note_on channel=13 note=50 velocity=0 time=0
note_on channel=13 note=50 velocity=100 time=0
note_on channel=15 note=38 velocity=0 time=0
note_on channel=15 note=50 velocity=100 time=0
note_on channel=0 note=78 velocity=100 time=0.19480524999999999
<meta message lyrics text='Ta ' time=0>
note_on channel=0 note=78 velocity=0 time=0.19480524999999999
note_on channel=0 note=78 velocity=100 time=0
<meta message lyrics text='chi ' time=0>
note_on channel=2 note=69 velocity=0 time=0
note_on channel=3 note=66 velocity=0 time=0
note_on channel=4 note=62 velocity=0 time=0
note_on channel=7 note=57 velocity=100 time=0
note_on channel=9 note=69 velocity=0 time=0
note_on channel=9 note=69 velocity=60 time=0
note_on channel=0 note=78 velocity=0 time=0.19480524999999999
note_on channel=0 note=78 velocity=100 time=0
<meta message lyrics text='nu ' time=0>
note_on channel=0 note=78 velocity=0 time=0.19480524999999999
note_on channel=0 note=78 velocity=100 time=0
<meta message lyrics text='ka ' time=0>
note_on channel=2 note=69 velocity=100 time=0
note_on channel=3 note=66 velocity=100 time=0
note_on channel=4 note=62 velocity=100 time=0
note_on channel=5 note=66 velocity=100 time=0
note_on channel=6 note=62 velocity=100 time=0
note_on channel=9 note=69 velocity=0 time=0
note_on channel=9 note=69 velocity=60 time=0
note_on channel=9 note=77 velocity=100 time=0
note_on channel=0 note=78 velocity=0 time=0.38961049999999997
note_on channel=0 note=79 velocity=100 time=0
note_on channel=2 note=69 velocity=0 time=0
note_on channel=3 note=66 velocity=0 time=0
note_on channel=4 note=62 velocity=0 time=0
note_on channel=7 note=57 velocity=0 time=0
note_on channel=7 note=57 velocity=100 time=0
note_on channel=9 note=77 velocity=0 time=0
note_on channel=9 note=69 velocity=0 time=0
note_on channel=0 note=79 velocity=0 time=0.19480524999999999
note_on channel=0 note=81 velocity=100 time=0
<meta message lyrics text='te ' time=0>
note_on channel=2 note=69 velocity=100 time=0.19480524999999999
note_on channel=3 note=66 velocity=100 time=0
note_on channel=4 note=62 velocity=100 time=0
note_on channel=5 note=66 velocity=0 time=0
note_on channel=6 note=62 velocity=0 time=0
note_on channel=7 note=57 velocity=0 time=0
note_on channel=8 note=50 velocity=0 time=0
note_on channel=8 note=45 velocity=100 time=0
note_on channel=9 note=35 velocity=100 time=0
note_on channel=10 note=50 velocity=0 time=0
note_on channel=10 note=45 velocity=100 time=0
note_on channel=13 note=57 velocity=0 time=0
note_on channel=13 note=62 velocity=100 time=0
note_on channel=13 note=50 velocity=0 time=0
note_on channel=13 note=54 velocity=100 time=0
note_on channel=15 note=50 velocity=0 time=0
note_on channel=15 note=45 velocity=100 time=0
note_on channel=0 note=81 velocity=0 time=0.19480524999999999
note_on channel=0 note=81 velocity=100 time=0.19480524999999999
<meta message lyrics text='ta ' time=0>
note_on channel=2 note=69 velocity=0 time=0
note_on channel=3 note=66 velocity=0 time=0
note_on channel=4 note=62 velocity=0 time=0
note_on channel=7 note=57 velocity=100 time=0
note_on channel=9 note=35 velocity=0 time=0
note_on channel=0 note=81 velocity=0 time=0.19480524999999999
note_on channel=0 note=81 velocity=100 time=0
<meta message lyrics text='ma ' time=0>
note_on channel=2 note=69 velocity=100 time=0.19480524999999999
note_on channel=3 note=66 velocity=100 time=0
note_on channel=4 note=62 velocity=100 time=0
note_on channel=5 note=66 velocity=100 time=0
note_on channel=6 note=62 velocity=100 time=0
note_on channel=0 note=81 velocity=0 time=0.38961049999999997
note_on channel=0 note=81 velocity=100 time=0
note_on channel=2 note=69 velocity=0 time=0
note_on channel=3 note=66 velocity=0 time=0
note_on channel=4 note=62 velocity=0 time=0
note_on channel=5 note=66 velocity=0 time=0
note_on channel=6 note=62 velocity=0 time=0
note_on channel=7 note=57 velocity=0 time=0
note_on channel=7 note=57 velocity=100 time=0
note_on channel=0 note=81 velocity=0 time=0.19480524999999999
note_on channel=0 note=83 velocity=100 time=0
<meta message lyrics text='te ' time=0>
note_on channel=2 note=71 velocity=100 time=0.19480524999999999
note_on channel=3 note=67 velocity=100 time=0
note_on channel=4 note=62 velocity=100 time=0
note_on channel=7 note=57 velocity=0 time=0
note_on channel=8 note=45 velocity=0 time=0
note_on channel=8 note=43 velocity=100 time=0
note_on channel=9 note=69 velocity=60 time=0
note_on channel=10 note=45 velocity=0 time=0
note_on channel=10 note=43 velocity=100 time=0
note_on channel=13 note=62 velocity=0 time=0
note_on channel=13 note=59 velocity=100 time=0
note_on channel=13 note=54 velocity=0 time=0
note_on channel=13 note=50 velocity=100 time=0
note_on channel=15 note=45 velocity=0 time=0
note_on channel=15 note=43 velocity=100 time=0
note_on channel=0 note=83 velocity=0 time=0.19480524999999999
note_on channel=0 note=83 velocity=100 time=0.19480524999999999
<meta message lyrics text='tsu ' time=0>
note_on channel=2 note=71 velocity=0 time=0
note_on channel=3 note=67 velocity=0 time=0
note_on channel=4 note=62 velocity=0 time=0
note_on channel=7 note=55 velocity=100 time=0
note_on channel=9 note=69 velocity=0 time=0
note_on channel=9 note=69 velocity=60 time=0
note_on channel=0 note=83 velocity=0 time=0.19480524999999999
note_on channel=0 note=79 velocity=100 time=0
<meta message lyrics text='i ' time=0>
note_on channel=0 note=79 velocity=0 time=0.19480524999999999
note_on channel=0 note=79 velocity=100 time=0
<meta message lyrics text='te ' time=0>
note_on channel=2 note=71 velocity=100 time=0
note_on channel=3 note=67 velocity=100 time=0
note_on channel=4 note=62 velocity=100 time=0
note_on channel=5 note=67 velocity=100 time=0
note_on channel=6 note=59 velocity=100 time=0
note_on channel=9 note=69 velocity=0 time=0
note_on channel=9 note=69 velocity=60 time=0
note_on channel=9 note=77 velocity=100 time=0
note_on channel=0 note=79 velocity=0 time=0.38961049999999997
note_on channel=0 note=78 velocity=100 time=0
note_on channel=2 note=71 velocity=0 time=0
note_on channel=3 note=67 velocity=0 time=0
note_on channel=4 note=62 velocity=0 time=0
note_on channel=7 note=55 velocity=0 time=0
note_on channel=7 note=55 velocity=100 time=0
note_on channel=9 note=77 velocity=0 time=0
note_on channel=9 note=69 velocity=0 time=0
note_on channel=0 note=78 velocity=0 time=0.19480524999999999
note_on channel=0 note=79 velocity=100 time=0
<meta message lyrics text='te, ' time=0>
note_on channel=2 note=71 velocity=100 time=0.19480524999999999
note_on channel=3 note=67 velocity=100 time=0
note_on channel=4 note=62 velocity=100 time=0
note_on channel=5 note=67 velocity=0 time=0
note_on channel=6 note=59 velocity=0 time=0
note_on channel=7 note=55 velocity=0 time=0
note_on channel=8 note=43 velocity=0 time=0
note_on channel=8 note=50 velocity=100 time=0
note_on channel=9 note=35 velocity=100 time=0
note_on channel=2 note=71 velocity=0 time=0.38961049999999997
note_on channel=3 note=67 velocity=0 time=0
note_on channel=4 note=62 velocity=0 time=0
note_on channel=7 note=55 velocity=100 time=0
note_on channel=9 note=35 velocity=0 time=0
note_on channel=13 note=59 velocity=0 time=0
note_on channel=13 note=61 velocity=100 time=0
note_on channel=0 note=79 velocity=0 time=0.19480524999999999
note_on channel=0 note=74 velocity=100 time=0.19480524999999999
<meta message lyrics text='de ' time=0>
note_on channel=2 note=71 velocity=100 time=0
note_on channel=3 note=67 velocity=100 time=0
note_on channel=4 note=62 velocity=100 time=0
note_on channel=5 note=67 velocity=100 time=0
note_on channel=6 note=59 velocity=100 time=0
note_on channel=10 note=43 velocity=0 time=0
note_on channel=10 note=43 velocity=100 time=0
note_on channel=13 note=61 velocity=0 time=0
note_on channel=13 note=62 velocity=100 time=0
note_on channel=0 note=74 velocity=0 time=0.38961049999999997
note_on channel=0 note=76 velocity=100 time=0
<meta message lyrics text='mo ' time=0>
note_on channel=2 note=71 velocity=0 time=0
note_on channel=3 note=67 velocity=0 time=0
note_on channel=4 note=62 velocity=0 time=0
note_on channel=5 note=67 velocity=0 time=0
note_on channel=6 note=59 velocity=0 time=0
note_on channel=7 note=55 velocity=0 time=0
note_on channel=7 note=55 velocity=100 time=0
note_on channel=13 note=62 velocity=0 time=0
note_on channel=13 note=64 velocity=100 time=0
note_on channel=0 note=76 velocity=0 time=0.38961049999999997
note_on channel=0 note=78 velocity=100 time=0
<meta message lyrics text='wa ' time=0>
note_on channel=2 note=71 velocity=100 time=0
note_on channel=3 note=66 velocity=100 time=0
note_on channel=4 note=62 velocity=100 time=0
note_on channel=7 note=55 velocity=0 time=0
note_on channel=8 note=50 velocity=0 time=0
note_on channel=8 note=47 velocity=100 time=0
note_on channel=9 note=69 velocity=60 time=0
note_on channel=10 note=43 velocity=0 time=0
note_on channel=10 note=47 velocity=100 time=0
note_on channel=13 note=64 velocity=0 time=0
note_on channel=13 note=62 velocity=100 time=0
note_on channel=13 note=50 velocity=0 time=0
note_on channel=13 note=54 velocity=100 time=0
note_on channel=15 note=43 velocity=0 time=0
note_on channel=15 note=47 velocity=100 time=0
note_on channel=0 note=78 velocity=0 time=0.19480524999999999
note_on channel=0 note=78 velocity=100 time=0
<meta message lyrics text='ta ' time=0>
note_on channel=0 note=78 velocity=0 time=0.19480524999999999
note_on channel=0 note=78 velocity=100 time=0
<meta message lyrics text='shi ' time=0>
note_on channel=2 note=71 velocity=0 time=0
note_on channel=3 note=66 velocity=0 time=0
note_on channel=4 note=62 velocity=0 time=0
note_on channel=7 note=59 velocity=100 time=0
note_on channel=9 note=69 velocity=0 time=0
note_on channel=9 note=69 velocity=60 time=0
note_on channel=0 note=78 velocity=0 time=0.19480524999999999
note_on channel=0 note=78 velocity=100 time=0
<meta message lyrics text='ta ' time=0>
note_on channel=2 note=71 velocity=100 time=0.19480524999999999
note_on channel=3 note=66 velocity=100 time=0
note_on channel=4 note=62 velocity=100 time=0
note_on channel=5 note=66 velocity=100 time=0
note_on channel=6 note=62 velocity=100 time=0
note_on channel=9 note=69 velocity=0 time=0
note_on channel=9 note=69 velocity=60 time=0
note_on channel=9 note=77 velocity=100 time=0
note_on channel=2 note=71 velocity=0 time=0.38961049999999997
note_on channel=3 note=66 velocity=0 time=0
note_on channel=4 note=62 velocity=0 time=0
note_on channel=7 note=59 velocity=0 time=0
note_on channel=7 note=59 velocity=100 time=0
note_on channel=9 note=77 velocity=0 time=0
note_on channel=9 note=69 velocity=0 time=0
note_on channel=13 note=62 velocity=0 time=0
note_on channel=13 note=59 velocity=100 time=0
note_on channel=0 note=78 velocity=0 time=0.19480524999999999
note_on channel=0 note=78 velocity=100 time=0
<meta message lyrics text='chi ' time=0>
note_on channel=0 note=78 velocity=0 time=0.19480524999999999
note_on channel=0 note=78 velocity=100 time=0
<meta message lyrics text='"a ' time=0>
note_on channel=2 note=70 velocity=100 time=0
note_on channel=3 note=66 velocity=100 time=0
note_on channel=4 note=61 velocity=100 time=0
note_on channel=5 note=66 velocity=0 time=0
note_on channel=6 note=62 velocity=0 time=0
note_on channel=7 note=59 velocity=0 time=0
note_on channel=8 note=47 velocity=0 time=0
note_on channel=8 note=42 velocity=100 time=0
note_on channel=9 note=35 velocity=100 time=0
note_on channel=10 note=47 velocity=0 time=0
note_on channel=10 note=42 velocity=100 time=0
note_on channel=13 note=59 velocity=0 time=0
note_on channel=13 note=58 velocity=100 time=0
note_on channel=13 note=54 velocity=0 time=0
note_on channel=13 note=49 velocity=100 time=0
note_on channel=15 note=47 velocity=0 time=0
note_on channel=15 note=42 velocity=100 time=0
note_on channel=0 note=78 velocity=0 time=0.19480524999999999
note_on channel=0 note=78 velocity=100 time=0
<meta message lyrics text='i ' time=0>
note_on channel=0 note=78 velocity=0 time=0.19480524999999999
note_on channel=0 note=78 velocity=100 time=0
<meta message lyrics text='shi ' time=0>
note_on channel=2 note=70 velocity=0 time=0
note_on channel=3 note=66 velocity=0 time=0
note_on channel=4 note=61 velocity=0 time=0
note_on channel=7 note=58 velocity=100 time=0
note_on channel=9 note=35 velocity=0 time=0
note_on channel=0 note=78 velocity=0 time=0.19480524999999999
note_on channel=0 note=76 velocity=100 time=0
<meta message lyrics text='te ' time=0>
note_on channel=0 note=76 velocity=0 time=0.19480524999999999
note_on channel=0 note=76 velocity=100 time=0
<meta message lyrics text='ku ' time=0>
note_on channel=2 note=70 velocity=100 time=0
note_on channel=3 note=66 velocity=100 time=0
note_on channel=4 note=61 velocity=100 time=0
note_on channel=5 note=66 velocity=100 time=0
note_on channel=6 note=61 velocity=100 time=0
note_on channel=9 note=77 velocity=100 time=0
note_on channel=0 note=76 velocity=0 time=0.19480524999999999
note_on channel=0 note=76 velocity=100 time=0
<meta message lyrics text='re" ' time=0>
note_on channel=0 note=76 velocity=0 time=0.19480524999999999
note_on channel=0 note=78 velocity=100 time=0
<meta message lyrics text='to ' time=0>
note_on channel=2 note=70 velocity=0 time=0
note_on channel=3 note=66 velocity=0 time=0
note_on channel=4 note=61 velocity=0 time=0
note_on channel=7 note=58 velocity=0 time=0
note_on channel=7 note=58 velocity=100 time=0
note_on channel=9 note=77 velocity=0 time=0
note_on channel=0 note=78 velocity=0 time=0.19480524999999999
note_on channel=0 note=76 velocity=100 time=0
<meta message lyrics text='wa ' time=0>
note_on channel=0 note=76 velocity=0 time=0.19480524999999999
note_on channel=0 note=76 velocity=100 time=0
<meta message lyrics text='i ' time=0>
note_on channel=2 note=71 velocity=100 time=0
note_on channel=3 note=67 velocity=100 time=0
note_on channel=4 note=62 velocity=100 time=0
note_on channel=5 note=66 velocity=0 time=0
note_on channel=6 note=61 velocity=0 time=0
note_on channel=7 note=58 velocity=0 time=0
note_on channel=8 note=42 velocity=0 time=0
note_on channel=8 note=43 velocity=100 time=0
note_on channel=9 note=69 velocity=60 time=0
note_on channel=9 note=35 velocity=100 time=0
note_on channel=9 note=77 velocity=100 time=0
note_on channel=10 note=42 velocity=0 time=0
note_on channel=10 note=43 velocity=100 time=0
note_on channel=13 note=58 velocity=0 time=0
note_on channel=13 note=59 velocity=100 time=0
note_on channel=13 note=49 velocity=0 time=0
note_on channel=13 note=50 velocity=100 time=0
note_on channel=15 note=42 velocity=0 time=0
note_on channel=15 note=43 velocity=100 time=0
note_on channel=0 note=76 velocity=0 time=0.19480524999999999
note_on channel=0 note=76 velocity=100 time=0
<meta message lyrics text='wa ' time=0>
note_on channel=0 note=76 velocity=0 time=0.19480524999999999
note_on channel=0 note=78 velocity=100 time=0
note_on channel=2 note=71 velocity=0 time=0
note_on channel=3 note=67 velocity=0 time=0
note_on channel=4 note=62 velocity=0 time=0
note_on channel=5 note=67 velocity=100 time=0
note_on channel=6 note=59 velocity=100 time=0
note_on channel=7 note=55 velocity=100 time=0
note_on channel=9 note=77 velocity=0 time=0
note_on channel=9 note=35 velocity=0 time=0
note_on channel=9 note=69 velocity=0 time=0
note_on channel=9 note=69 velocity=60 time=0
note_on channel=0 note=78 velocity=0 time=0.38961049999999997
note_on channel=0 note=76 velocity=100 time=0
<meta message lyrics text='na ' time=0>
note_on channel=2 note=69 velocity=100 time=0
note_on channel=3 note=64 velocity=100 time=0
note_on channel=4 note=64 velocity=100 time=0
note_on channel=5 note=67 velocity=0 time=0
note_on channel=6 note=59 velocity=0 time=0
note_on channel=7 note=55 velocity=0 time=0
note_on channel=8 note=43 velocity=0 time=0
note_on channel=8 note=45 velocity=100 time=0
note_on channel=9 note=69 velocity=0 time=0
note_on channel=9 note=69 velocity=60 time=0
note_on channel=9 note=35 velocity=100 time=0
note_on channel=9 note=77 velocity=100 time=0
note_on channel=10 note=43 velocity=0 time=0
note_on channel=10 note=45 velocity=100 time=0
note_on channel=13 note=59 velocity=0 time=0
note_on channel=13 note=61 velocity=100 time=0
note_on channel=13 note=50 velocity=0 time=0
note_on channel=13 note=52 velocity=100 time=0
note_on channel=15 note=43 velocity=0 time=0
note_on channel=15 note=45 velocity=100 time=0
note_on channel=0 note=76 velocity=0 time=0.19480524999999999
note_on channel=0 note=74 velocity=100 time=0
<meta message lyrics text='i ' time=0>
note_on channel=0 note=74 velocity=0 time=0.19480524999999999
note_on channel=0 note=74 velocity=100 time=0
<meta message lyrics text='yo. ' time=0>
note_on channel=2 note=69 velocity=0 time=0
note_on channel=3 note=64 velocity=0 time=0
note_on channel=4 note=64 velocity=0 time=0
note_on channel=5 note=64 velocity=100 time=0
note_on channel=6 note=61 velocity=100 time=0
note_on channel=7 note=57 velocity=100 time=0
note_on channel=9 note=77 velocity=0 time=0
note_on channel=9 note=35 velocity=0 time=0
note_on channel=9 note=69 velocity=0 time=0
note_on channel=9 note=69 velocity=60 time=0
note_on channel=2 note=69 velocity=100 time=0.38961049999999997
note_on channel=3 note=66 velocity=100 time=0
note_on channel=4 note=62 velocity=100 time=0
note_on channel=5 note=64 velocity=0 time=0
note_on channel=6 note=61 velocity=0 time=0
note_on channel=7 note=57 velocity=0 time=0
note_on channel=8 note=45 velocity=0 time=0
note_on channel=8 note=50 velocity=100 time=0
note_on channel=9 note=69 velocity=0 time=0
note_on channel=9 note=69 velocity=60 time=0
note_on channel=10 note=45 velocity=0 time=0
note_on channel=10 note=50 velocity=100 time=0
note_on channel=13 note=61 velocity=0 time=0
note_on channel=13 note=57 velocity=100 time=0
note_on channel=13 note=52 velocity=0 time=0
note_on channel=13 note=50 velocity=100 time=0
note_on channel=15 note=45 velocity=0 time=0
note_on channel=15 note=38 velocity=100 time=0
note_on channel=2 note=69 velocity=0 time=0.38961049999999997
note_on channel=3 note=66 velocity=0 time=0
note_on channel=4 note=62 velocity=0 time=0
note_on channel=7 note=57 velocity=100 time=0
note_on channel=9 note=69 velocity=0 time=0
note_on channel=2 note=69 velocity=100 time=0.38961049999999997
note_on channel=3 note=66 velocity=100 time=0
note_on channel=4 note=62 velocity=100 time=0
note_on channel=5 note=66 velocity=100 time=0
note_on channel=6 note=62 velocity=100 time=0
note_on channel=9 note=35 velocity=100 time=0
note_on channel=0 note=74 velocity=0 time=0.38961049999999997
note_on channel=2 note=69 velocity=0 time=0
note_on channel=3 note=66 velocity=0 time=0
note_on channel=4 note=62 velocity=0 time=0
note_on channel=7 note=57 velocity=0 time=0
note_on channel=7 note=57 velocity=100 time=0
note_on channel=9 note=35 velocity=0 time=0
note_on channel=1 note=90 velocity=100 time=0.38961049999999997
note_on channel=5 note=66 velocity=0 time=0
note_on channel=6 note=62 velocity=0 time=0
note_on channel=7 note=57 velocity=0 time=0
note_on channel=8 note=50 velocity=0 time=0
note_on channel=8 note=50 velocity=100 time=0
note_on channel=10 note=50 velocity=0 time=0
note_on channel=10 note=50 velocity=100 time=0
note_on channel=13 note=57 velocity=0 time=0
note_on channel=13 note=78 velocity=100 time=0
note_on channel=13 note=50 velocity=0 time=0
note_on channel=15 note=38 velocity=0 time=0
note_on channel=1 note=90 velocity=0 time=0.19480524999999999
note_on channel=13 note=78 velocity=0 time=0
note_on channel=1 note=90 velocity=100 time=0.19480524999999999
note_on channel=7 note=57 velocity=100 time=0
note_on channel=13 note=78 velocity=100 time=0
note_on channel=1 note=90 velocity=0 time=0.19480524999999999
note_on channel=1 note=90 velocity=100 time=0
note_on channel=13 note=78 velocity=0 time=0
note_on channel=1 note=90 velocity=0 time=0.19480524999999999
note_on channel=1 note=90 velocity=100 time=0
note_on channel=5 note=66 velocity=100 time=0
note_on channel=6 note=62 velocity=100 time=0
note_on channel=9 note=77 velocity=100 time=0
note_on channel=13 note=78 velocity=100 time=0
note_on channel=1 note=90 velocity=0 time=0.19480524999999999
note_on channel=1 note=90 velocity=100 time=0
note_on channel=13 note=78 velocity=0 time=0
note_on channel=1 note=90 velocity=0 time=0.19480524999999999
note_on channel=1 note=91 velocity=100 time=0
note_on channel=7 note=57 velocity=0 time=0
note_on channel=7 note=57 velocity=100 time=0
note_on channel=9 note=77 velocity=0 time=0
note_on channel=13 note=76 velocity=100 time=0
note_on channel=1 note=91 velocity=0 time=0.19480524999999999
note_on channel=1 note=93 velocity=100 time=0
note_on channel=13 note=76 velocity=0 time=0
note_on channel=13 note=74 velocity=100 time=0
note_on channel=1 note=93 velocity=0 time=0.19480524999999999
note_on channel=5 note=66 velocity=0 time=0
note_on channel=6 note=62 velocity=0 time=0
note_on channel=7 note=57 velocity=0 time=0
note_on channel=8 note=50 velocity=0 time=0
note_on channel=8 note=45 velocity=100 time=0
note_on channel=9 note=35 velocity=100 time=0
note_on channel=10 note=50 velocity=0 time=0
note_on channel=10 note=45 velocity=100 time=0
note_on channel=13 note=74 velocity=0 time=0
note_on channel=13 note=81 velocity=100 time=0
note_on channel=1 note=93 velocity=100 time=0.38961049999999997
note_on channel=7 note=57 velocity=100 time=0
note_on channel=9 note=35 velocity=0 time=0
note_on channel=1 note=93 velocity=0 time=0.19480524999999999
note_on channel=1 note=93 velocity=100 time=0
note_on channel=1 note=93 velocity=0 time=0.19480524999999999
note_on channel=1 note=93 velocity=100 time=0
note_on channel=5 note=66 velocity=100 time=0
note_on channel=6 note=62 velocity=100 time=0
note_on channel=1 note=93 velocity=0 time=0.19480524999999999
note_on channel=1 note=93 velocity=100 time=0
note_on channel=1 note=93 velocity=0 time=0.19480524999999999
note_on channel=1 note=93 velocity=100 time=0
note_on channel=5 note=66 velocity=0 time=0
note_on channel=6 note=62 velocity=0 time=0
note_on channel=7 note=57 velocity=0 time=0
note_on channel=7 note=55 velocity=100 time=0
note_on channel=1 note=93 velocity=0 time=0.19480524999999999
note_on channel=1 note=95 velocity=100 time=0
note_on channel=1 note=95 velocity=0 time=0.19480524999999999
note_on channel=7 note=55 velocity=0 time=0
note_on channel=8 note=45 velocity=0 time=0
note_on channel=8 note=43 velocity=100 time=0
note_on channel=10 note=45 velocity=0 time=0
note_on channel=10 note=43 velocity=100 time=0
note_on channel=13 note=81 velocity=0 time=0
note_on channel=13 note=79 velocity=100 time=0
note_on channel=1 note=95 velocity=100 time=0.38961049999999997
note_on channel=7 note=55 velocity=100 time=0
note_on channel=1 note=95 velocity=0 time=0.19480524999999999
note_on channel=1 note=91 velocity=100 time=0
note_on channel=1 note=91 velocity=0 time=0.19480524999999999
note_on channel=1 note=91 velocity=100 time=0
note_on channel=5 note=67 velocity=100 time=0
note_on channel=6 note=59 velocity=100 time=0
note_on channel=9 note=77 velocity=100 time=0
note_on channel=13 note=79 velocity=0 time=0
note_on channel=1 note=91 velocity=0 time=0.19480524999999999
note_on channel=1 note=90 velocity=100 time=0.19480524999999999
note_on channel=7 note=55 velocity=0 time=0
note_on channel=7 note=55 velocity=100 time=0
note_on channel=9 note=77 velocity=0 time=0
note_on channel=13 note=78 velocity=100 time=0
note_on channel=1 note=90 velocity=0 time=0.19480524999999999
note_on channel=1 note=91 velocity=100 time=0
note_on channel=1 note=91 velocity=0 time=0.19480524999999999
note_on channel=5 note=67 velocity=0 time=0
note_on channel=6 note=59 velocity=0 time=0
note_on channel=7 note=55 velocity=0 time=0
note_on channel=8 note=43 velocity=0 time=0
note_on channel=8 note=50 velocity=100 time=0
note_on channel=9 note=35 velocity=100 time=0
note_on channel=13 note=78 velocity=0 time=0
note_on channel=13 note=79 velocity=100 time=0
note_on channel=7 note=55 velocity=100 time=0.38961049999999997
note_on channel=9 note=35 velocity=0 time=0
note_on channel=1 note=86 velocity=100 time=0.38961049999999997
note_on channel=5 note=67 velocity=100 time=0
note_on channel=6 note=59 velocity=100 time=0
note_on channel=1 note=86 velocity=0 time=0.19480524999999999
note_on channel=1 note=88 velocity=100 time=0.19480524999999999
note_on channel=5 note=67 velocity=0 time=0
note_on channel=6 note=59 velocity=0 time=0
note_on channel=7 note=55 velocity=0 time=0
note_on channel=7 note=55 velocity=100 time=0
note_on channel=1 note=88 velocity=0 time=0.19480524999999999
note_on channel=1 note=90 velocity=100 time=0.19480524999999999
note_on channel=7 note=55 velocity=0 time=0
note_on channel=8 note=50 velocity=0 time=0
note_on channel=8 note=47 velocity=100 time=0
note_on channel=10 note=43 velocity=0 time=0
note_on channel=10 note=47 velocity=100 time=0
note_on channel=13 note=79 velocity=0 time=0
note_on channel=13 note=78 velocity=100 time=0
note_on channel=1 note=90 velocity=0 time=0.19480524999999999
note_on channel=1 note=90 velocity=100 time=0
note_on channel=1 note=90 velocity=0 time=0.19480524999999999
note_on channel=1 note=90 velocity=100 time=0
note_on channel=7 note=59 velocity=100 time=0
note_on channel=1 note=90 velocity=0 time=0.19480524999999999
note_on channel=1 note=90 velocity=100 time=0.19480524999999999
note_on channel=5 note=66 velocity=100 time=0
note_on channel=6 note=62 velocity=100 time=0
note_on channel=9 note=77 velocity=100 time=0
note_on channel=13 note=78 velocity=0 time=0
note_on channel=1 note=90 velocity=0 time=0.19480524999999999
note_on channel=1 note=90 velocity=100 time=0
note_on channel=1 note=90 velocity=0 time=0.19480524999999999
note_on channel=1 note=90 velocity=100 time=0
note_on channel=7 note=59 velocity=0 time=0
note_on channel=7 note=59 velocity=100 time=0
note_on channel=9 note=77 velocity=0 time=0
note_on channel=13 note=71 velocity=100 time=0
note_on channel=1 note=90 velocity=0 time=0.19480524999999999
note_on channel=1 note=90 velocity=100 time=0.19480524999999999
note_on channel=5 note=66 velocity=0 time=0
note_on channel=6 note=62 velocity=0 time=0
note_on channel=7 note=59 velocity=0 time=0
note_on channel=8 note=47 velocity=0 time=0
note_on channel=8 note=42 velocity=100 time=0
note_on channel=9 note=35 velocity=100 time=0
note_on channel=10 note=47 velocity=0 time=0
note_on channel=10 note=42 velocity=100 time=0
note_on channel=13 note=71 velocity=0 time=0
note_on channel=13 note=70 velocity=100 time=0
note_on channel=1 note=90 velocity=0 time=0.19480524999999999
note_on channel=1 note=90 velocity=100 time=0
note_on channel=1 note=90 velocity=0 time=0.19480524999999999
note_on channel=1 note=90 velocity=100 time=0
note_on channel=7 note=58 velocity=100 time=0
note_on channel=9 note=35 velocity=0 time=0
note_on channel=1 note=90 velocity=0 time=0.19480524999999999
note_on channel=1 note=90 velocity=100 time=0.19480524999999999
note_on channel=5 note=66 velocity=100 time=0
note_on channel=6 note=61 velocity=100 time=0
note_on channel=9 note=77 velocity=100 time=0
note_on channel=13 note=70 velocity=0 time=0
note_on channel=13 note=78 velocity=100 time=0
note_on channel=1 note=90 velocity=0 time=0.19480524999999999
note_on channel=1 note=90 velocity=100 time=0
note_on channel=1 note=90 velocity=0 time=0.19480524999999999
note_on channel=1 note=90 velocity=100 time=0
note_on channel=7 note=58 velocity=0 time=0
note_on channel=7 note=58 velocity=100 time=0
note_on channel=9 note=77 velocity=0 time=0
note_on channel=1 note=90 velocity=0 time=0.19480524999999999
note_on channel=1 note=88 velocity=100 time=0.19480524999999999
note_on channel=5 note=66 velocity=0 time=0
note_on channel=6 note=61 velocity=0 time=0
note_on channel=7 note=58 velocity=0 time=0
note_on channel=8 note=42 velocity=0 time=0
note_on channel=8 note=43 velocity=100 time=0
note_on channel=9 note=35 velocity=100 time=0
note_on channel=9 note=77 velocity=100 time=0
note_on channel=10 note=42 velocity=0 time=0
note_on channel=10 note=43 velocity=100 time=0
note_on channel=13 note=78 velocity=0 time=0
note_on channel=13 note=71 velocity=100 time=0
note_on channel=1 note=88 velocity=0 time=0.19480524999999999
note_on channel=1 note=88 velocity=100 time=0
note_on channel=1 note=88 velocity=0 time=0.19480524999999999
note_on channel=1 note=90 velocity=100 time=0
note_on channel=5 note=67 velocity=100 time=0
note_on channel=6 note=59 velocity=100 time=0
note_on channel=7 note=55 velocity=100 time=0
note_on channel=9 note=77 velocity=0 time=0
note_on channel=9 note=35 velocity=0 time=0
note_on channel=1 note=90 velocity=0 time=0.19480524999999999
note_on channel=1 note=88 velocity=100 time=0.19480524999999999
note_on channel=5 note=67 velocity=0 time=0
note_on channel=6 note=59 velocity=0 time=0
note_on channel=7 note=55 velocity=0 time=0
note_on channel=8 note=43 velocity=0 time=0
note_on channel=8 note=45 velocity=100 time=0
note_on channel=9 note=35 velocity=100 time=0
note_on channel=9 note=77 velocity=100 time=0
note_on channel=10 note=43 velocity=0 time=0
note_on channel=10 note=45 velocity=100 time=0
note_on channel=13 note=71 velocity=0 time=0
note_on channel=13 note=73 velocity=100 time=0
note_on channel=1 note=88 velocity=0 time=0.19480524999999999
note_on channel=1 note=86 velocity=100 time=0
note_on channel=1 note=86 velocity=0 time=0.19480524999999999
note_on channel=5 note=64 velocity=100 time=0
note_on channel=6 note=61 velocity=100 time=0
note_on channel=7 note=57 velocity=100 time=0
note_on channel=9 note=77 velocity=0 time=0
note_on channel=9 note=35 velocity=0 time=0
note_on channel=1 note=86 velocity=100 time=0.19480524999999999
note_on channel=1 note=86 velocity=0 time=0.19480524999999999
note_on channel=5 note=64 velocity=0 time=0
note_on channel=6 note=61 velocity=0 time=0
note_on channel=7 note=57 velocity=0 time=0
note_on channel=8 note=45 velocity=0 time=0
note_on channel=8 note=50 velocity=100 time=0
note_on channel=13 note=73 velocity=0 time=0
note_on channel=13 note=74 velocity=100 time=0
note_on channel=7 note=57 velocity=100 time=0.38961049999999997
note_on channel=5 note=66 velocity=100 time=0.38961049999999997
note_on channel=6 note=62 velocity=100 time=0
note_on channel=9 note=35 velocity=100 time=0
note_on channel=5 note=66 velocity=0 time=0.38961049999999997
note_on channel=6 note=62 velocity=0 time=0
note_on channel=7 note=57 velocity=0 time=0
note_on channel=7 note=55 velocity=100 time=0
note_on channel=9 note=35 velocity=0 time=0
note_on channel=5 note=67 velocity=100 time=0.38961049999999997
note_on channel=6 note=59 velocity=100 time=0
note_on channel=7 note=55 velocity=0 time=0
note_on channel=8 note=50 velocity=0 time=0
note_on channel=8 note=43 velocity=100 time=0
note_on channel=10 note=45 velocity=0 time=0
note_on channel=10 note=43 velocity=100 time=0
note_on channel=13 note=74 velocity=0 time=0
note_on channel=13 note=71 velocity=100 time=0
note_on channel=7 note=55 velocity=100 time=0.38961049999999997
note_on channel=13 note=71 velocity=0 time=0
note_on channel=13 note=73 velocity=100 time=0
note_on channel=5 note=67 velocity=0 time=0.38961049999999997
note_on channel=5 note=67 velocity=100 time=0
note_on channel=6 note=59 velocity=0 time=0
note_on channel=6 note=59 velocity=100 time=0
note_on channel=13 note=73 velocity=0 time=0
note_on channel=13 note=74 velocity=100 time=0
note_on channel=5 note=67 velocity=0 time=0.38961049999999997
note_on channel=5 note=62 velocity=100 time=0
note_on channel=7 note=55 velocity=0 time=0
note_on channel=7 note=55 velocity=100 time=0
note_on channel=5 note=62 velocity=0 time=0.38961049999999997
note_on channel=5 note=64 velocity=100 time=0
note_on channel=6 note=59 velocity=0 time=0
note_on channel=6 note=61 velocity=100 time=0
note_on channel=7 note=55 velocity=0 time=0
note_on channel=8 note=43 velocity=0 time=0
note_on channel=8 note=45 velocity=100 time=0
note_on channel=10 note=43 velocity=0 time=0
note_on channel=10 note=45 velocity=100 time=0
note_on channel=13 note=74 velocity=0 time=0
note_on channel=13 note=73 velocity=100 time=0
note_on channel=7 note=57 velocity=100 time=0.38961049999999997
note_on channel=13 note=73 velocity=0 time=0
note_on channel=13 note=74 velocity=100 time=0
note_on channel=5 note=64 velocity=0 time=0.38961049999999997
note_on channel=5 note=64 velocity=100 time=0
note_on channel=6 note=61 velocity=0 time=0
note_on channel=6 note=61 velocity=100 time=0
note_on channel=13 note=74 velocity=0 time=0
note_on channel=13 note=76 velocity=100 time=0
control_change channel=11 control=7 value=100 time=0.0064935083333333326
note_on channel=7 note=57 velocity=0 time=0.38311699166666663
note_on channel=7 note=55 velocity=100 time=0
program_change channel=1 program=119 time=0.38961049999999997
note_on channel=2 note=83 velocity=100 time=0
note_on channel=5 note=64 velocity=0 time=0
note_on channel=5 note=66 velocity=100 time=0
note_on channel=6 note=61 velocity=0 time=0
note_on channel=6 note=63 velocity=100 time=0
note_on channel=7 note=55 velocity=0 time=0
note_on channel=8 note=45 velocity=0 time=0
note_on channel=8 note=47 velocity=100 time=0
note_on channel=10 note=45 velocity=0 time=0
note_on channel=10 note=47 velocity=100 time=0
note_on channel=11 note=71 velocity=100 time=0
note_on channel=13 note=76 velocity=0 time=0
note_on channel=13 note=75 velocity=100 time=0
note_on channel=2 note=83 velocity=0 time=0.38961049999999997
note_on channel=2 note=82 velocity=100 time=0
note_on channel=7 note=59 velocity=100 time=0
note_on channel=11 note=71 velocity=0 time=0
note_on channel=11 note=70 velocity=100 time=0
note_on channel=2 note=82 velocity=0 time=0.38961049999999997
note_on channel=2 note=81 velocity=100 time=0
note_on channel=5 note=66 velocity=0 time=0
note_on channel=5 note=66 velocity=100 time=0
note_on channel=6 note=63 velocity=0 time=0
note_on channel=6 note=63 velocity=100 time=0
note_on channel=11 note=70 velocity=0 time=0
note_on channel=11 note=69 velocity=100 time=0
note_on channel=2 note=81 velocity=0 time=0.38961049999999997
note_on channel=2 note=80 velocity=100 time=0
note_on channel=7 note=59 velocity=0 time=0
note_on channel=7 note=59 velocity=100 time=0
note_on channel=11 note=69 velocity=0 time=0
note_on channel=11 note=68 velocity=100 time=0
note_on channel=2 note=80 velocity=0 time=0.38961049999999997
note_on channel=2 note=79 velocity=100 time=0
note_on channel=5 note=66 velocity=0 time=0
note_on channel=5 note=66 velocity=100 time=0
note_on channel=6 note=63 velocity=0 time=0
note_on channel=6 note=63 velocity=100 time=0
note_on channel=11 note=68 velocity=0 time=0
note_on channel=11 note=67 velocity=100 time=0
note_on channel=2 note=79 velocity=0 time=0.38961049999999997
note_on channel=2 note=78 velocity=100 time=0
note_on channel=7 note=59 velocity=0 time=0
note_on channel=7 note=59 velocity=100 time=0
note_on channel=11 note=67 velocity=0 time=0
note_on channel=11 note=66 velocity=100 time=0
note_on channel=2 note=78 velocity=0 time=0.38961049999999997
note_on channel=2 note=77 velocity=100 time=0
note_on channel=5 note=66 velocity=0 time=0
note_on channel=5 note=66 velocity=100 time=0
note_on channel=6 note=63 velocity=0 time=0
note_on channel=6 note=63 velocity=100 time=0
note_on channel=11 note=66 velocity=0 time=0
note_on channel=11 note=65 velocity=100 time=0
note_on channel=7 note=59 velocity=0 time=0.38961049999999997
note_on channel=7 note=59 velocity=100 time=0
note_on channel=2 note=77 velocity=0 time=0.38961049999999997
note_on channel=2 note=78 velocity=100 time=0
note_on channel=5 note=66 velocity=0 time=0
note_on channel=6 note=63 velocity=0 time=0
note_on channel=7 note=59 velocity=0 time=0
note_on channel=8 note=47 velocity=0 time=0
note_on channel=8 note=47 velocity=100 time=0
note_on channel=10 note=47 velocity=0 time=0
note_on channel=10 note=47 velocity=100 time=0
note_on channel=11 note=65 velocity=0 time=0
note_on channel=11 note=66 velocity=100 time=0
note_on channel=13 note=75 velocity=0 time=0
note_on channel=7 note=59 velocity=100 time=0.045454558333333325
note_on channel=6 note=63 velocity=100 time=0.045454558333333325
note_on channel=5 note=66 velocity=100 time=0.045454558333333325
note_on channel=2 note=78 velocity=0 time=0.058441574999999996
note_on channel=2 note=79 velocity=100 time=0
note_on channel=11 note=66 velocity=0 time=0
note_on channel=11 note=67 velocity=100 time=0
note_on channel=2 note=79 velocity=0 time=0.19480524999999999
note_on channel=2 note=78 velocity=100 time=0
note_on channel=11 note=67 velocity=0 time=0
note_on channel=11 note=66 velocity=100 time=0
note_on channel=2 note=78 velocity=0 time=0.19480524999999999
note_on channel=2 note=79 velocity=100 time=0
note_on channel=11 note=66 velocity=0 time=0
note_on channel=11 note=67 velocity=100 time=0
note_on channel=2 note=79 velocity=0 time=0.19480524999999999
note_on channel=2 note=78 velocity=100 time=0
note_on channel=11 note=67 velocity=0 time=0
note_on channel=11 note=66 velocity=100 time=0
note_on channel=2 note=78 velocity=0 time=0.19480524999999999
note_on channel=2 note=79 velocity=100 time=0
note_on channel=11 note=66 velocity=0 time=0
note_on channel=11 note=67 velocity=100 time=0
note_on channel=2 note=79 velocity=0 time=0.19480524999999999
note_on channel=2 note=78 velocity=100 time=0
note_on channel=11 note=67 velocity=0 time=0
note_on channel=11 note=66 velocity=100 time=0
note_on channel=2 note=78 velocity=0 time=0.19480524999999999
note_on channel=2 note=79 velocity=100 time=0
note_on channel=11 note=66 velocity=0 time=0
note_on channel=11 note=67 velocity=100 time=0
note_on channel=1 note=66 velocity=100 time=0.19480524999999999
note_on channel=1 note=54 velocity=100 time=0
note_on channel=2 note=79 velocity=0 time=0
note_on channel=2 note=78 velocity=100 time=0
note_on channel=11 note=67 velocity=0 time=0
note_on channel=11 note=66 velocity=100 time=0
note_on channel=5 note=66 velocity=0 time=1.5584419999999999
note_on channel=6 note=63 velocity=0 time=0
note_on channel=7 note=59 velocity=0 time=0
note_on channel=8 note=47 velocity=0 time=0
note_on channel=1 note=54 velocity=0 time=1.5584419999999999
note_on channel=1 note=66 velocity=0 time=0
note_on channel=2 note=78 velocity=0 time=0
note_on channel=10 note=47 velocity=0 time=0
note_on channel=11 note=66 velocity=0 time=0
<meta message end_of_track time=0>
