control_change channel=1 control=121 value=0 time=512
control_change channel=1 control=64 value=0 time=0
control_change channel=1 control=91 value=48 time=0
control_change channel=1 control=10 value=51 time=0
control_change channel=1 control=7 value=100 time=0
program_change channel=1 program=0 time=0
note_on channel=1 note=45 velocity=100 time=512
note_on channel=1 note=45 velocity=0 time=128
note_on channel=1 note=50 velocity=100 time=0
note_on channel=1 note=50 velocity=0 time=128
note_on channel=1 note=54 velocity=100 time=0
note_on channel=1 note=54 velocity=0 time=128
note_on channel=1 note=50 velocity=100 time=0
note_on channel=1 note=50 velocity=0 time=128
note_on channel=1 note=47 velocity=100 time=0
note_on channel=1 note=47 velocity=0 time=128
note_on channel=1 note=50 velocity=100 time=0
note_on channel=1 note=50 velocity=0 time=128
note_on channel=1 note=54 velocity=100 time=0
note_on channel=1 note=54 velocity=0 time=128
note_on channel=1 note=50 velocity=100 time=0
note_on channel=1 note=50 velocity=0 time=128
note_on channel=1 note=45 velocity=100 time=0
note_on channel=1 note=45 velocity=0 time=128
note_on channel=1 note=50 velocity=100 time=0
note_on channel=1 note=50 velocity=0 time=128
note_on channel=1 note=54 velocity=100 time=0
note_on channel=1 note=54 velocity=0 time=128
note_on channel=1 note=50 velocity=100 time=0
note_on channel=1 note=50 velocity=0 time=128
note_on channel=1 note=47 velocity=100 time=0
note_on channel=1 note=47 velocity=0 time=128
note_on channel=1 note=50 velocity=100 time=0
note_on channel=1 note=50 velocity=0 time=128
note_on channel=1 note=54 velocity=100 time=0
note_on channel=1 note=54 velocity=0 time=128
note_on channel=1 note=50 velocity=100 time=0
note_on channel=1 note=50 velocity=0 time=128
note_on channel=1 note=45 velocity=100 time=0
note_on channel=1 note=45 velocity=0 time=128
note_on channel=1 note=50 velocity=100 time=0
note_on channel=1 note=50 velocity=0 time=128
note_on channel=1 note=54 velocity=100 time=0
note_on channel=1 note=54 velocity=0 time=128
note_on channel=1 note=50 velocity=100 time=0
note_on channel=1 note=50 velocity=0 time=128
note_on channel=1 note=47 velocity=100 time=0
note_on channel=1 note=47 velocity=0 time=128
note_on channel=1 note=50 velocity=100 time=0
note_on channel=1 note=50 velocity=0 time=128
note_on channel=1 note=54 velocity=100 time=0
note_on channel=1 note=54 velocity=0 time=128
note_on channel=1 note=50 velocity=100 time=0
note_on channel=1 note=50 velocity=0 time=128
note_on channel=1 note=45 velocity=100 time=0
note_on channel=1 note=45 velocity=0 time=128
note_on channel=1 note=50 velocity=100 time=0
note_on channel=1 note=50 velocity=0 time=128
note_on channel=1 note=54 velocity=100 time=0
note_on channel=1 note=54 velocity=0 time=128
note_on channel=1 note=50 velocity=100 time=0
note_on channel=1 note=50 velocity=0 time=128
note_on channel=1 note=47 velocity=100 time=0
note_on channel=1 note=47 velocity=0 time=128
note_on channel=1 note=50 velocity=100 time=0
note_on channel=1 note=50 velocity=0 time=128
note_on channel=1 note=54 velocity=100 time=0
note_on channel=1 note=54 velocity=0 time=128
note_on channel=1 note=50 velocity=100 time=0
note_on channel=1 note=50 velocity=0 time=128
note_on channel=1 note=47 velocity=100 time=0
note_on channel=1 note=47 velocity=0 time=128
note_on channel=1 note=52 velocity=100 time=0
note_on channel=1 note=52 velocity=0 time=128
note_on channel=1 note=55 velocity=100 time=0
note_on channel=1 note=55 velocity=0 time=128
note_on channel=1 note=52 velocity=100 time=0
note_on channel=1 note=52 velocity=0 time=128
note_on channel=1 note=47 velocity=100 time=0
note_on channel=1 note=47 velocity=0 time=128
note_on channel=1 note=52 velocity=100 time=0
note_on channel=1 note=52 velocity=0 time=128
note_on channel=1 note=55 velocity=100 time=0
note_on channel=1 note=55 velocity=0 time=128
note_on channel=1 note=52 velocity=100 time=0
note_on channel=1 note=52 velocity=0 time=128
note_on channel=1 note=45 velocity=100 time=0
note_on channel=1 note=45 velocity=0 time=128
note_on channel=1 note=52 velocity=100 time=0
note_on channel=1 note=52 velocity=0 time=128
note_on channel=1 note=55 velocity=100 time=0
note_on channel=1 note=55 velocity=0 time=128
note_on channel=1 note=49 velocity=100 time=0
note_on channel=1 note=49 velocity=0 time=128
note_on channel=1 note=45 velocity=100 time=0
note_on channel=1 note=45 velocity=0 time=128
note_on channel=1 note=52 velocity=100 time=0
note_on channel=1 note=52 velocity=0 time=128
note_on channel=1 note=55 velocity=100 time=0
note_on channel=1 note=55 velocity=0 time=128
note_on channel=1 note=49 velocity=100 time=0
note_on channel=1 note=49 velocity=0 time=128
note_on channel=1 note=45 velocity=100 time=0
note_on channel=1 note=45 velocity=0 time=128
note_on channel=1 note=50 velocity=100 time=0
note_on channel=1 note=50 velocity=0 time=128
note_on channel=1 note=54 velocity=100 time=0
note_on channel=1 note=54 velocity=0 time=128
note_on channel=1 note=50 velocity=100 time=0
note_on channel=1 note=50 velocity=0 time=128
note_on channel=1 note=47 velocity=100 time=0
note_on channel=1 note=47 velocity=0 time=128
note_on channel=1 note=50 velocity=100 time=0
note_on channel=1 note=50 velocity=0 time=128
note_on channel=1 note=54 velocity=100 time=0
note_on channel=1 note=54 velocity=0 time=128
note_on channel=1 note=50 velocity=100 time=0
note_on channel=1 note=50 velocity=0 time=128
note_on channel=1 note=45 velocity=100 time=0
note_on channel=1 note=45 velocity=0 time=128
note_on channel=1 note=50 velocity=100 time=0
note_on channel=1 note=50 velocity=0 time=128
note_on channel=1 note=54 velocity=100 time=0
note_on channel=1 note=54 velocity=0 time=128
note_on channel=1 note=50 velocity=100 time=0
note_on channel=1 note=50 velocity=0 time=128
note_on channel=1 note=47 velocity=100 time=0
note_on channel=1 note=47 velocity=0 time=128
note_on channel=1 note=50 velocity=100 time=0
note_on channel=1 note=50 velocity=0 time=128
note_on channel=1 note=54 velocity=100 time=0
note_on channel=1 note=54 velocity=0 time=128
note_on channel=1 note=50 velocity=100 time=0
note_on channel=1 note=50 velocity=0 time=128
note_on channel=1 note=45 velocity=100 time=0
note_on channel=1 note=45 velocity=0 time=128
note_on channel=1 note=50 velocity=100 time=0
note_on channel=1 note=50 velocity=0 time=128
note_on channel=1 note=54 velocity=100 time=0
note_on channel=1 note=54 velocity=0 time=128
note_on channel=1 note=50 velocity=100 time=0
note_on channel=1 note=50 velocity=0 time=128
note_on channel=1 note=47 velocity=100 time=0
note_on channel=1 note=47 velocity=0 time=128
note_on channel=1 note=50 velocity=100 time=0
note_on channel=1 note=50 velocity=0 time=128
note_on channel=1 note=54 velocity=100 time=0
note_on channel=1 note=54 velocity=0 time=128
note_on channel=1 note=50 velocity=100 time=0
note_on channel=1 note=50 velocity=0 time=128
note_on channel=1 note=45 velocity=100 time=0
note_on channel=1 note=45 velocity=0 time=128
note_on channel=1 note=50 velocity=100 time=0
note_on channel=1 note=50 velocity=0 time=128
note_on channel=1 note=54 velocity=100 time=0
note_on channel=1 note=54 velocity=0 time=128
note_on channel=1 note=50 velocity=100 time=0
note_on channel=1 note=50 velocity=0 time=128
note_on channel=1 note=47 velocity=100 time=0
note_on channel=1 note=47 velocity=0 time=128
note_on channel=1 note=50 velocity=100 time=0
note_on channel=1 note=50 velocity=0 time=128
note_on channel=1 note=54 velocity=100 time=0
note_on channel=1 note=54 velocity=0 time=128
note_on channel=1 note=50 velocity=100 time=0
note_on channel=1 note=50 velocity=0 time=128
note_on channel=1 note=45 velocity=100 time=0
note_on channel=1 note=45 velocity=0 time=128
note_on channel=1 note=50 velocity=100 time=0
note_on channel=1 note=50 velocity=0 time=128
note_on channel=1 note=54 velocity=100 time=0
note_on channel=1 note=54 velocity=0 time=128
note_on channel=1 note=50 velocity=100 time=0
note_on channel=1 note=50 velocity=0 time=128
note_on channel=1 note=47 velocity=100 time=0
note_on channel=1 note=47 velocity=0 time=128
note_on channel=1 note=50 velocity=100 time=0
note_on channel=1 note=50 velocity=0 time=128
note_on channel=1 note=54 velocity=100 time=0
note_on channel=1 note=54 velocity=0 time=128
note_on channel=1 note=50 velocity=100 time=0
note_on channel=1 note=50 velocity=0 time=128
note_on channel=1 note=45 velocity=100 time=0
note_on channel=1 note=45 velocity=0 time=128
note_on channel=1 note=50 velocity=100 time=0
note_on channel=1 note=50 velocity=0 time=128
note_on channel=1 note=54 velocity=100 time=0
note_on channel=1 note=54 velocity=0 time=128
note_on channel=1 note=50 velocity=100 time=0
note_on channel=1 note=50 velocity=0 time=128
note_on channel=1 note=47 velocity=100 time=0
note_on channel=1 note=47 velocity=0 time=128
note_on channel=1 note=50 velocity=100 time=0
note_on channel=1 note=50 velocity=0 time=128
note_on channel=1 note=54 velocity=100 time=0
note_on channel=1 note=54 velocity=0 time=128
note_on channel=1 note=50 velocity=100 time=0
note_on channel=1 note=50 velocity=0 time=128
note_on channel=1 note=47 velocity=100 time=0
note_on channel=1 note=47 velocity=0 time=128
note_on channel=1 note=52 velocity=100 time=0
note_on channel=1 note=52 velocity=0 time=128
note_on channel=1 note=55 velocity=100 time=0
note_on channel=1 note=55 velocity=0 time=128
note_on channel=1 note=52 velocity=100 time=0
note_on channel=1 note=52 velocity=0 time=128
note_on channel=1 note=47 velocity=100 time=0
note_on channel=1 note=47 velocity=0 time=128
note_on channel=1 note=52 velocity=100 time=0
note_on channel=1 note=52 velocity=0 time=128
note_on channel=1 note=55 velocity=100 time=0
note_on channel=1 note=55 velocity=0 time=128
note_on channel=1 note=52 velocity=100 time=0
note_on channel=1 note=52 velocity=0 time=128
note_on channel=1 note=45 velocity=100 time=0
note_on channel=1 note=45 velocity=0 time=128
note_on channel=1 note=52 velocity=100 time=0
note_on channel=1 note=52 velocity=0 time=128
note_on channel=1 note=55 velocity=100 time=0
note_on channel=1 note=55 velocity=0 time=128
note_on channel=1 note=49 velocity=100 time=0
note_on channel=1 note=49 velocity=0 time=128
note_on channel=1 note=45 velocity=100 time=0
note_on channel=1 note=45 velocity=0 time=128
note_on channel=1 note=52 velocity=100 time=0
note_on channel=1 note=52 velocity=0 time=128
note_on channel=1 note=55 velocity=100 time=0
note_on channel=1 note=55 velocity=0 time=128
note_on channel=1 note=49 velocity=100 time=0
note_on channel=1 note=49 velocity=0 time=128
note_on channel=1 note=46 velocity=100 time=0
note_on channel=1 note=46 velocity=0 time=128
note_on channel=1 note=50 velocity=100 time=0
note_on channel=1 note=50 velocity=0 time=128
note_on channel=1 note=53 velocity=100 time=0
note_on channel=1 note=53 velocity=0 time=128
note_on channel=1 note=57 velocity=100 time=0
note_on channel=1 note=57 velocity=0 time=128
note_on channel=1 note=50 velocity=100 time=7680
note_on channel=1 note=50 velocity=0 time=384
note_on channel=1 note=50 velocity=100 time=0
note_on channel=1 note=50 velocity=0 time=128
note_on channel=1 note=47 velocity=100 time=0
note_on channel=1 note=47 velocity=0 time=384
note_on channel=1 note=47 velocity=100 time=0
note_on channel=1 note=47 velocity=0 time=128
note_on channel=1 note=50 velocity=100 time=0
note_on channel=1 note=50 velocity=0 time=384
note_on channel=1 note=50 velocity=100 time=0
note_on channel=1 note=50 velocity=0 time=128
note_on channel=1 note=47 velocity=100 time=0
note_on channel=1 note=47 velocity=0 time=384
note_on channel=1 note=47 velocity=100 time=0
note_on channel=1 note=47 velocity=0 time=128
note_on channel=1 note=50 velocity=100 time=0
note_on channel=1 note=50 velocity=0 time=384
note_on channel=1 note=50 velocity=100 time=0
note_on channel=1 note=50 velocity=0 time=128
note_on channel=1 note=47 velocity=100 time=0
note_on channel=1 note=47 velocity=0 time=384
note_on channel=1 note=47 velocity=100 time=0
note_on channel=1 note=47 velocity=0 time=128
note_on channel=1 note=50 velocity=100 time=0
note_on channel=1 note=50 velocity=0 time=384
note_on channel=1 note=50 velocity=100 time=0
note_on channel=1 note=50 velocity=0 time=128
note_on channel=1 note=47 velocity=100 time=0
note_on channel=1 note=47 velocity=0 time=384
note_on channel=1 note=47 velocity=100 time=0
note_on channel=1 note=47 velocity=0 time=128
note_on channel=1 note=45 velocity=100 time=0
note_on channel=1 note=45 velocity=0 time=128
note_on channel=1 note=50 velocity=100 time=0
note_on channel=1 note=50 velocity=0 time=128
note_on channel=1 note=54 velocity=100 time=0
note_on channel=1 note=54 velocity=0 time=128
note_on channel=1 note=50 velocity=100 time=0
note_on channel=1 note=50 velocity=0 time=128
note_on channel=1 note=47 velocity=100 time=0
note_on channel=1 note=47 velocity=0 time=128
note_on channel=1 note=50 velocity=100 time=0
note_on channel=1 note=50 velocity=0 time=128
note_on channel=1 note=54 velocity=100 time=0
note_on channel=1 note=54 velocity=0 time=128
note_on channel=1 note=50 velocity=100 time=0
note_on channel=1 note=50 velocity=0 time=128
note_on channel=1 note=45 velocity=100 time=0
note_on channel=1 note=45 velocity=0 time=128
note_on channel=1 note=50 velocity=100 time=0
note_on channel=1 note=50 velocity=0 time=128
note_on channel=1 note=54 velocity=100 time=0
note_on channel=1 note=54 velocity=0 time=128
note_on channel=1 note=50 velocity=100 time=0
note_on channel=1 note=50 velocity=0 time=128
note_on channel=1 note=47 velocity=100 time=0
note_on channel=1 note=47 velocity=0 time=128
note_on channel=1 note=50 velocity=100 time=0
note_on channel=1 note=50 velocity=0 time=128
note_on channel=1 note=54 velocity=100 time=0
note_on channel=1 note=54 velocity=0 time=128
note_on channel=1 note=50 velocity=100 time=0
note_on channel=1 note=50 velocity=0 time=128
note_on channel=1 note=45 velocity=100 time=0
note_on channel=1 note=45 velocity=0 time=128
note_on channel=1 note=50 velocity=100 time=0
note_on channel=1 note=50 velocity=0 time=128
note_on channel=1 note=54 velocity=100 time=0
note_on channel=1 note=54 velocity=0 time=128
note_on channel=1 note=50 velocity=100 time=0
note_on channel=1 note=50 velocity=0 time=128
note_on channel=1 note=47 velocity=100 time=0
note_on channel=1 note=47 velocity=0 time=128
note_on channel=1 note=50 velocity=100 time=0
note_on channel=1 note=50 velocity=0 time=128
note_on channel=1 note=54 velocity=100 time=0
note_on channel=1 note=54 velocity=0 time=128
note_on channel=1 note=50 velocity=100 time=0
note_on channel=1 note=50 velocity=0 time=128
note_on channel=1 note=45 velocity=100 time=0
note_on channel=1 note=45 velocity=0 time=128
note_on channel=1 note=50 velocity=100 time=0
note_on channel=1 note=50 velocity=0 time=128
note_on channel=1 note=54 velocity=100 time=0
note_on channel=1 note=54 velocity=0 time=128
note_on channel=1 note=50 velocity=100 time=0
note_on channel=1 note=50 velocity=0 time=128
note_on channel=1 note=47 velocity=100 time=0
note_on channel=1 note=47 velocity=0 time=128
note_on channel=1 note=50 velocity=100 time=0
note_on channel=1 note=50 velocity=0 time=128
note_on channel=1 note=54 velocity=100 time=0
note_on channel=1 note=54 velocity=0 time=128
note_on channel=1 note=50 velocity=100 time=0
note_on channel=1 note=50 velocity=0 time=128
note_on channel=1 note=47 velocity=100 time=0
note_on channel=1 note=47 velocity=0 time=128
note_on channel=1 note=52 velocity=100 time=0
note_on channel=1 note=52 velocity=0 time=128
note_on channel=1 note=55 velocity=100 time=0
note_on channel=1 note=55 velocity=0 time=128
note_on channel=1 note=52 velocity=100 time=0
note_on channel=1 note=52 velocity=0 time=128
note_on channel=1 note=47 velocity=100 time=0
note_on channel=1 note=47 velocity=0 time=128
note_on channel=1 note=52 velocity=100 time=0
note_on channel=1 note=52 velocity=0 time=128
note_on channel=1 note=55 velocity=100 time=0
note_on channel=1 note=55 velocity=0 time=128
note_on channel=1 note=52 velocity=100 time=0
note_on channel=1 note=52 velocity=0 time=128
note_on channel=1 note=45 velocity=100 time=0
note_on channel=1 note=45 velocity=0 time=128
note_on channel=1 note=52 velocity=100 time=0
note_on channel=1 note=52 velocity=0 time=128
note_on channel=1 note=55 velocity=100 time=0
note_on channel=1 note=55 velocity=0 time=128
note_on channel=1 note=52 velocity=100 time=0
note_on channel=1 note=52 velocity=0 time=128
note_on channel=1 note=45 velocity=100 time=0
note_on channel=1 note=45 velocity=0 time=128
note_on channel=1 note=52 velocity=100 time=0
note_on channel=1 note=52 velocity=0 time=128
note_on channel=1 note=55 velocity=100 time=0
note_on channel=1 note=55 velocity=0 time=128
note_on channel=1 note=52 velocity=100 time=0
note_on channel=1 note=52 velocity=0 time=128
note_on channel=1 note=45 velocity=100 time=0
note_on channel=1 note=45 velocity=0 time=128
note_on channel=1 note=50 velocity=100 time=0
note_on channel=1 note=50 velocity=0 time=128
note_on channel=1 note=54 velocity=100 time=0
note_on channel=1 note=54 velocity=0 time=128
note_on channel=1 note=50 velocity=100 time=0
note_on channel=1 note=50 velocity=0 time=128
note_on channel=1 note=47 velocity=100 time=0
note_on channel=1 note=47 velocity=0 time=128
note_on channel=1 note=50 velocity=100 time=0
note_on channel=1 note=50 velocity=0 time=128
note_on channel=1 note=54 velocity=100 time=0
note_on channel=1 note=54 velocity=0 time=128
note_on channel=1 note=50 velocity=100 time=0
note_on channel=1 note=50 velocity=0 time=128
note_on channel=1 note=50 velocity=100 time=0
note_on channel=1 note=50 velocity=0 time=384
note_on channel=1 note=50 velocity=100 time=0
note_on channel=1 note=50 velocity=0 time=128
note_on channel=1 note=47 velocity=100 time=0
note_on channel=1 note=47 velocity=0 time=384
note_on channel=1 note=47 velocity=100 time=0
note_on channel=1 note=47 velocity=0 time=128
note_on channel=1 note=50 velocity=100 time=0
note_on channel=1 note=50 velocity=0 time=384
note_on channel=1 note=50 velocity=100 time=0
note_on channel=1 note=50 velocity=0 time=128
note_on channel=1 note=47 velocity=100 time=0
note_on channel=1 note=47 velocity=0 time=384
note_on channel=1 note=47 velocity=100 time=0
note_on channel=1 note=47 velocity=0 time=128
note_on channel=1 note=50 velocity=100 time=0
note_on channel=1 note=50 velocity=0 time=384
note_on channel=1 note=50 velocity=100 time=0
note_on channel=1 note=50 velocity=0 time=128
note_on channel=1 note=47 velocity=100 time=0
note_on channel=1 note=47 velocity=0 time=384
note_on channel=1 note=47 velocity=100 time=0
note_on channel=1 note=47 velocity=0 time=128
note_on channel=1 note=50 velocity=100 time=0
note_on channel=1 note=50 velocity=0 time=384
note_on channel=1 note=50 velocity=100 time=0
note_on channel=1 note=50 velocity=0 time=128
note_on channel=1 note=47 velocity=100 time=0
note_on channel=1 note=47 velocity=0 time=384
note_on channel=1 note=47 velocity=100 time=0
note_on channel=1 note=47 velocity=0 time=128
note_on channel=1 note=50 velocity=100 time=0
note_on channel=1 note=50 velocity=0 time=384
note_on channel=1 note=50 velocity=100 time=0
note_on channel=1 note=50 velocity=0 time=128
note_on channel=1 note=47 velocity=100 time=0
note_on channel=1 note=47 velocity=0 time=384
note_on channel=1 note=47 velocity=100 time=0
note_on channel=1 note=47 velocity=0 time=128
note_on channel=1 note=52 velocity=100 time=0
note_on channel=1 note=52 velocity=0 time=384
note_on channel=1 note=52 velocity=100 time=0
note_on channel=1 note=52 velocity=0 time=128
note_on channel=1 note=52 velocity=100 time=0
note_on channel=1 note=52 velocity=0 time=128
note_on channel=1 note=54 velocity=100 time=0
note_on channel=1 note=54 velocity=0 time=128
note_on channel=1 note=55 velocity=100 time=0
note_on channel=1 note=55 velocity=0 time=256
note_on channel=1 note=45 velocity=100 time=0
note_on channel=1 note=45 velocity=0 time=384
note_on channel=1 note=45 velocity=100 time=0
note_on channel=1 note=45 velocity=0 time=128
note_on channel=1 note=45 velocity=100 time=0
note_on channel=1 note=45 velocity=0 time=128
note_on channel=1 note=47 velocity=100 time=0
note_on channel=1 note=47 velocity=0 time=128
note_on channel=1 note=49 velocity=100 time=0
note_on channel=1 note=49 velocity=0 time=128
note_on channel=1 note=45 velocity=100 time=0
note_on channel=1 note=45 velocity=0 time=128
note_on channel=1 note=46 velocity=100 time=0
note_on channel=1 note=46 velocity=0 time=256
note_on channel=1 note=46 velocity=100 time=0
note_on channel=1 note=46 velocity=0 time=128
note_on channel=1 note=46 velocity=100 time=0
note_on channel=1 note=46 velocity=0 time=128
note_on channel=1 note=46 velocity=100 time=0
note_on channel=1 note=46 velocity=0 time=128
note_on channel=1 note=46 velocity=100 time=0
note_on channel=1 note=46 velocity=0 time=128
note_on channel=1 note=46 velocity=100 time=0
note_on channel=1 note=46 velocity=0 time=128
note_on channel=1 note=46 velocity=100 time=0
note_on channel=1 note=46 velocity=0 time=128
note_on channel=1 note=48 velocity=100 time=0
note_on channel=1 note=53 velocity=100 time=0
note_on channel=1 note=53 velocity=0 time=128
note_on channel=1 note=48 velocity=0 time=0
note_on channel=1 note=48 velocity=100 time=0
note_on channel=1 note=53 velocity=100 time=0
note_on channel=1 note=53 velocity=0 time=128
note_on channel=1 note=48 velocity=0 time=0
note_on channel=1 note=43 velocity=100 time=256
note_on channel=1 note=48 velocity=100 time=0
note_on channel=1 note=48 velocity=0 time=128
note_on channel=1 note=43 velocity=0 time=0
note_on channel=1 note=43 velocity=100 time=0
note_on channel=1 note=48 velocity=100 time=0
note_on channel=1 note=48 velocity=0 time=128
note_on channel=1 note=43 velocity=0 time=0
note_on channel=1 note=41 velocity=100 time=256
note_on channel=1 note=46 velocity=100 time=0
note_on channel=1 note=46 velocity=0 time=128
note_on channel=1 note=41 velocity=0 time=0
note_on channel=1 note=41 velocity=100 time=0
note_on channel=1 note=46 velocity=100 time=0
note_on channel=1 note=46 velocity=0 time=128
note_on channel=1 note=41 velocity=0 time=0
note_on channel=1 note=48 velocity=100 time=256
note_on channel=1 note=53 velocity=100 time=0
note_on channel=1 note=53 velocity=0 time=128
note_on channel=1 note=48 velocity=0 time=0
note_on channel=1 note=48 velocity=100 time=0
note_on channel=1 note=53 velocity=100 time=0
note_on channel=1 note=53 velocity=0 time=128
note_on channel=1 note=48 velocity=0 time=0
note_on channel=1 note=48 velocity=100 time=256
note_on channel=1 note=53 velocity=100 time=0
note_on channel=1 note=53 velocity=0 time=128
note_on channel=1 note=48 velocity=0 time=0
note_on channel=1 note=48 velocity=100 time=0
note_on channel=1 note=53 velocity=100 time=0
note_on channel=1 note=53 velocity=0 time=128
note_on channel=1 note=48 velocity=0 time=0
note_on channel=1 note=43 velocity=100 time=256
note_on channel=1 note=48 velocity=100 time=0
note_on channel=1 note=48 velocity=0 time=128
note_on channel=1 note=43 velocity=0 time=0
note_on channel=1 note=43 velocity=100 time=0
note_on channel=1 note=48 velocity=100 time=0
note_on channel=1 note=48 velocity=0 time=128
note_on channel=1 note=43 velocity=0 time=0
note_on channel=1 note=41 velocity=100 time=256
note_on channel=1 note=46 velocity=100 time=0
note_on channel=1 note=46 velocity=0 time=128
note_on channel=1 note=41 velocity=0 time=0
note_on channel=1 note=41 velocity=100 time=0
note_on channel=1 note=46 velocity=100 time=0
note_on channel=1 note=46 velocity=0 time=128
note_on channel=1 note=41 velocity=0 time=0
note_on channel=1 note=48 velocity=100 time=256
note_on channel=1 note=53 velocity=100 time=0
note_on channel=1 note=53 velocity=0 time=128
note_on channel=1 note=48 velocity=0 time=0
note_on channel=1 note=48 velocity=100 time=0
note_on channel=1 note=53 velocity=100 time=0
note_on channel=1 note=53 velocity=0 time=128
note_on channel=1 note=48 velocity=0 time=0
note_on channel=1 note=41 velocity=100 time=256
note_on channel=1 note=46 velocity=100 time=0
note_on channel=1 note=46 velocity=0 time=128
note_on channel=1 note=41 velocity=0 time=0
note_on channel=1 note=41 velocity=100 time=0
note_on channel=1 note=46 velocity=100 time=0
note_on channel=1 note=46 velocity=0 time=128
note_on channel=1 note=41 velocity=0 time=0
note_on channel=1 note=41 velocity=100 time=0
note_on channel=1 note=46 velocity=100 time=0
note_on channel=1 note=46 velocity=0 time=128
note_on channel=1 note=41 velocity=0 time=0
note_on channel=1 note=41 velocity=100 time=0
note_on channel=1 note=46 velocity=100 time=0
note_on channel=1 note=46 velocity=0 time=128
note_on channel=1 note=41 velocity=0 time=0
note_on channel=1 note=43 velocity=100 time=0
note_on channel=1 note=48 velocity=100 time=0
note_on channel=1 note=48 velocity=0 time=128
note_on channel=1 note=43 velocity=0 time=0
note_on channel=1 note=43 velocity=100 time=0
note_on channel=1 note=48 velocity=100 time=0
note_on channel=1 note=48 velocity=0 time=128
note_on channel=1 note=43 velocity=0 time=0
note_on channel=1 note=43 velocity=100 time=0
note_on channel=1 note=48 velocity=100 time=0
note_on channel=1 note=48 velocity=0 time=128
note_on channel=1 note=43 velocity=0 time=0
note_on channel=1 note=43 velocity=100 time=0
note_on channel=1 note=48 velocity=100 time=0
note_on channel=1 note=48 velocity=0 time=128
note_on channel=1 note=43 velocity=0 time=0
note_on channel=1 note=48 velocity=100 time=0
note_on channel=1 note=53 velocity=100 time=0
note_on channel=1 note=53 velocity=0 time=128
note_on channel=1 note=48 velocity=0 time=0
note_on channel=1 note=48 velocity=100 time=0
note_on channel=1 note=53 velocity=100 time=0
note_on channel=1 note=53 velocity=0 time=128
note_on channel=1 note=48 velocity=0 time=0
note_on channel=1 note=47 velocity=100 time=0
note_on channel=1 note=52 velocity=100 time=0
note_on channel=1 note=52 velocity=0 time=128
note_on channel=1 note=47 velocity=0 time=0
note_on channel=1 note=47 velocity=100 time=0
note_on channel=1 note=52 velocity=100 time=0
note_on channel=1 note=52 velocity=0 time=128
note_on channel=1 note=47 velocity=0 time=0
note_on channel=1 note=45 velocity=100 time=0
note_on channel=1 note=50 velocity=100 time=0
note_on channel=1 note=50 velocity=0 time=128
note_on channel=1 note=45 velocity=0 time=0
note_on channel=1 note=45 velocity=100 time=0
note_on channel=1 note=50 velocity=100 time=0
note_on channel=1 note=50 velocity=0 time=128
note_on channel=1 note=45 velocity=0 time=0
note_on channel=1 note=43 velocity=100 time=0
note_on channel=1 note=48 velocity=100 time=0
note_on channel=1 note=48 velocity=0 time=128
note_on channel=1 note=43 velocity=0 time=0
note_on channel=1 note=43 velocity=100 time=0
note_on channel=1 note=48 velocity=100 time=0
note_on channel=1 note=48 velocity=0 time=128
note_on channel=1 note=43 velocity=0 time=0
note_on channel=1 note=46 velocity=100 time=0
note_on channel=1 note=46 velocity=0 time=256
note_on channel=1 note=53 velocity=100 time=0
note_on channel=1 note=53 velocity=0 time=256
note_on channel=1 note=45 velocity=100 time=0
note_on channel=1 note=45 velocity=0 time=256
note_on channel=1 note=52 velocity=100 time=0
note_on channel=1 note=52 velocity=0 time=256
note_on channel=1 note=50 velocity=100 time=0
note_on channel=1 note=50 velocity=0 time=384
note_on channel=1 note=50 velocity=100 time=0
note_on channel=1 note=50 velocity=0 time=128
note_on channel=1 note=47 velocity=100 time=0
note_on channel=1 note=47 velocity=0 time=384
note_on channel=1 note=47 velocity=100 time=0
note_on channel=1 note=47 velocity=0 time=128
note_on channel=1 note=50 velocity=100 time=0
note_on channel=1 note=50 velocity=0 time=384
note_on channel=1 note=50 velocity=100 time=0
note_on channel=1 note=50 velocity=0 time=128
note_on channel=1 note=47 velocity=100 time=0
note_on channel=1 note=47 velocity=0 time=384
note_on channel=1 note=47 velocity=100 time=0
note_on channel=1 note=47 velocity=0 time=128
note_on channel=1 note=50 velocity=100 time=0
note_on channel=1 note=50 velocity=0 time=384
note_on channel=1 note=50 velocity=100 time=0
note_on channel=1 note=50 velocity=0 time=128
note_on channel=1 note=47 velocity=100 time=0
note_on channel=1 note=47 velocity=0 time=384
note_on channel=1 note=47 velocity=100 time=0
note_on channel=1 note=47 velocity=0 time=128
note_on channel=1 note=50 velocity=100 time=0
note_on channel=1 note=50 velocity=0 time=384
note_on channel=1 note=50 velocity=100 time=0
note_on channel=1 note=50 velocity=0 time=128
note_on channel=1 note=47 velocity=100 time=0
note_on channel=1 note=47 velocity=0 time=384
note_on channel=1 note=47 velocity=100 time=0
note_on channel=1 note=47 velocity=0 time=128
note_on channel=1 note=45 velocity=100 time=0
note_on channel=1 note=45 velocity=0 time=128
note_on channel=1 note=50 velocity=100 time=0
note_on channel=1 note=50 velocity=0 time=128
note_on channel=1 note=54 velocity=100 time=0
note_on channel=1 note=54 velocity=0 time=128
note_on channel=1 note=50 velocity=100 time=0
note_on channel=1 note=50 velocity=0 time=128
note_on channel=1 note=47 velocity=100 time=0
note_on channel=1 note=47 velocity=0 time=128
note_on channel=1 note=50 velocity=100 time=0
note_on channel=1 note=50 velocity=0 time=128
note_on channel=1 note=54 velocity=100 time=0
note_on channel=1 note=54 velocity=0 time=128
note_on channel=1 note=50 velocity=100 time=0
note_on channel=1 note=50 velocity=0 time=128
note_on channel=1 note=45 velocity=100 time=0
note_on channel=1 note=45 velocity=0 time=128
note_on channel=1 note=50 velocity=100 time=0
note_on channel=1 note=50 velocity=0 time=128
note_on channel=1 note=54 velocity=100 time=0
note_on channel=1 note=54 velocity=0 time=128
note_on channel=1 note=50 velocity=100 time=0
note_on channel=1 note=50 velocity=0 time=128
note_on channel=1 note=47 velocity=100 time=0
note_on channel=1 note=47 velocity=0 time=128
note_on channel=1 note=50 velocity=100 time=0
note_on channel=1 note=50 velocity=0 time=128
note_on channel=1 note=54 velocity=100 time=0
note_on channel=1 note=54 velocity=0 time=128
note_on channel=1 note=50 velocity=100 time=0
note_on channel=1 note=50 velocity=0 time=128
note_on channel=1 note=45 velocity=100 time=0
note_on channel=1 note=45 velocity=0 time=128
note_on channel=1 note=50 velocity=100 time=0
note_on channel=1 note=50 velocity=0 time=128
note_on channel=1 note=54 velocity=100 time=0
note_on channel=1 note=54 velocity=0 time=128
note_on channel=1 note=50 velocity=100 time=0
note_on channel=1 note=50 velocity=0 time=128
note_on channel=1 note=47 velocity=100 time=0
note_on channel=1 note=47 velocity=0 time=128
note_on channel=1 note=50 velocity=100 time=0
note_on channel=1 note=50 velocity=0 time=128
note_on channel=1 note=54 velocity=100 time=0
note_on channel=1 note=54 velocity=0 time=128
note_on channel=1 note=50 velocity=100 time=0
note_on channel=1 note=50 velocity=0 time=128
note_on channel=1 note=45 velocity=100 time=0
note_on channel=1 note=45 velocity=0 time=128
note_on channel=1 note=50 velocity=100 time=0
note_on channel=1 note=50 velocity=0 time=128
note_on channel=1 note=54 velocity=100 time=0
note_on channel=1 note=54 velocity=0 time=128
note_on channel=1 note=50 velocity=100 time=0
note_on channel=1 note=50 velocity=0 time=128
note_on channel=1 note=47 velocity=100 time=0
note_on channel=1 note=47 velocity=0 time=128
note_on channel=1 note=50 velocity=100 time=0
note_on channel=1 note=50 velocity=0 time=128
note_on channel=1 note=54 velocity=100 time=0
note_on channel=1 note=54 velocity=0 time=128
note_on channel=1 note=50 velocity=100 time=0
note_on channel=1 note=50 velocity=0 time=128
note_on channel=1 note=47 velocity=100 time=0
note_on channel=1 note=47 velocity=0 time=128
note_on channel=1 note=52 velocity=100 time=0
note_on channel=1 note=52 velocity=0 time=128
note_on channel=1 note=55 velocity=100 time=0
note_on channel=1 note=55 velocity=0 time=128
note_on channel=1 note=52 velocity=100 time=0
note_on channel=1 note=52 velocity=0 time=128
note_on channel=1 note=47 velocity=100 time=0
note_on channel=1 note=47 velocity=0 time=128
note_on channel=1 note=52 velocity=100 time=0
note_on channel=1 note=52 velocity=0 time=128
note_on channel=1 note=55 velocity=100 time=0
note_on channel=1 note=55 velocity=0 time=128
note_on channel=1 note=52 velocity=100 time=0
note_on channel=1 note=52 velocity=0 time=128
note_on channel=1 note=45 velocity=100 time=0
note_on channel=1 note=45 velocity=0 time=128
note_on channel=1 note=52 velocity=100 time=0
note_on channel=1 note=52 velocity=0 time=128
note_on channel=1 note=55 velocity=100 time=0
note_on channel=1 note=55 velocity=0 time=128
note_on channel=1 note=52 velocity=100 time=0
note_on channel=1 note=52 velocity=0 time=128
note_on channel=1 note=45 velocity=100 time=0
note_on channel=1 note=45 velocity=0 time=128
note_on channel=1 note=52 velocity=100 time=0
note_on channel=1 note=52 velocity=0 time=128
note_on channel=1 note=55 velocity=100 time=0
note_on channel=1 note=55 velocity=0 time=128
note_on channel=1 note=52 velocity=100 time=0
note_on channel=1 note=52 velocity=0 time=128
note_on channel=1 note=45 velocity=100 time=0
note_on channel=1 note=45 velocity=0 time=128
note_on channel=1 note=50 velocity=100 time=0
note_on channel=1 note=50 velocity=0 time=128
note_on channel=1 note=54 velocity=100 time=0
note_on channel=1 note=54 velocity=0 time=128
note_on channel=1 note=50 velocity=100 time=0
note_on channel=1 note=50 velocity=0 time=128
note_on channel=1 note=47 velocity=100 time=0
note_on channel=1 note=47 velocity=0 time=128
note_on channel=1 note=50 velocity=100 time=0
note_on channel=1 note=50 velocity=0 time=128
note_on channel=1 note=54 velocity=100 time=0
note_on channel=1 note=54 velocity=0 time=128
note_on channel=1 note=50 velocity=100 time=0
note_on channel=1 note=50 velocity=0 time=128
note_on channel=1 note=50 velocity=100 time=0
note_on channel=1 note=50 velocity=0 time=384
note_on channel=1 note=50 velocity=100 time=0
note_on channel=1 note=50 velocity=0 time=128
note_on channel=1 note=47 velocity=100 time=0
note_on channel=1 note=47 velocity=0 time=384
note_on channel=1 note=47 velocity=100 time=0
note_on channel=1 note=47 velocity=0 time=128
note_on channel=1 note=50 velocity=100 time=0
note_on channel=1 note=50 velocity=0 time=384
note_on channel=1 note=50 velocity=100 time=0
note_on channel=1 note=50 velocity=0 time=128
note_on channel=1 note=47 velocity=100 time=0
note_on channel=1 note=47 velocity=0 time=384
note_on channel=1 note=47 velocity=100 time=0
note_on channel=1 note=47 velocity=0 time=128
note_on channel=1 note=50 velocity=100 time=0
note_on channel=1 note=50 velocity=0 time=384
note_on channel=1 note=50 velocity=100 time=0
note_on channel=1 note=50 velocity=0 time=128
note_on channel=1 note=47 velocity=100 time=0
note_on channel=1 note=47 velocity=0 time=384
note_on channel=1 note=47 velocity=100 time=0
note_on channel=1 note=47 velocity=0 time=128
note_on channel=1 note=50 velocity=100 time=0
note_on channel=1 note=50 velocity=0 time=384
note_on channel=1 note=50 velocity=100 time=0
note_on channel=1 note=50 velocity=0 time=128
note_on channel=1 note=47 velocity=100 time=0
note_on channel=1 note=47 velocity=0 time=384
note_on channel=1 note=47 velocity=100 time=0
note_on channel=1 note=47 velocity=0 time=128
note_on channel=1 note=50 velocity=100 time=0
note_on channel=1 note=50 velocity=0 time=384
note_on channel=1 note=50 velocity=100 time=0
note_on channel=1 note=50 velocity=0 time=128
note_on channel=1 note=47 velocity=100 time=0
note_on channel=1 note=47 velocity=0 time=384
note_on channel=1 note=47 velocity=100 time=0
note_on channel=1 note=47 velocity=0 time=128
note_on channel=1 note=52 velocity=100 time=0
note_on channel=1 note=52 velocity=0 time=384
note_on channel=1 note=52 velocity=100 time=0
note_on channel=1 note=52 velocity=0 time=128
note_on channel=1 note=52 velocity=100 time=0
note_on channel=1 note=52 velocity=0 time=128
note_on channel=1 note=54 velocity=100 time=0
note_on channel=1 note=54 velocity=0 time=128
note_on channel=1 note=55 velocity=100 time=0
note_on channel=1 note=55 velocity=0 time=256
note_on channel=1 note=45 velocity=100 time=0
note_on channel=1 note=45 velocity=0 time=384
note_on channel=1 note=45 velocity=100 time=0
note_on channel=1 note=45 velocity=0 time=128
note_on channel=1 note=45 velocity=100 time=0
note_on channel=1 note=45 velocity=0 time=128
note_on channel=1 note=47 velocity=100 time=0
note_on channel=1 note=47 velocity=0 time=128
note_on channel=1 note=49 velocity=100 time=0
note_on channel=1 note=49 velocity=0 time=128
note_on channel=1 note=45 velocity=100 time=0
note_on channel=1 note=45 velocity=0 time=128
note_on channel=1 note=46 velocity=100 time=0
note_on channel=1 note=46 velocity=0 time=256
note_on channel=1 note=46 velocity=100 time=0
note_on channel=1 note=46 velocity=0 time=128
note_on channel=1 note=46 velocity=100 time=0
note_on channel=1 note=46 velocity=0 time=128
note_on channel=1 note=46 velocity=100 time=0
note_on channel=1 note=46 velocity=0 time=128
note_on channel=1 note=46 velocity=100 time=0
note_on channel=1 note=46 velocity=0 time=128
note_on channel=1 note=46 velocity=100 time=0
note_on channel=1 note=46 velocity=0 time=128
note_on channel=1 note=46 velocity=100 time=0
note_on channel=1 note=46 velocity=0 time=128
note_on channel=1 note=48 velocity=100 time=0
note_on channel=1 note=53 velocity=100 time=0
note_on channel=1 note=53 velocity=0 time=128
note_on channel=1 note=48 velocity=0 time=0
note_on channel=1 note=48 velocity=100 time=0
note_on channel=1 note=53 velocity=100 time=0
note_on channel=1 note=53 velocity=0 time=128
note_on channel=1 note=48 velocity=0 time=0
note_on channel=1 note=43 velocity=100 time=256
note_on channel=1 note=48 velocity=100 time=0
note_on channel=1 note=48 velocity=0 time=128
note_on channel=1 note=43 velocity=0 time=0
note_on channel=1 note=43 velocity=100 time=0
note_on channel=1 note=48 velocity=100 time=0
note_on channel=1 note=48 velocity=0 time=128
note_on channel=1 note=43 velocity=0 time=0
note_on channel=1 note=41 velocity=100 time=256
note_on channel=1 note=46 velocity=100 time=0
note_on channel=1 note=46 velocity=0 time=128
note_on channel=1 note=41 velocity=0 time=0
note_on channel=1 note=41 velocity=100 time=0
note_on channel=1 note=46 velocity=100 time=0
note_on channel=1 note=46 velocity=0 time=128
note_on channel=1 note=41 velocity=0 time=0
note_on channel=1 note=48 velocity=100 time=256
note_on channel=1 note=53 velocity=100 time=0
note_on channel=1 note=53 velocity=0 time=128
note_on channel=1 note=48 velocity=0 time=0
note_on channel=1 note=48 velocity=100 time=0
note_on channel=1 note=53 velocity=100 time=0
note_on channel=1 note=53 velocity=0 time=128
note_on channel=1 note=48 velocity=0 time=0
note_on channel=1 note=48 velocity=100 time=256
note_on channel=1 note=53 velocity=100 time=0
note_on channel=1 note=53 velocity=0 time=128
note_on channel=1 note=48 velocity=0 time=0
note_on channel=1 note=48 velocity=100 time=0
note_on channel=1 note=53 velocity=100 time=0
note_on channel=1 note=53 velocity=0 time=128
note_on channel=1 note=48 velocity=0 time=0
note_on channel=1 note=43 velocity=100 time=256
note_on channel=1 note=48 velocity=100 time=0
note_on channel=1 note=48 velocity=0 time=128
note_on channel=1 note=43 velocity=0 time=0
note_on channel=1 note=43 velocity=100 time=0
note_on channel=1 note=48 velocity=100 time=0
note_on channel=1 note=48 velocity=0 time=128
note_on channel=1 note=43 velocity=0 time=0
note_on channel=1 note=41 velocity=100 time=256
note_on channel=1 note=46 velocity=100 time=0
note_on channel=1 note=46 velocity=0 time=128
note_on channel=1 note=41 velocity=0 time=0
note_on channel=1 note=41 velocity=100 time=0
note_on channel=1 note=46 velocity=100 time=0
note_on channel=1 note=46 velocity=0 time=128
note_on channel=1 note=41 velocity=0 time=0
note_on channel=1 note=48 velocity=100 time=256
note_on channel=1 note=53 velocity=100 time=0
note_on channel=1 note=53 velocity=0 time=128
note_on channel=1 note=48 velocity=0 time=0
note_on channel=1 note=48 velocity=100 time=0
note_on channel=1 note=53 velocity=100 time=0
note_on channel=1 note=53 velocity=0 time=128
note_on channel=1 note=48 velocity=0 time=0
note_on channel=1 note=41 velocity=100 time=256
note_on channel=1 note=46 velocity=100 time=0
note_on channel=1 note=46 velocity=0 time=128
note_on channel=1 note=41 velocity=0 time=0
note_on channel=1 note=41 velocity=100 time=0
note_on channel=1 note=46 velocity=100 time=0
note_on channel=1 note=46 velocity=0 time=128
note_on channel=1 note=41 velocity=0 time=0
note_on channel=1 note=41 velocity=100 time=0
note_on channel=1 note=46 velocity=100 time=0
note_on channel=1 note=46 velocity=0 time=128
note_on channel=1 note=41 velocity=0 time=0
note_on channel=1 note=41 velocity=100 time=0
note_on channel=1 note=46 velocity=100 time=0
note_on channel=1 note=46 velocity=0 time=128
note_on channel=1 note=41 velocity=0 time=0
note_on channel=1 note=43 velocity=100 time=0
note_on channel=1 note=48 velocity=100 time=0
note_on channel=1 note=48 velocity=0 time=128
note_on channel=1 note=43 velocity=0 time=0
note_on channel=1 note=43 velocity=100 time=0
note_on channel=1 note=48 velocity=100 time=0
note_on channel=1 note=48 velocity=0 time=128
note_on channel=1 note=43 velocity=0 time=0
note_on channel=1 note=43 velocity=100 time=0
note_on channel=1 note=48 velocity=100 time=0
note_on channel=1 note=48 velocity=0 time=128
note_on channel=1 note=43 velocity=0 time=0
note_on channel=1 note=43 velocity=100 time=0
note_on channel=1 note=48 velocity=100 time=0
note_on channel=1 note=48 velocity=0 time=128
note_on channel=1 note=43 velocity=0 time=0
note_on channel=1 note=48 velocity=100 time=0
note_on channel=1 note=53 velocity=100 time=0
note_on channel=1 note=53 velocity=0 time=128
note_on channel=1 note=48 velocity=0 time=0
note_on channel=1 note=48 velocity=100 time=0
note_on channel=1 note=53 velocity=100 time=0
note_on channel=1 note=53 velocity=0 time=128
note_on channel=1 note=48 velocity=0 time=0
note_on channel=1 note=47 velocity=100 time=0
note_on channel=1 note=52 velocity=100 time=0
note_on channel=1 note=52 velocity=0 time=128
note_on channel=1 note=47 velocity=0 time=0
note_on channel=1 note=47 velocity=100 time=0
note_on channel=1 note=52 velocity=100 time=0
note_on channel=1 note=52 velocity=0 time=128
note_on channel=1 note=47 velocity=0 time=0
note_on channel=1 note=45 velocity=100 time=0
note_on channel=1 note=50 velocity=100 time=0
note_on channel=1 note=50 velocity=0 time=128
note_on channel=1 note=45 velocity=0 time=0
note_on channel=1 note=45 velocity=100 time=0
note_on channel=1 note=50 velocity=100 time=0
note_on channel=1 note=50 velocity=0 time=128
note_on channel=1 note=45 velocity=0 time=0
note_on channel=1 note=43 velocity=100 time=0
note_on channel=1 note=48 velocity=100 time=0
note_on channel=1 note=48 velocity=0 time=128
note_on channel=1 note=43 velocity=0 time=0
note_on channel=1 note=43 velocity=100 time=0
note_on channel=1 note=48 velocity=100 time=0
note_on channel=1 note=48 velocity=0 time=128
note_on channel=1 note=43 velocity=0 time=0
note_on channel=1 note=46 velocity=100 time=0
note_on channel=1 note=46 velocity=0 time=256
note_on channel=1 note=53 velocity=100 time=0
note_on channel=1 note=53 velocity=0 time=256
note_on channel=1 note=45 velocity=100 time=0
note_on channel=1 note=45 velocity=0 time=256
note_on channel=1 note=52 velocity=100 time=0
note_on channel=1 note=52 velocity=0 time=256
note_on channel=1 note=50 velocity=100 time=0
note_on channel=1 note=50 velocity=0 time=384
note_on channel=1 note=50 velocity=100 time=0
note_on channel=1 note=50 velocity=0 time=128
note_on channel=1 note=47 velocity=100 time=0
note_on channel=1 note=47 velocity=0 time=384
note_on channel=1 note=47 velocity=100 time=0
note_on channel=1 note=47 velocity=0 time=128
note_on channel=1 note=50 velocity=100 time=0
note_on channel=1 note=50 velocity=0 time=384
note_on channel=1 note=50 velocity=100 time=0
note_on channel=1 note=50 velocity=0 time=128
note_on channel=1 note=47 velocity=100 time=0
note_on channel=1 note=47 velocity=0 time=384
note_on channel=1 note=47 velocity=100 time=0
note_on channel=1 note=47 velocity=0 time=128
note_on channel=1 note=50 velocity=100 time=0
note_on channel=1 note=50 velocity=0 time=384
note_on channel=1 note=50 velocity=100 time=0
note_on channel=1 note=50 velocity=0 time=128
note_on channel=1 note=47 velocity=100 time=0
note_on channel=1 note=47 velocity=0 time=384
note_on channel=1 note=47 velocity=100 time=0
note_on channel=1 note=47 velocity=0 time=128
note_on channel=1 note=50 velocity=100 time=0
note_on channel=1 note=50 velocity=0 time=384
note_on channel=1 note=50 velocity=100 time=0
note_on channel=1 note=50 velocity=0 time=128
note_on channel=1 note=47 velocity=100 time=0
note_on channel=1 note=47 velocity=0 time=384
note_on channel=1 note=47 velocity=100 time=0
note_on channel=1 note=47 velocity=0 time=128
note_on channel=1 note=50 velocity=100 time=0
note_on channel=1 note=50 velocity=0 time=384
note_on channel=1 note=50 velocity=100 time=0
note_on channel=1 note=50 velocity=0 time=128
note_on channel=1 note=47 velocity=100 time=0
note_on channel=1 note=47 velocity=0 time=384
note_on channel=1 note=47 velocity=100 time=0
note_on channel=1 note=47 velocity=0 time=128
note_on channel=1 note=50 velocity=100 time=0
note_on channel=1 note=50 velocity=0 time=384
note_on channel=1 note=50 velocity=100 time=0
note_on channel=1 note=50 velocity=0 time=128
note_on channel=1 note=47 velocity=100 time=0
note_on channel=1 note=47 velocity=0 time=384
note_on channel=1 note=47 velocity=100 time=0
note_on channel=1 note=47 velocity=0 time=128
note_on channel=1 note=50 velocity=100 time=0
note_on channel=1 note=50 velocity=0 time=384
note_on channel=1 note=50 velocity=100 time=0
note_on channel=1 note=50 velocity=0 time=128
note_on channel=1 note=47 velocity=100 time=0
note_on channel=1 note=47 velocity=0 time=384
note_on channel=1 note=47 velocity=100 time=0
note_on channel=1 note=47 velocity=0 time=128
note_on channel=1 note=50 velocity=100 time=0
note_on channel=1 note=50 velocity=0 time=384
note_on channel=1 note=50 velocity=100 time=0
note_on channel=1 note=50 velocity=0 time=128
note_on channel=1 note=47 velocity=100 time=0
note_on channel=1 note=47 velocity=0 time=384
note_on channel=1 note=47 velocity=100 time=0
note_on channel=1 note=47 velocity=0 time=128
note_on channel=1 note=50 velocity=100 time=0
note_on channel=1 note=50 velocity=0 time=384
note_on channel=1 note=50 velocity=100 time=0
note_on channel=1 note=50 velocity=0 time=128
note_on channel=1 note=47 velocity=100 time=0
note_on channel=1 note=47 velocity=0 time=384
note_on channel=1 note=47 velocity=100 time=0
note_on channel=1 note=47 velocity=0 time=128
note_on channel=1 note=50 velocity=100 time=0
note_on channel=1 note=50 velocity=0 time=384
note_on channel=1 note=50 velocity=100 time=0
note_on channel=1 note=50 velocity=0 time=128
note_on channel=1 note=47 velocity=100 time=0
note_on channel=1 note=47 velocity=0 time=384
note_on channel=1 note=47 velocity=100 time=0
note_on channel=1 note=47 velocity=0 time=128
note_on channel=1 note=50 velocity=100 time=0
note_on channel=1 note=50 velocity=0 time=384
note_on channel=1 note=50 velocity=100 time=0
note_on channel=1 note=50 velocity=0 time=128
note_on channel=1 note=47 velocity=100 time=0
note_on channel=1 note=47 velocity=0 time=384
note_on channel=1 note=47 velocity=100 time=0
note_on channel=1 note=47 velocity=0 time=128
note_on channel=1 note=50 velocity=100 time=0
note_on channel=1 note=50 velocity=0 time=384
note_on channel=1 note=50 velocity=100 time=0
note_on channel=1 note=50 velocity=0 time=128
note_on channel=1 note=47 velocity=100 time=0
note_on channel=1 note=47 velocity=0 time=384
note_on channel=1 note=47 velocity=100 time=0
note_on channel=1 note=47 velocity=0 time=128
note_on channel=1 note=50 velocity=100 time=0
note_on channel=1 note=50 velocity=0 time=512
<meta message end_of_track time=1>
